<svg xmlns="http://www.w3.org/2000/svg" xmlns:xlink="http://www.w3.org/1999/xlink" width="734" height="288" viewBox="0 0 734 288">
  <defs>
    <rect id="rect-1" width="215" height="281" x="0" y="0"/>
    <mask id="mask-2" maskContentUnits="userSpaceOnUse" maskUnits="userSpaceOnUse">
      <rect width="734" height="288" x="0" y="0" fill="black"/>
      <use fill="white" xlink:href="#rect-1"/>
    </mask>
  </defs>
  <g>
    <text font-size="0" style="white-space:pre">
      <tspan x="236" y="77" fill="rgb(0,0,0)" font-family="Roboto" font-size="80" font-weight="900" style="white-space:pre;text-transform:none">OWASP</tspan> <tspan x="236" y="3" fill="rgb(0,0,0)" font-family="Roboto" font-size="80" font-weight="700" style="white-space:pre;text-transform:none"> </tspan> <tspan x="236" y="171" fill="rgb(0,0,0)" font-family="Roboto" font-size="80" font-weight="400" style="white-space:pre;text-transform:none">Application</tspan> <tspan x="236" y="265" fill="rgb(0,0,0)" font-family="Roboto" font-size="80" font-weight="400" style="white-space:pre;text-transform:none">Gateway</tspan>
    </text>
    <g>
      <use fill="none" xlink:href="#rect-1"/>
      <g mask="url(#mask-2)">
        <path fill="rgb(209,204,198)" fill-rule="evenodd" d="M137.72321916 67.45452094c-1.6184343 1.16809199-3.9821134 4.88624395-3.44065678 7.65478649-2.26475281-1.5951859-1.70548945-5.0560286-.61730013-7.88379833-.80394108-.08357616-1.62832693-.18886896-2.4771146-.32048496-3.31007407-.51396047-6.78106825-1.65901966-10.08652576-3.36871149-3.4426353.95882255-6.03846147 6.80520522-6.04571607 6.82297338-2.00754442-2.99755437.01319018-6.57816762 2.42237539-8.97489496-.93979987-.63636335-1.8532194-1.32010847-2.73168496-2.05057726-4.59083992-3.8188382-7.94642009-10.03177143-5.60648329-15.66888466.25984642.89762111.59817437 1.77549982.99981516 2.63100382.16157963-1.01936591.39768373-1.98082079.70237675-2.86593838 1.10665556-3.21537885 3.13728279-5.5291881 5.9039217-6.2464953l.00395705-.00460656c.08046006-.02237472.16092012-.04080096.24203969-.05527872 2.98889334-.66202848 6.05363017.65873807 8.60988582 3.34962717 2.2865166 2.40594046 4.217558 5.98260523 5.25232713 10.15943895l.00593558.0263232c.52233087 2.11770142.82372634 4.85926267.75447793 7.50737657-.03561347 1.36025135-.16883423 2.70865726-.42010703 3.95900925.23940165.04409136.47814379.0855504.71556691.1217448 7.72020861 1.19967982 13.2501889-.10397664 17.47104445-3.02256142-1.44168597-2.02227982-3.12211409-3.81818012-4.8625575-5.36993275-2.963832-2.64350734-6.07935101-4.56378476-8.49381229-5.69502427-5.5543821-2.60139022-8.47336752-7.78377017-11.40026705-12.97931172-1.31901736-2.34079054-2.64001324-4.68618764-4.15028812-6.64989834-2.2265013-2.89423582-4.8177109-4.9704782-7.62721789-6.03459355-2.61956847-.99304271-5.4706245-1.11412943-8.43247798-.20334672l-1.51489144.4738176c-6.28907478 1.96568494-9.77391864 3.05546541-25.75909003 2.70141837-14.39311744-.31851071-18.14123717 12.65158789-18.41229524 13.66700532 2.52855628 3.14430621 4.14976052 6.37876938 4.216239 9.41383432-.05922388-.06712416-20.51408345-23.4111958-34.29623205-22.86433132-6.23136776.24743808-9.32459538 3.63918237-10.82781351 7.89301145-1.66525942 4.71251084-1.56712453 10.57271319-1.42539611 14.81469683.1561057 4.67697452.10895083 8.71495336-1.22266314 12.55945669-1.36643604 3.94453148-4.00269009 7.47381449-8.98377449 10.89583046-.66517385.45670752-1.05366404.98185535-1.18994491 1.54385567-.24731576 1.01870783.17955783 2.35658445 1.17732192 3.84976796 1.19770733 1.79392607 3.16047112 3.677351 5.76454114 5.454167 6.13956416 4.18999532 15.59658888 7.6113532 26.8515002 7.81799032-2.70912975-16.881068 7.99937864-35.22241552 10.18630943-38.7497243-5.5648683-6.79994057-13.74297378-15.43197585-19.69972213-15.87091521-5.4056629-.3981384-5.65733141 4.9013798-5.97831429 11.6776295-.25760409 5.44100539-1.80078845 24.21734378-13.48154454 23.09400123 7.92900906-5.83124683 8.38578477-15.45500866 8.75807742-23.31643227.44978492-9.49609432.80249017-16.92252705 11.03516304-16.16836738 5.16731647.38102832 25.07933444 14.87260787 25.58069294 28.77388967-.01187116-.01842624-1.18559876-1.7268019-3.08603897-4.22421549-3.91042482 6.72755178-15.27666121 28.94499046-4.67736746 44.04726825 9.80168396 13.96577364 30.642488 13.41496068 43.56226305 12.73845445-2.53581088-1.93278095-4.22151506-4.2597518-4.35803336-6.98420298.05078217.03158784 17.71308413 11.13997814 29.80385677 9.27892792 7.1958992-1.10754863 10.09971593-8.46093449 12.3697448-14.20992132.33964697-.8614267.6687418-1.69258174 1.00047467-2.48161965-.73073562.96079679-1.57029017 2.65074621-2.48634772 4.49600252-2.68551935 5.40875947-5.89205055 11.86584037-12.7562169 12.07905829-8.5333828.26586431-14.26583226-6.26097307-19.94947806-12.7331898-2.9631725-3.37397614-5.91315483-6.73215835-9.08539158-8.79260681-.91737658-.52909632-1.39486086-1.63006415-1.09148687-2.69286334.35811322-1.25561663 1.66855696-1.9834531 2.92689953-1.62611566 9.72643401 2.7896011 18.08834457 4.24790636 25.41614551 4.730279 7.27701878.47908223 13.55026535-.00065808 19.13564436-1.08978047 34.08143007-6.64594987 43.24332465-35.2237317 49.69463856-55.34781791 2.89260507-9.02227672 5.2958547-16.51451745 9.25620433-20.2431987-.65884917-.69295823-1.20887941-1.51358399-1.64217661-2.41712782-.54409467-1.1345299-.8962723-2.39277886-1.0400452-3.66221517-.08969317-.79035407-.0995858-1.59716014-.02703985-2.39277886-11.41345722 6.4998561-16.20280925 18.67894256-20.67559712 30.05648758-5.96657503 15.17993122-11.4266474 29.0588383-29.7603292 28.97262982"/>
        <path fill="rgb(158,151,145)" fill-rule="evenodd" d="M112.78192139 93.57832336c-6.6920166-.4409027-14.2467041-1.69520568-22.9159546-4.03468322 69.2385254 8.93719482 79.97155762-26.09309388 88.01501466-52.34516907 3.06335449-9.99822998 5.7366333-18.7231598 11.10321044-23.26098633.0758667.18426514.15698243.36523438.2420044.54292297.4333496.90353394.9833374 1.72416687 1.64221191 2.41711426-3.96032715 3.72869873-6.36358642 11.220932-9.25622558 20.24320984-6.45129395 20.12408447-15.61315918 48.70185852-49.69464112 55.34780884-5.58538818 1.08912659-11.85858154 1.56886291-19.13562011 1.08978271zm6.66436767-56.56593322c2.17175293.27244568 4.29803467 1.5050354 6.15582276 3.46084594 2.28656006 2.40594483 4.21759033 5.98260498 5.25238037 10.1594391l.0059204.0263214c.52233887 2.1177063.82373048 4.8592682.75445557 7.50738526-.0355835 1.36024475-.16882324 2.70864868-.42010498 3.95899963.23937989.0440979.47814942.08555603.71557618.12174988 7.72021484 1.19967651 13.2501831-.1039734 17.4710083-3.02256775-1.4416504-2.02227783-3.12207032-3.81817627-4.86254883-5.36993408-2.96380615-2.64350891-6.0793457-4.56378174-8.49377442-5.69502259-5.55438232-2.6013794-8.47338867-7.7837677-11.40026855-12.97930908-1.31903076-2.3407898-2.64001465-4.68618774-4.15032959-6.64990234-2.22650147-2.89422608-4.81768799-4.97047425-7.62719727-6.03459168-2.61956787-.99304199-5.47064209-1.11412048-8.43249511-.20335388l-1.51489258.47383118c-.55792236.1743927-1.09411621.34153747-1.6184082.50210571 0 0 11.85205078-1.78404236 16.14941406 7.08818054 1.2220459 2.52175904 1.8083496 4.74476624 2.0154419 6.65582276zM74.28179932 25.58879089C62.24291992 26.90429688 58.980896 38.18969727 58.72845459 39.1347046c1.85308838 2.30459595 3.21844482 4.65722656 3.84240723 6.94406128 0 0 .1697998-18.29264832 11.7109375-20.48997498zm-19.3114624 34.04379273c-.4258423-.60740662-1.4414673-2.03479004-2.86346436-3.9037323-3.91046143 6.72755432-15.27667236 28.94499206-4.67736817 44.04727173 9.80169678 13.96577453 30.64245606 13.41496277 43.56225586 12.7384491-2.53582763-1.93278504-4.22149658-4.25975037-4.35803222-6.98420716.21881103.1370697 17.77069092 11.13111877 29.803833 9.27893066 7.19592286-1.10754394 10.09973145-8.4609375 12.36975098-14.20991516.33966065-.86143493.6687622-1.69258117 1.00048828-2.48162841-.73071289.96080017-1.5703125 2.65075683-2.48632812 4.4960022-2.68554688 5.4087677-5.89208985 11.86584472-12.75622559 12.07907104-8.53338623.26585388-14.26586914-6.26098633-19.94946289-12.73320008-2.9631958-3.37397766-5.913208-6.73214721-9.08538818-8.79260253-2.19091797 8.69126892-22.85388184 15.85446166-31.74517822 2.99031066-8.19018555-11.85136413-.13525391-33.22975158 1.18511962-36.52474975zm.17486572-.42840576l-.00073243-.00921631.00256348.0059204-.00183105.0032959z"/>
        <path fill="rgb(129,122,116)" fill-rule="evenodd" d="M4.97568302 74.52953896c.1306157.80417375.54100157 1.7235115 1.20051025 2.71128957 1.19770733 1.79392607 3.16047112 3.677351 5.76454114 5.454167 6.13956416 4.18999532 15.59658888 7.6113532 26.8515002 7.81799032-2.70912975-16.881068 7.99937864-35.22241552 10.18630943-38.7497243-5.5648683-6.79994057-13.74297378-15.43197585-19.69972213-15.87091521-5.4056629-.3981384-5.65733141 4.9013798-5.97831429 11.6776295-.24395226 5.14815979-1.64026404 22.23191644-11.68438338 23.10453051-1.85770405 1.62282527-4.1332728 3.15022893-6.64044122 3.8550326"/>
        <path fill="rgb(255,255,255)" fill-rule="evenodd" d="M171.31793182 192.96946014c.17608882-.16846848.35217764-.3389112.52628793-.51067008.71095036-.69888095 1.40211545-1.41684622 2.0583266-2.14205038-1.28670144-.70480367-2.79895485-1.32603118-3.45318746-.80417375-.51441677.41064192.13453977 2.01898942.86857293 3.45689421"/>
        <path fill="rgb(255,255,255)" fill-rule="evenodd" d="M177.1888781 186.13464132c.53552104-.81996767.98200842-1.61624447 1.31308178-2.36908798-.8731895-.50935391-1.9376365-.97198415-2.32147056-.48171455-.42934015.54883871.22423295 1.7564155 1.00838877 2.85080253"/>
        <path fill="rgb(255,255,255)" fill-rule="evenodd" d="M164.15566756 198.62105113c.93848085-.55739376 1.97259046-1.27141055 3.0475896-2.09927518-1.18381807-1.07003807-2.64858685-2.14994734-3.32458325-1.67678783-.72084299.50277312-.26776052 2.28880222.27699365 3.776063"/>
        <path fill="rgb(255,255,255)" fill-rule="evenodd" d="M119.2094915 275.16047288c1.90532057.41566965 4.18458257.7002366 6.62278616.84753464-.2816102-3.05155641-.99717713-7.74320612-2.72245183-7.50030879-2.26870986.31930041-3.40702185 4.21579206-3.90033434 6.65277415"/>
        <path fill="rgb(255,255,255)" fill-rule="evenodd" d="M130.94742698 276.11726196c1.7021919-.02699444 3.41031939-.11696713 5.0597506-.27043139.52628792-.04909935 1.04664027-.10539809 1.55709999-.1681197-.4260426-2.87986992-1.367821-7.5293367-2.96053447-6.97872117-2.36697665.81819086-3.29688389 4.77904273-3.65631612 7.41727226"/>
        <path fill="rgb(255,255,255)" fill-rule="evenodd" d="M142.57786256 274.73400414c.24203968-.06606465.47814379-.13443916.70831232-.20513011 1.77144031-.5446994 3.0917767-1.1888939 3.69852468-1.91844138.14575142-.17583898.2202759-.33910863.20708572-.48250426-.14245387-1.52338937-.26512249-3.04105346-.37130338-4.5533871-.23280657-.29508306-.48012232-.5208045-.72414053-.63952213-.09628827-.04632883-.19191703-.06146467-.27633414-.03086395-2.33004417.8464883-3.03242091 5.10498974-3.24214467 7.82984893"/>
        <path fill="rgb(255,255,255)" fill-rule="evenodd" d="M70.36495962 276.00800752c2.43820359-.14729804 4.71746559-.431865 6.62344567-.84753464-.49331249-2.4369821-1.63162447-6.33347374-3.90033433-6.65277415-1.72593422-.24289733-2.44150114 4.44875238-2.72311134 7.5003088"/>
        <path fill="rgb(255,255,255)" fill-rule="evenodd" d="M58.63315756 275.67871088c.51085542.06324148 1.03048231.11902034 1.55729784.1681197 1.64956312.1532076 3.3575587.2431803 5.05968465.27043138-.35989389-2.638756-1.28940542-6.59954205-3.65638208-7.41727226-1.5926475-.55061553-2.53475566 4.09885125-2.96060041 6.97872118"/>
        <path fill="rgb(255,255,255)" fill-rule="evenodd" d="M49.37682133 267.5745413c-.10585114 1.51233363-.22898141 3.02947125-.37143529 4.5533871-.01292637.14339562.06153216.30666527.20734953.48250425.60668203.72954748 1.92701841 1.37347875 3.69865658 1.91844138.23056423.07069095.46680024.13906546.70870803.20513011-.20992162-2.72485919-.9122324-6.98336064-3.24240848-7.82984893-.08501067-.03060072-.18030967-.01546488-.27587248.03086395-.24447987.11871763-.49159777.34443907-.7249979.63952214"/>
        <path fill="rgb(158,151,145)" fill-rule="evenodd" d="M196.73605587 225.64457962c-.49792906.58713898-1.0103673 1.1311079-1.5346767 1.63263066-2.94206822 2.8150688-6.2600564 4.31911062-9.80359653 4.69184713-3.45054942.36247046-7.06135944-.37273651-10.69854981-2.02918966-4.43585539-2.01977912-8.9271095-5.42738314-13.2046828-9.87942592-1.9903972-2.0714384-3.95771159-3.96986756-5.9105168-5.5678174-.90616492-.74231424-1.81232984-1.42276895-2.7211328-2.0295187-.10420238 1.6083475-.21104278 3.22084091-.3192022 4.8389938 1.09346539.55555114 2.17176208 1.2043522 3.2368686 1.93311 1.50170126 1.02647317 2.97306513 2.20252792 4.42464373 3.4906537 4.6264534 4.10530043 9.8088726 7.43169738 14.94578571 9.23167778 3.6998437 1.29608855 7.36869049 1.79557126 10.76186265 1.20586578 3.28567224-.5709502 6.36096122-2.1989085 9.00559102-5.16698088.6304903-.707436 1.23723829-1.49015634 1.81760593-2.35184629"/>
        <path fill="rgb(129,122,116)" fill-rule="evenodd" d="M201.39812273 203.31316149c-2.04051986 1.80971998-3.95705208 3.50888253-4.2096439 6.4175961-.16421767 1.89000574.66082769 3.67800909 1.9765475 4.95665852.77096565.7486976 1.70351093 1.31760776 2.70134756 1.62736601.93914036.29172686 1.93499847.34674235 2.89194556.0912099 1.53533621-.40945738 3.04890863-1.64618711 4.22613163-4.01066853 1.21811253-2.44476718 1.11588868-5.53247851.40032176-8.52411017-.6008124-2.50728478-1.60656314-4.90072171-2.65056538-6.83021226-1.37969216 2.7632779-3.40042676 4.5558878-5.33608473 6.27216043"/>
        <path fill="rgb(87,80,74)" fill-rule="evenodd" d="M159.96185186 44.39803026c-4.2089844-4.50916412-6.59112975-10.04953959-8.69034588-14.93117698-2.72377085-6.33467803-4.86123848-11.30515622-10.16105024-9.27103096-1.80705378.69361631-3.61806462 2.47174846-5.34004178 4.82175212-2.12163942 2.89555197-4.03091705 6.57948378-5.64671332 10.25222823 2.14538174 3.66682172 4.47938296 7.01710697 7.902233 8.62084792 2.75674629 1.29115295 6.2983079 3.4700558 9.6413574 6.45115818 1.86706908 1.66494239 3.67873942 3.5852198 5.27145288 5.74898683 2.8800744-3.15351933 5.05711256-7.21518906 7.02310794-11.69276534"/>
        <path fill="rgb(158,151,145)" fill-rule="evenodd" d="M127.25088083 30.23746495c1.40805103-2.88370653 2.9862553-5.66672683 4.70427541-8.01080777 2.21265163-3.0199291 4.70955149-5.37059083 7.46959532-6.42944154 9.5430906-3.66155709 12.46933061 3.14562237 16.20017122 11.82174901 1.0558734 2.45529646 2.18956882 5.09156492 3.59300329 7.61793402-.84021406-2.06439695-1.49906323-4.32753405-2.1572529-6.79665018-1.09346539-4.10049645-2.69805-9.7369516-5.65198939-13.75913652-2.67166966-3.63852429-6.61685058-5.99247643-12.65531206-4.43019452-2.93679215.75942431-5.90260269 2.81329197-8.72464033 5.5160265-2.52591825 2.41844399-4.9153182 5.3455838-7.06993305 8.35300937.43659474.49290192.86197784 1.00817856 1.2761493 1.54517183 1.11259114 1.44777599 2.08866398 2.99294781 3.01593319 4.5723398"/>
        <path fill="rgb(87,80,74)" fill-rule="evenodd" d="M194.6572845 5.61145349c-.8817631.460656-1.42585776 1.37933567-1.6639404 2.43621214-.15894159.70611983-.1899385 1.48067998-.10222384 2.2532659.08639564.76797935.2882053 1.5063451.59553634 2.14599886.5539873 1.1542723 1.48389453 1.99464046 2.696731 1.95120718.3192022-.03224592.645659-.049356.9813489-.04869792.39702423-.22901184.40559785-1.78142254.14245388-3.7036742-.0844171-.61727904-1.0637875-5.50089068-1.69823485-5.31991868-.32184023.09147312-.6377449.18689472-.95167102.28560672"/>
        <path fill="rgb(255,163,163)" fill-rule="evenodd" d="M120.49091686 105.32636652c-2.58857157-1.98082078-5.3031093-2.37040414-7.32186537-2.28353758.43593524 1.52148095.25325133 3.1712875-.1899385 4.77437036-1.69625633-2.51254942-4.0803802-4.18867916-6.7698566-5.141579-1.74637899-.61925327-3.62070266-.94171247-5.52668274-.99830735 4.15886173 4.56181052 8.49710983 8.46619913 13.7527345 8.3023372 2.51602562-.07765343 4.44574802-2.10388173 6.0556087-4.65328363"/>
        <path fill="rgb(255,255,255)" fill-rule="evenodd" d="M79.59808114 67.38147406c3.26852502-.61267248 6.91824606-.36062784 10.02585096.7304688.4332972-.87393024.77690122-1.86631487 1.0182814-2.95280494.33964697-1.53332639.47022969-3.25617981.3567942-5.10604268-.2130213-3.47071388-1.28999898-6.58672266-2.85897013-8.81695576-1.36914002-1.94660062-3.06539635-3.15022893-4.7642907-3.15022893l-.22291394.00131616c-1.45289763.0888408-2.78246713 1.11939407-3.78887737 2.75538094-1.19041317 1.9340971-1.90136353 4.6348574-1.90136353 7.70414249 0 .45999791.01121165.87063983.03297544 1.22929343.10156433 1.6478323.40493833 3.23248893.86923244 4.69342652.33700893 1.06016687.75381842 2.03807374 1.23328123 2.91200397"/>
        <path fill="rgb(255,255,255)" fill-rule="evenodd" d="M126.62830463 60.84608164c.15366553-.86932367.23742313-1.8189331.26314397-2.79025918.05803676-2.22431038-.19125752-4.51377068-.62455472-6.2695281l-.00659509-.0263232c-.83361897-3.36673725-2.33400122-6.19121659-4.08499676-8.03384057-1.40343448-1.4767315-2.88469097-2.25524014-4.12720532-2.00056318l-.08903368.02040048c-1.11918623.27573552-2.03524378 1.47804766-2.63407767 3.21866925-.74722333 2.16968974-.93584281 5.02378267-.43263769 8.0687188.92397166.96671952 1.89410893 1.86368255 2.87347932 2.67706942 2.69936903 2.24602702 5.7667439 3.98072589 8.86247764 5.13565628"/>
        <path fill="rgb(209,204,198)" fill-rule="evenodd" d="M146.73936233 159.39092844c-1.62964595-8.06016377-4.2017298-15.73864114-7.95169616-23.08478812 5.19165233 2.50399438 9.3755754 11.30120774 11.53414731 18.24724208 1.5801828-1.47607342 3.37206788-2.3914627 5.37433623-2.45595454-.0303374.05133024-10.68206209 17.69906145-9.16914918 28.33495031.60476946 4.25382908 2.6670531 8.12926217 5.14812476 11.2959431 2.5760409 3.28710957 5.51744962 5.76214843 7.7419724 7.10331546-.64236146-2.70536686-.77360368-6.08263339 1.75627161-7.84957817 1.47532092-1.03055327 3.1372828-1.00817855 4.72406068-.49158576-.17608882-1.78866142.17147226-3.51019869 1.60722265-4.65657404 1.1923917-.95224175 2.659139-1.17269855 4.13577894-1.0094947-.34492304-1.53201023-.23148755-3.10153102.81647174-4.44203997 1.42321974-1.82024926 3.31139309-2.12954686 5.07360028-1.83735934-3.93199075-4.5032414-12.6731188-7.76797625-12.70213718-7.77916361 1.98380211-1.38986495 4.53478168-1.28588831 7.11082259-.41393232.75645646-1.8419659 1.65998335-5.22581323 2.1882498-8.70771448.46099657-3.03901341.61400258-6.0359097.0830981-7.89103721-.52826646-1.84459822-4.68317114-7.0987089-9.85965477-13.07473332-7.1794115-8.28983369-16.2061068-17.73393969-20.58392542-21.76665389-1.82815806-1.68336863-4.21228194-2.97188925-6.723691-3.95637692-3.02978287-1.1878344-6.23565457-1.92883247-8.91919539-2.38751422-2.4612864 3.40161549-5.85511806 6.1313313-10.9636723 6.9177369-3.3885556.52119935-10.66095781-.32114304-17.25802314-2.54018878l-.00065951.00526464c-1.61447725-.10397664-4.09884645.03027168-7.10027045.19347552-7.5144419.40669343-18.08900408.97856495-28.03769252-1.35301247-.83342112.39550607-1.63122877.82589039-2.37317604 1.29181103-.86949624.5462064-1.68458302 1.1542723-2.41703336 1.8288043-3.49256012 3.21669501-9.65995554 11.2794911-15.38429303 19.46863855-6.44518048 9.2203588-12.26171729 18.46638271-12.98460475 20.99143565-.25608722.89433071-.47273582 1.78471294-.64974795 2.66588206-1.00291485 4.99482715-.63319429 9.35789751.99420933 12.71410548 1.55571503 3.20813997 4.3228156 5.54103355 8.18944904 6.64331754.43026346.12240288.88703917.23230224 1.36848051.32904 5.35751876 1.07135423 12.50336126 1.56030767 19.30071938 1.62940607 8.03439854.08160191 15.5382883-.40998384 19.01521807-1.21020911 1.97193095-.4540752 3.67412286-2.4046243 5.01028744-5.0198342 1.3599069-2.6612755 2.2871761-5.93588155 2.7422371-9.12888568.45110393-3.16339053.43857327-6.19253274-.07386498-8.41026232-.29216234-1.26285551-.67467738-2.1315211-1.13039787-2.36316526-5.1210849-2.6053387-43.54155448-2.58428014-43.65024151-2.58098974.5512833-1.1805955 1.84121633-2.09730094 3.65869035-2.79354957 1.70469804-6.50709499 3.60461064-12.81808213 11.03081029-15.54055907-1.50552642 2.94951454-2.79414043 5.87994475-3.8903098 8.79655529-.68094272 1.8123523-1.29666002 3.63655004-1.85255989 5.47127707 11.43165966-1.67152319 30.19520922.460656 36.85228984 2.43292174 1.81035132.9206539 2.99087186 2.91332013 3.5943223 5.52392347.64104244 2.77380717.67731542 6.41891226.14772995 10.12916727-.5243094 3.67932524-1.60722266 7.47973721-3.20521219 10.60759142-1.93367945 3.78461805-4.66404538 6.66964074-8.17724812 7.47842106-3.77964425.86998175-11.71683122 1.40631694-20.10861752 1.32076654-4.63331228-.04672368-9.42015818-.28034207-13.74198451-.74692079.018796 9.73497735.6922203 19.82400174 1.38213234 30.165334.96011273 14.37904787 1.95148618 29.2472466 1.27133488 44.70133396.73990279-.08916984 1.5122534-.00690984 2.30702732.28152662 2.18587556.79403932 3.6316505 2.63488649 4.58668501 4.75225887 1.43054028-2.4127845 3.52269967-4.02297462 6.55538438-2.97498223 1.9828788.68558774 3.41031939 2.19765814 4.43783391 3.98835961 1.21943155-2.72767577 3.14123985-4.8281355 6.16706567-4.40248935 4.67591654.65808 6.79425842 6.09625564 7.68789269 9.65173023.06001529-.04422297.11871156-.08923565.17345078-.13470897 2.28387856-1.88993994 2.78774319-9.44423761 3.33315687-17.62522487.47352723-7.1119363.97673235-14.65642859 2.92030443-20.32289219-5.93755664-1.31694968-10.75394853-3.98520083-12.31830312-8.07457572.06726988.03007426 23.41915323 10.69893293 45.14139063-3.79810868.4412113 5.74944748-5.09470455 9.63369884-12.45152388 11.52001933 2.04579592 5.70318447 2.5608722 13.41456584 3.04429207 20.67555726.54475417 8.18098726 1.0486188 15.73528493 3.33249736 17.62522487.05473922.04547332.114095.08995953.17411029.13470897.89363426-3.55547459 3.01197614-8.99365024 7.68723317-9.65173023 3.02582583-.42564614 4.94829363 1.67481358 6.16772518 4.40248935 1.02751453-1.79070147 2.4546913-3.30277187 4.43783391-3.98835961 3.03242091-1.0479924 5.12438245.56219774 6.55485677 2.97498223.95562808-2.11737238 2.4006116-3.95821955 4.58688287-4.75225887.79470796-.28843646 1.56699263-.37069646 2.30696137-.28152662-.68061296-15.45356089.3112881-30.3215622 1.27153273-44.70061007.49199348-7.37608961.97607285-14.62418267 1.21679352-21.5767978-.3567942-.41393232-.70831232-.84036816-1.05125684-1.27864944-2.93217559-3.74118476-5.37565525-8.37340984-6.11166694-13.55052515-.62125717-4.36241229 1.05323536-14.6251698 4.89883048-21.68900045"/>
        <path fill="rgb(158,151,145)" fill-rule="evenodd" d="M108.22271729 235.04742432c5.27209472-1.3518982 9.60839843-3.72973633 11.48071289-7.08444214.00067138.00003052-.7854004 16.65127563 2.29772949 35.95046997-4.35601807.93774414-6.36425781 6.13302612-7.22753906 9.569458-.05999756-.04473876-.11938477-.0892334-.1741333-.13470458-2.28387452-1.88995362-2.78771973-9.44424439-3.3324585-17.62524414-.48345947-7.26098633-.99853516-14.97235108-3.04431152-20.67553711zm-26.79846192 38.43548584c-.87451172-3.47808838-2.92095947-8.75662232-7.3864746-9.60079956 1.81762694-5.61169434 3.29888915-11.30410767 3.60290527-15.6494751.88903808-12.71633911-.30999756-18.05270386-.30999756-18.05270386l.00134277.00079346c2.2977295 2.50839233 6.09716797 4.23895263 10.51916504 5.21936035-1.94360352 5.66647339-2.44677734 13.21096802-2.92028809 20.32287598-.54541015 8.18099975-1.0493164 15.73529052-3.33319091 17.62524414-.05474854.04547119-.11340333.09048462-.17346192.13470459z"/>
        <path fill="rgb(209,204,198)" fill-rule="evenodd" d="M138.7876587 136.30612183c.92858886 1.82025146 1.78533935 3.6602478 2.57342528 5.52194213-8.81762695-17.0185852-30.1553955-19.20802307-52.38409423-18.02545166-13.47113038.71730042-24.8737793-.7383728-31.7677002-1.99661254 1.03509522-1.17796326 1.96929932-2.1618042 2.76428223-2.89424134.73242187-.67453003 1.54754638-1.28259277 2.41699218-1.82881164.74194336-.46591187 1.53979493-.89630127 2.37322999-1.29180908 9.94866943 2.33157348 20.52319335 1.75970459 28.03765869 1.35301208 3.0014038-.16319275 5.4857788-.29743957 7.10028076-.19346619l.00067139-.00526428c6.5970459 2.21903992 13.8694458 3.06138611 17.2579956 2.5401764 5.10858154-.78639222 8.50238037-3.51611329 10.96368408-6.91772462 2.68353272.4586792 5.8894043 1.19967652 8.91918946 2.38751221 2.51141357.98448181 4.89556884 2.27301025 6.72369384 3.95637512 1.45355225 1.33918762 3.42022705 3.27592469 5.66125489 5.5673523-1.4595337.0236969-2.93682862.83773803-3.69458008 3.61219787-1.1112671 4.06497193 5.7904663 19.32980347 8.12646484 24.31408692-1.07305908.32904053-2.07550049.90750122-3.00933838 1.68139648-.2658081-.13555908-.54608154-.30270386-.8395996-.50341797-2.2350464-6.77230835-6.27124024-14.88775634-11.22351075-17.2772522zm28.79681396 33.44561767c1.37243652-.15335083 2.85961914.0940857 4.35473632.6001587.75646973-1.84197999 1.65997315-5.22579957 2.18823243-8.70770264.46099853-3.03903199.61401367-6.0359192.08312988-7.89105225-.4920044-1.7182312-4.12988281-6.39324951-8.80841065-11.85464477 0 0 6.41241456 11.77371215 5.67114258 15.54449462-.58435058 2.97518921-2.6453247 9.63232422-3.48883056 12.30874634zm-21.05743409 10.68063355c-.65228271-4.58615113.95690918-10.47531128 3.00140381-15.69586182-.10351562.342865-3.93395996 13.19909668 2.20672608 19.61801148 2.50280761 2.61654663 5.55303955 5.29229736 8.37512207 7.64822387-1.40740967 1.86697388-1.22735596 4.58023071-.69317627 6.82888794-2.2244873-1.341156-5.16589356-3.81619263-7.74194336-7.103302-2.4810791-3.16668701-4.543396-7.04211426-5.14813233-11.29595947zm1.25958252 37.05352783c-.96020507 14.37905884-1.95214843 29.24707031-1.27148437 44.70062256 0 0-1.89349365-11.43978882-1.89349365-18.6850586 0-1.73483276.04248047-5.131073.09490966-9.322052.16662598-13.31335449.43359375-34.64691162-.24261474-36.22103882-.70239258-1.63400268-7.03234863-16.71655273-1.86309815-26.68908691-.81848144 3.98599243-1.08032226 7.63305664-.7703247 9.81066894.73602295 5.17709351 3.1795044 9.80932618 6.1116333 13.5505066.34295654.43829345.69451904.86471557 1.05126953 1.278656-.24072266 6.9526062-.72479248 14.20071411-1.21679688 21.57678223z"/>
        <path fill="rgb(158,151,145)" fill-rule="evenodd" d="M138.7876587 136.30612183c.92858886 1.82025146 1.78533935 3.6602478 2.57342528 5.52194213-8.81762695-17.0185852-30.1553955-19.20802307-52.38409423-18.02545166-13.47113038.71730042-24.8737793-.7383728-31.7677002-1.99661254 1.03509522-1.17796326 1.96929932-2.1618042 2.76428223-2.89424134.73242187-.67453003 1.54754638-1.28259277 2.41699218-1.82881164.74194336-.46591187 1.53979493-.89630127 2.37322999-1.29180908 9.94866943 2.33157348 20.52319335 1.75970459 28.03765869 1.35301208 3.0014038-.16319275 5.4857788-.29743957 7.10028076-.19346619l.00067139-.00526428c6.5970459 2.21903992 13.8694458 3.06138611 17.2579956 2.5401764 5.10858154-.78639222 8.50238037-3.51611329 10.96368408-6.91772462 2.68353272.4586792 5.8894043 1.19967652 8.91918946 2.38751221 2.51141357.98448181 4.89556884 2.27301025 6.72369384 3.95637512 1.45355225 1.33918762 3.42022705 3.27592469 5.66125489 5.5673523-1.4595337.0236969-2.93682862.83773803-3.69458008 3.61219787-1.1112671 4.06497193 5.7904663 19.32980347 8.12646484 24.31408692-1.07305908.32904053-2.07550049.90750122-3.00933838 1.68139648-.2658081-.13555908-.54608154-.30270386-.8395996-.50341797-2.2350464-6.77230835-6.27124024-14.88775634-11.22351075-17.2772522zm28.79681396 33.44561767c1.37243652-.15335083 2.85961914.0940857 4.35473632.6001587.75646973-1.84197999 1.65997315-5.22579957 2.18823243-8.70770264.46099853-3.03903199.61401367-6.0359192.08312988-7.89105225-.4920044-1.7182312-4.12988281-6.39324951-8.80841065-11.85464477 0 0 6.41241456 11.77371215 5.67114258 15.54449462-.58435058 2.97518921-2.6453247 9.63232422-3.48883056 12.30874634zm-21.05743409 10.68063355c-.65228271-4.58615113.95690918-10.47531128 3.00140381-15.69586182-.10351562.342865-3.93395996 13.19909668 2.20672608 19.61801148 2.50280761 2.61654663 5.55303955 5.29229736 8.37512207 7.64822387-1.40740967 1.86697388-1.22735596 4.58023071-.69317627 6.82888794-2.2244873-1.341156-5.16589356-3.81619263-7.74194336-7.103302-2.4810791-3.16668701-4.543396-7.04211426-5.14813233-11.29595947zm1.25958252 37.05352783c-.96020507 14.37905884-1.95214843 29.24707031-1.27148437 44.70062256 0 0-1.89349365-11.43978882-1.89349365-18.6850586 0-1.73483276.04248047-5.131073.09490966-9.322052.16662598-13.31335449.43359375-34.64691162-.24261474-36.22103882-.70239258-1.63400268-7.03234863-16.71655273-1.86309815-26.68908691-.81848144 3.98599243-1.08032226 7.63305664-.7703247 9.81066894.73602295 5.17709351 3.1795044 9.80932618 6.1116333 13.5505066.34295654.43829345.69451904.86471557 1.05126953 1.278656-.24072266 6.9526062-.72479248 14.20071411-1.21679688 21.57678223z"/>
        <path fill="rgb(255,255,255)" fill-rule="evenodd" d="M71.34498952 150.38049716c7.16094525.56134223 13.7599891 1.6149283 17.17492505 2.62639726 1.81035132.9206539 2.99087186 2.91332013 3.5943223 5.52392347.64104244 2.77380717.67731542 6.41891226.14772995 10.12916727-.5243094 3.67932524-1.60722266 7.47973721-3.20521219 10.60759142-1.93367945 3.78461805-4.66404538 6.66964074-8.17724812 7.47842106-3.69654616.85089743-11.36927014 1.38262606-19.55522378 1.3253731 2.63777091 19.28042767 17.43424386 31.1500191 35.29373892 31.1500191 19.7239261 0 35.71371405-14.47756245 35.71371405-37.42481184 0-22.94790748-15.98978795-45.67601623-35.71371405-45.67601623-9.87218543 0-18.80918756 5.69436619-25.27303213 14.25993539"/>
        <path fill="rgb(0,0,0)" fill-rule="evenodd" d="M192.67547607 1.29116821c.61663819-.28494262 1.29925538-.49554443 2.04779053-.61727905 2.52526856-.59030151 4.5031128 1.21481323 5.78320313 4.01626587.70965576 1.55505371 1.23260498 3.4720459 1.48718261 5.32714844.26184082 1.91174316.2434082 3.83267212-.14178466 5.32913208-.6034546 2.35131836-1.99041748 3.85635376-4.38043213 3.73132324-5.0255127-.26586914-7.74133301 8.20362854-11.35809326 19.48574829-5.65063477 17.6273346-13.27459717 41.3998108-36.7630005 53.07348633-4.03356933 4.36044311-8.71472167 8.22601318-12.53918456 11.38414001-2.68029785 2.21377564-4.90942383 4.0544281-5.97650147 5.24687195 2.4909668.50868225 5.25628662 1.23982239 7.93127442 2.28878784 3.00604248 1.17796326 5.90325927 2.75999451 8.2055664 4.88098145 4.46490479 4.11300659 13.6564331 13.72690582 20.95458985 22.1536026 5.57220459 6.43408203 10.10699462 12.30413818 10.84100341 14.86801147.7373047 2.57571411.59484864 6.27545166.04681397 9.88699341-.58758545 3.874115-1.67382813 7.78839111-2.62548828 10.06140137 3.64642334 2.24996948 6.66766357 5.3093872 7.23742676 6.73150635.57513427 1.4352417.55072021 3.04559326.06329345 4.74804687-1.05255127 3.6760254-4.46813965 8.13781738-8.32958984 11.9355774-3.81060791 3.74777221-8.15942383 6.94866943-11.11730957 8.12927245-1.4185791.5659485-2.70465088.74493409-3.76184082.44418335-1.6157837-.46063232-4.10412598-1.87945556-6.72698975-4.03729248-.10351562 2.26113892-.2255249 4.52166748-.35943603 6.78677369 1.82287597.99502563 3.61608886 2.2519226 5.39086914 3.70629882 2.13415527 1.74655152 4.22875976 3.76290894 6.3180542 5.93692017 3.88122558 4.03897095 7.88311767 7.09771728 11.75970459 8.86270142 2.87219238 1.30819702 5.66125488 1.89508056 8.25311279 1.62261962 2.49884033-.26275634 4.86846924-1.35162353 7.00726318-3.3981018 1.48254395-1.41851807 2.86096192-3.28915406 4.10546875-5.65356446l-.16027832-.152771c-2.27661133-2.2109375-3.69720459-5.359375-3.40307617-8.7458496.4154663-4.78030396 3.01525879-7.08557129 5.7845459-9.5415039 2.28521728-2.02624512 4.72277832-4.18737794 5.30444336-8.41424561.17407226-1.2911377 1.36450195-2.19665528 2.65844726-2.02355957.55072022.07366943 1.03149414.33166504 1.38891602.70281982 1.94622803 2.02819824 5.05578613 7.21582031 6.37683105 12.73318482.94573975 3.94979858 1.02087403 8.14309692-.75183105 11.70263671-1.86114502 3.73513794-4.48010254 5.74978638-7.24603272 6.48773194-.56915283.15194702-1.14227294.2481079-1.71343994.29330444-1.60717773 4.10839844-3.57452392 7.36483765-5.8102417 9.87405396-3.4083252 3.82437133-7.42279052 5.93066406-11.74719238 6.68258667-4.21490478.7326355-8.6784668.14471435-13.11431885-1.4092102-5.76080322-2.01818849-11.48797607-5.6741028-16.53851318-10.15573121-1.32562256-1.17608643-2.64001465-2.23031616-3.94317627-3.12103271-.30603027-.20947266-.61138916-.40997315-.91674805-.60198975-1.034729 15.82910156-1.88354492 32.24050903-.30004882 49.1696167.13848877 1.48068237-.31921387 2.7852478-1.26293946 3.92019653-1.22998047 1.47988892-3.33251953 2.60839844-5.95800781 3.41583252-2.3505249.72235108-5.20550537 1.21975708-8.24255371 1.50253296-9.49694824.884552-21.08911133-.43829346-24.85229492-3.55233765-3.85217285-3.18762207-4.42132569-11.72436523-5.03729248-20.97012329-.4854126-7.27874756-1.0031128-15.0399475-3.03112793-20.06451416-3.56396485.47790528-7.32513428.5465393-10.90429688.19406128-1.96466064 5.02944946-2.47515869 12.68447876-2.95391845 19.87045288-.61602784 9.24575806-1.18518067 17.78250122-5.03735352 20.9701233-3.7631836 3.11404418-15.35601807 4.43688964-24.8526001 3.55233764-3.03729248-.28277588-5.89154053-.78018188-8.24224853-1.50253296-2.6262207-.80743408-4.72814942-1.9359436-5.95800782-3.41583252-.94372558-1.13494873-1.40118408-2.43951416-1.2633667-3.92019653 1.74169922-18.62258911.54052735-36.61889649-.61315917-53.9029541l-.00152588-.02304077-.0001831-.00280762c-.70660401-10.59036255-1.39538575-20.91366577-1.38146974-31.09442139-.5914917-.1000061-1.16674804-.20465088-1.72351074-.31585693-.5836792-.1164856-1.16467285-.25796509-1.7388916-.42184448-5.23150635-1.49121094-9.0012207-4.70132447-11.15341186-9.13876343-2.08004761-4.28933716-2.59088135-9.6763916-1.38293458-15.68927002.197052-.98251343.44464112-1.99597168.74221802-3.03573609.84991455-2.96792602 6.96350098-12.80163574 13.67034912-22.39575195 5.89904786-8.43924713 12.31347657-16.80278778 16.05053711-20.24454498.58428955-.53829956 1.21087647-1.04437256 1.87036133-1.5188446-5.83148193-2.25195313-11.14135742-5.83058167-15.08087158-11.4440155-1.61755371-2.30459596-2.79852295-4.73553468-3.62316895-7.23492433-12.8055725.01382447-23.65628051-3.86424255-30.66177368-8.64520263-3.11151123-2.12295532-5.51254272-4.45651245-7.04229736-6.74728394-1.72991943-2.59086609-2.3979187-5.20805359-1.82598877-7.56594848.41088867-1.6932373 1.42514038-3.16668702 3.09814453-4.31634522 4.05801392-2.78762817 6.16461182-5.54367065 7.2053833-8.54846191 1.07611084-3.10548401 1.10287476-6.68345642.96325684-10.8774109-.15457154-4.62959289-.25482178-11.04389953 1.68478393-16.53294372 2.10198975-5.94903564 6.41912842-10.69050598 15.10638428-11.0353241 5.43218994-.21520995 18.26971436 6.30439759 26.65655518 14.27900696 2.11065673-4.96653747 8.07385253-14.80613708 22.1142578-14.49552917 15.18878175.33624267 18.42401124-.6749878 24.258667-2.49871826l1.53271484-.47381592c4.01641846-1.2345581 7.90222168-1.06280518 11.48931885.29611206 1.74108887.6600647 3.4017334 1.59716797 4.96276856 2.78631592 2.20941162-3.03768921 4.6607666-5.99642945 7.27307129-8.4984436 3.36151123-3.21932984 7.01257324-5.69567872 10.81726074-6.68017579 8.41400146-2.1769104 13.92028808 1.11611939 17.65637207 6.20437622 3.4545288 4.70263672 5.21807861 10.87216187 6.41174316 15.34907532.60870362 2.2822113 1.21551514 4.36833191 1.9831543 6.2504425.12597656.30731202.2559204.60871888.39105225.90419007 5.35723876-13.514328 11.69049072-27.53868103 28.66558837-33.10273743zm.3178711 6.75650025c.23809814-1.05686951.78216553-1.97555542 1.66394043-2.43621826.3139038-.09870911.62982177-.19412232.95166015-.28559876.63446045-.18096924 1.61383057 4.70263672 1.6982422 5.31991577.26312255 1.92225647.25457763 3.47467041-.14245606 3.70367432-.33569336-.00065613-.66217041.01644897-.98132325.04870605-1.21282959.04342652-2.14276123-.79693603-2.69677734-1.95121765-.30731201-.63964844-.50909424-1.37802124-.59552002-2.1459961-.08770752-.772583-.05670166-1.54714965.10223389-2.25326537zm-55.2701416 59.40686035c-1.6184082 1.16809082-3.9821167 4.88623047-3.4406128 7.65478515-2.2647705-1.59518432-1.70550537-5.05603027-.61730957-7.88380432-.80395508-.08357238-1.62835693-.18887329-2.47711181-.32048034-3.31011963-.5139618-6.7810669-1.6590271-10.08654785-3.36871338-3.44262696.95881653-6.03845215 6.8052063-6.04571534 6.82296753-2.00756836-2.9975586.0131836-6.57817078 2.42236328-8.97488404-.93981933-.6363678-1.85321044-1.32011413-2.73168945-2.05058288-4.59082031-3.8188324-7.94641113-10.03178406-5.60644531-15.66888428.25982666.89762879.59814453 1.77549744.9998169 2.6309967.16156005-1.0193634.39764404-1.9808197.70233154-2.86593627 1.10668945-3.21537781 3.1373291-5.52919007 5.90393066-6.24649048l.00396729-.00460816c.08044433-.02236938.1609497-.040802.24206543-.05528259 2.9888916-.66203308 6.05358886.65873718 8.60986328 3.34962463 2.28649902 2.40594483 4.21759033 5.98260498 5.25231933 10.15945435l.00592041.02630615c.52233887 2.1177063.82373047 4.8592682.7545166 7.50738526-.03564453 1.36024475-.16882324 2.70864868-.42010498 3.95901489.23937989.04408264.47814942.08554077.71551514.12173462 7.72021484 1.19967651 13.25024414-.1039734 17.47106934-3.0225525-1.4416504-2.02227782-3.12207032-3.81819152-4.86254883-5.36993407-2.96386719-2.64350892-6.0793457-4.56378174-8.49383545-5.69503785-5.55438233-2.6013794-8.47332764-7.78375244-11.40026856-12.97930908-1.31896972-2.3407898-2.64001464-4.68618774-4.15026855-6.64990234-2.22650147-2.89422608-4.81768799-4.97045899-7.62719727-6.03457642-2.61956787-.99304199-5.47064209-1.11413574-8.43249511-.20335388l-1.51489258.47381592c-6.28979492 1.96591186-9.77563477 3.05543518-25.75909424 2.70141601-14.39312744-.3184967-18.14123535 12.65159607-18.41229248 13.66700745 2.52856445 3.14431763 4.14978027 6.37876892 4.21624756 9.41383362-.2210083-.2515564-20.56866455-23.4090271-34.29626465-22.8643341-6.23135376.24743652-9.32455444 3.63919067-10.8277893 7.89300536-1.6652527 4.71252442-1.56710816 10.5727234-1.42538453 14.81469727.15609741 4.6769867.10894776 8.71496582-1.22268677 12.5594635-1.36642456 3.9445343-4.00268554 7.47381592-8.98376464 10.89582825-.66516114.45671081-1.0536499.9818573-1.18994141 1.54385376-.24731445 1.01870727.17956543 2.3565979 1.17733765 3.84977722 1.19769287 1.79393005 3.16046142 3.6773529 5.76452636 5.4541626 6.13955689 4.19000244 15.59658814 7.61135864 26.85150147 7.81799316-2.70910645-16.881073 7.99938965-35.22241211 10.1862793-38.74972534-5.56481934-6.79994202-13.74291993-15.43197632-19.69970704-15.87091065-5.40563964-.39814758-5.65731811 4.90138245-5.978302 11.67762757-.25759888 5.44100952-1.80078125 24.21734619-13.48153686 23.09399414 7.92901611-5.8312378 8.3857727-15.45500183 8.75805664-23.31643677.44979858-9.49609375.80249023-16.92251587 11.03515625-16.16836548 5.1673584.38104248 25.0793457 14.87261963 25.58068847 28.77389526-.01184082-.01843261-1.18554687-1.72680664-3.08599853-4.22421264-3.91046143 6.72755432-15.27667236 28.94499206-4.67736817 44.04727173 9.80169678 13.96577453 30.64245606 13.41496277 43.56225586 12.7384491-2.53582763-1.93278504-4.22149658-4.25975037-4.35803222-6.98420716.21881103.1370697 17.77069092 11.13111877 29.803833 9.27893066 7.19592286-1.10754394 10.09973145-8.4609375 12.36975098-14.20991516.33966065-.86143493.6687622-1.69258117 1.00048828-2.48162841-.73071289.96080017-1.5703125 2.65075683-2.48632812 4.4960022-2.68554688 5.4087677-5.89208985 11.86584472-12.75622559 12.07907104-8.53338623.26585388-14.26586914-6.26098633-19.94952392-12.73320008-2.96313477-3.37397766-5.91314698-6.73214721-9.08532715-8.79260253-.91741944-.52909852-1.39489746-1.63006592-1.09155274-2.6928711.3581543-1.25561523 1.6685791-1.98344421 2.92694092-1.62611389 9.72644043 2.78961182 18.08831787 4.24790955 25.4161377 4.73028564 7.27703857.4790802 13.55023193-.00065612 19.13562011-1.08978271 34.08148194-6.64595032 43.24334717-35.22373962 49.69464112-55.3478241 2.89263916-9.02227783 5.29589843-16.5145111 9.25622558-20.24319458-.65881347-.69296264-1.2088623-1.51358032-1.64221191-2.41711426-.54406738-1.13453674-.89624024-2.39279174-1.04003906-3.66223144-.08966065-.79034424-.09954834-1.59715271-.02697754-2.39277649-11.41351319 6.49986267-16.20281983 18.67893982-20.67565918 30.05648804-5.96655274 15.17993164-11.42663574 29.05883789-29.76031494 28.97264099zm-5.76806641-45.22787476c-1.71801758 2.3440857-3.29620361 5.12710572-4.70428467 8.01080323-.9272461-1.57939148-1.90332031-3.1245575-3.01593017-4.57234192-.41412354-.5369873-.83953858-1.05226136-1.27612305-1.54516602 2.15460205-3.00743103 4.54400635-5.93457031 7.06994629-8.35301208 2.82202148-2.70272828 5.7878418-4.75660706 8.72460937-5.51602173 6.03845215-1.56228638 9.98364258.79167175 12.65533448 4.43019104 2.95391845 4.02218628 4.55853271 9.65864563 5.65197754 13.75914001.65820312 2.46911621 1.3170166 4.73225403 2.1572876 6.79664612-1.40344239-2.52636719-2.53717042-5.16264343-3.59301759-7.61793518-3.73132324-8.67723084-6.65789794-15.4830017-16.2001953-11.82174683-2.76000977 1.05885315-5.25695802 3.40951538-7.4696045 6.42944336zm28.00671387 22.17137146c-4.20898438-4.50917053-6.5911255-10.04954529-8.69030762-14.93118286-2.72381592-6.33467102-4.86126709-11.30516052-10.16107178-9.27102661-1.80706787.69361877-3.61804199 2.47175598-5.34002685 4.82174683-2.12164307 2.89555359-4.03094483 6.57948303-5.64672852 10.25222778 2.14538574 3.66682434 4.47937012 7.0171051 7.90222168 8.6208496 2.7567749 1.29115296 6.29833985 3.47006226 9.64135742 6.45115663 1.86706543 1.6649475 3.67877198 3.58522033 5.27148438 5.74899291 2.88006592-3.15351867 5.05706787-7.2151947 7.02307129-11.69276428zm-33.07037354 13.6578064c-.02575683.97131348-.10949707 1.92092895-.2631836 2.79025268-3.09570312-1.15493774-6.16308593-2.88963317-8.86242675-5.13565063-.97937012-.81340027-1.94952393-1.71035767-2.87347412-2.67707825-.50323486-3.04493713-.31463623-5.89903259.43261719-8.06871032.59881591-1.7406311 1.51489258-2.9429474 2.63409424-3.21867371l.08898925-.020401c1.24255371-.25468445 2.72381592.52383423 4.12719727 2.00056457 1.7510376 1.84262085 3.2514038 4.667099 4.08502197 8.033844l.0065918.0263214c.43328857 1.75575257.68261719 4.0452118.62457275 6.26953126zM96.62860107 74.5519104c-10.44927978-5.38046265-25.36273193-1.58465576-25.39373779-1.57347107.75512695-1.71627808 2.12493897-3.05415344 3.85217285-4.02087402-.48144531-.95947266-.89953613-1.98608399-1.24182129-3.06466675-.57116699-1.79589844-.94573974-3.76618958-1.07305908-5.83981323-.03430176-.56330872-.05206299-1.06608582-.05206299-1.5063324 0-3.94322205.97406006-7.5119934 2.6057129-10.16273499 1.8149414-2.94885253 4.44903564-4.82043457 7.54937744-5.00996398.22094726-.01315308.38848876-.020401.50054931-.020401 3.33447266 0 6.39068604 1.97424316 8.63562012 5.16526794 2.04449463 2.90673828 3.44329834 6.88943481 3.71173096 11.25712585.13916015 2.27037049-.03234864 4.4315033-.46826172 6.39982605-.33966065 1.53266907-.84216309 2.94688416-1.48583985 4.20578003 1.34997559 1.11479187 2.36364746 2.50596619 2.85961914 4.17025757zm-7.0046997-6.43997192c-3.10760498-1.09109497-6.75732422-1.34313965-10.02581787-.73046875-.4794922-.87393189-.89630127-1.85183716-1.23327637-2.91200257-.46429443-1.4609375-.7677002-3.04559326-.8692627-4.69343567-.02172851-.35864257-.03295898-.7692871-.03295898-1.22927856 0-3.06929016.7109375-5.77005005 1.90136719-7.70414734 1.00640869-1.63598633 2.33599853-2.66654968 3.7888794-2.75538635l.22290038-.00131226c1.69891358 0 3.3951416 1.20362854 4.76428223 3.15022278 1.56896972 2.23023987 2.6459961 5.34625244 2.85900879 8.81695557.11340332 1.84986877-.01715088 3.57272339-.35681153 5.10604858-.24139404 1.08648682-.58496093 2.07887268-1.01831054 2.95280457zm30.8670044 37.21443176c-2.58856202-1.98083496-5.3031006-2.3704071-7.32189942-2.28353882.43597412 1.52146912.2532959 3.1712799-.18988037 4.77436829-1.69628907-2.51255799-4.0803833-4.18869019-6.76989746-5.1415863-1.74639893-.61924744-3.6206665-.94171143-5.52667237-.99830628 4.15887451 4.56181335 8.49713135 8.46620178 13.75274658 8.30233765 2.51599122-.07765198 4.44573975-2.10388184 6.05560303-4.65327454zm26.24841308 54.06456757c-1.62963867-8.06018067-4.2017212-15.73864747-7.95166016-23.08477784 5.1916504 2.50396729 9.37554932 11.3012085 11.53411865 18.2472229 1.5802002-1.47607422 3.37207032-2.39144897 5.37432862-2.45596313-.19403076.32330322-10.67041016 17.78115845-9.16912842 28.33496094.60479736 4.25384521 2.66705322 8.12927246 5.14813232 11.29595947 2.5760498 3.28710937 5.51745606 5.762146 7.7420044 7.103302-.64239502-2.70535278-.7736206-6.0826416 1.75622558-7.84957886 1.4753418-1.0305481 3.1373291-1.0081787 4.72406006-.49157714-.17608642-1.78866578.17144776-3.51019288 1.60723877-4.6565857 1.19238281-.95223999 2.65911865-1.17269897 4.13574219-1.00949097-.34490967-1.53201293-.23144531-3.10153198.81652832-4.44204711 1.42321777-1.82025147 3.31140137-2.12954712 5.0736084-1.83737183-3.93200684-4.50323486-12.67315674-7.76794434-12.70214844-7.77914429 1.98376465-1.38986206 4.53479004-1.28588867 7.11083984-.41394043.7564087-1.84194946 1.65991211-5.22579956 2.18823243-8.70770263.46099853-3.03903199.61401367-6.0359192.08306884-7.89105225-.52825927-1.84457397-4.6831665-7.09869385-9.85968017-13.07473755-7.17938233-8.28982544-16.20605469-17.73394012-20.5838623-21.76665497-1.82818604-1.68336487-4.21228028-2.97187805-6.72369385-3.95637512-3.02978516-1.1878357-6.23565674-1.928833-8.9192505-2.3875122-2.46124267 3.40161132-5.85510253 6.1313324-10.96362304 6.91773986-3.3885498.52119446-10.66101074-.32113647-17.25805664-2.54019165l-.00067139.00526428c-1.61444091-.10397338-4.09881591.03027344-7.10021972.19348145-7.51446534.4066925-18.0890503.9785614-28.03771973-1.35301209-.83343506.39550782-1.63122559.82588196-2.37316895 1.29180909-.86950683.5462036-1.6845703 1.15426635-2.41705322 1.82879638-3.4925537 3.21670533-9.6599121 11.27950287-15.38427734 19.46865082-6.44519043 9.22036743-12.26171875 18.46640015-12.98461914 20.99142456-.25610352.89434815-.47271729 1.784729-.64971924 2.66589356-1.00292969 4.994812-.63317871 9.35791015.99420166 12.71411132 1.5557251 3.20812989 4.32281494 5.54101563 8.18945312 6.64331055.43023682.122406.88702393.2322998 1.36846924.32904053 5.35754395 1.0713501 12.50335694 1.56030273 19.30072022 1.62939453 8.03442383.081604 15.53826904-.40997314 19.01519775-1.21020508 1.97192383-.45407104 3.6741333-2.40460205 5.01031494-5.01983642 1.35992432-2.66125489 2.28717041-5.93585206 2.74224854-9.12887574.45111084-3.16339111.4385376-6.1925354-.07391358-8.4102478-.29211425-1.26287842-.67462158-2.13153076-1.13037109-2.36315918-5.12109375-2.60534668-43.54156494-2.58428955-43.65026855-2.58099365.55133056-1.18060303 1.84124755-2.09732056 3.6586914-2.7935791 1.70471192-6.50708008 3.60461426-12.8180542 11.03082276-15.54052735-1.50549317 2.94949341-2.79412842 5.87994385-3.89031983 8.79653931-.6809082 1.81234741-1.29663086 3.63656616-1.85253906 5.47128296 11.43164062-1.6715393 30.19519043.46063232 36.85229492 2.43292236 1.81036377.9206543 2.99084473 2.91333008 3.59429932 5.52392578.64105224 2.77380371.67730713 6.41888428.14776611 10.1291504-.524292 3.67932128-1.60723877 7.47973632-3.2052002 10.60760497-1.93371582 3.78460694-4.6640625 6.6696167-8.17724609 7.47842408-3.77966308.8699646-11.7168579 1.40631103-20.10864258 1.32077026-4.63330078-.04675293-9.42016601-.28036499-13.7420044-.74694824.01879884 9.73498535.69226075 19.82400513 1.38214112 30.16534424.96014405 14.37905883 1.95147705 29.24725341 1.2713623 44.70132446.73986817-.08914185 1.51220704-.00689697 2.30700684.28152466 2.18585205.79406738 3.63165283 2.6348877 4.58666992 4.75228882 1.430542-2.41281128 3.52270508-4.02297974 6.55541993-2.9750061 1.98284912.6856079 3.41027832 2.19766235 4.43780517 3.9883728 1.21942139-2.72769166 3.14123535-4.828125 6.16705322-4.40249634 4.67596436.65808105 6.79431153 6.09625244 7.68792725 9.6517334.05999756-.04421998.11871338-.0892334.17346192-.1347046 2.2838745-1.8899536 2.78771972-9.44424438 3.33312988-17.62524413.47351074-7.11190796.9767456-14.6564026 2.92028808-20.32287598-5.93756103-1.31695557-10.75390625-3.98519898-12.31829834-8.07458496.2479248.11227417 23.50323487 10.64285278 45.14141846-3.7980957.44122315 5.74945068-5.09472656 9.6336975-12.45153808 11.52001953 2.04577636 5.70318603 2.56085205 13.41455078 3.04431152 20.6755371.54473877 8.18099976 1.04858398 15.73529053 3.3324585 17.62524415.05474853.04547119.11413574.08996582.1741333.13470459.89361572-3.55548096 3.01196289-8.99365235 7.68725585-9.6517334 3.02581788-.42562866 4.94830323 1.67480468 6.16772461 4.40249634 1.02746582-1.79071045 2.45465088-3.3027649 4.43780518-3.9883728 3.03240967-1.04797364 5.12438965.56219482 6.5548706 2.9750061.95562745-2.11740113 2.40057374-3.95822144 4.58685303-4.75228882.79473877-.28842163 1.5670166-.3706665 2.30700684-.28152466-.68066406-15.45355225.3112793-30.32156372 1.27148437-44.70059204.4920044-7.37609863.97607422-14.62417603 1.21679688-21.57681275-.35675049-.4139099-.70831299-.84036254-1.05126953-1.278656-2.9321289-3.7411499-5.37561035-8.37338257-6.1116333-13.5505066-.62127686-4.36239623 1.05322265-14.62515258 4.8988037-21.68899535zm30.44958496 26.74371337c.53552246-.8199768.98199463-1.61624145 1.31304931-2.36907959-.87316894-.5093689-1.93762207-.97198486-2.32147216-.48171997-.4293213.54882813.22424316 1.7564087 1.00842285 2.85079956zm-5.34466553 6.3241272c-.1741333.17178345-.35021973.34222412-.52630615.51068115-.73400879-1.43789672-1.3829956-3.04626464-.86859131-3.45690918.65423584-.52185058 2.1665039.09939576 3.45318604.80419922-.65618897.72518921-1.34735108 1.44314575-2.05828858 2.14202881zm-4.64099121 4.0630188c-1.0750122.82785034-2.10906982 1.54187012-3.04754639 2.09927368-.5447998-1.48727417-.99786377-3.27328491-.27703857-3.77606201.67602539-.47317505 2.1408081.60675049 3.32458496 1.67678833zm29.9852295 13.20898438c.25256347-2.90872193 2.16906738-4.60787964 4.20959472-6.41760254 1.93566894-1.71627808 3.9564209-3.50888062 5.3361206-6.27215577 1.04400635 1.92947388 2.04974366 4.3229065 2.65057373 6.8302002.71551514 2.99163818.81774903 6.0793457-.40032958 8.52410889-1.1772461 2.36447143-2.6907959 3.6012268-4.22613526 4.01068115-.95697021.25552368-1.95281982.20050049-2.89196777-.09121704-.99780274-.30975342-1.93035889-.87866211-2.70135498-1.62738037-1.31567383-1.2786255-2.14074707-3.0666504-1.97650147-4.95663452zm-.45239259 15.91381835c-.4979248.58712769-1.01037597 1.13110352-1.534729 1.6326294-2.9420166 2.81506348-6.26000977 4.3190918-9.80358887 4.6918335-3.45050049.36248779-7.06134033-.3727417-10.69854736-2.02917481-4.43585205-2.0198059-8.92706299-5.42739868-13.20465088-9.87942505-1.99041748-2.07144165-3.95770264-3.96987915-5.91052246-5.56784057-.90618896-.74230957-1.8123169-1.42276001-2.72113037-2.0295105-.10418701 1.6083374-.21105957 3.22085571-.31921387 4.83898926 1.09344483.5555725 2.17175293 1.2043457 3.23687744 1.93310546 1.50170899 1.02648926 2.9730835 2.20254517 4.42462159 3.49066163 4.62646484 4.10531616 9.80889892 7.43170166 14.94580078 9.23168945 3.6998291 1.29608154 7.36871338 1.79556274 10.76184082 1.20587158 3.28570556-.57095337 6.36096191-2.19891357 9.00561523-5.16699219.63049317-.70742798 1.23724365-1.49017334 1.81762695-2.35183716zM49.0053711 272.12793731c.14245606-1.52392577.26556397-3.04104614.37139893-4.55337524.23339844-.29510498.48052978-.52081299.72503662-.63952636.09552002-.04632569.19085693-.0614624.2758789-.03085328 2.33013917.84646607 3.03247071 5.10498047 3.24237061 7.82983399-.24188232-.06607056-.47814941-.13442993-.7086792-.20513916-1.77166748-.5449524-3.09197998-1.1888733-3.69866943-1.91842652-.14581299-.17584228-.22027588-.33911132-.20733643-.48251342zm93.57250977 2.6060791c.24206543-.06607055.47814941-.13442992.70831299-.20513915 1.77142334-.54467774 3.09179687-1.1888733 3.69854736-1.91842652.14575195-.17584228.22027588-.33911132.20709229-.48251342-.14245606-1.52337647-.26513672-3.04104615-.3713379-4.55337525-.23278808-.29510498-.48010253-.52081299-.72412109-.63952636-.09631347-.04632569-.19195556-.0614624-.27636719-.03085328-2.33001709.84646607-3.03240966 5.10498047-3.24212646 7.82983399zm-65.58947754.42645265c-1.90600586.41567993-4.1852417.70022583-6.62347412.84753417.28161621-3.05154418.99719238-7.74319458 2.7230835-7.50030517 2.26873779.31930542 3.40704345 4.2157898 3.90039062 6.652771zm42.22106934 0c1.90533447.41567993 4.1845703.70022583 6.62280273.84753417-.28161621-3.05154418-.99719238-7.74319458-2.72247314-7.50030517-2.26867676.31930542-3.40704346 4.2157898-3.9003296 6.652771zm-60.57629395.5182495c.51086426.06323243 1.03045654.11901856 1.55731201.16812134 1.64953614.15319825 3.35754395.24316407 5.05969239.27041626-.35992432-2.63876342-1.28942872-6.59954834-3.65643311-7.41726684-1.59259033-.55062866-2.534729 4.09884643-2.96057129 6.97872925zm77.37402344.16812134c-1.64941406.15344239-3.35754395.2434082-5.05975342.27041626.35943604-2.63824462 1.28936768-6.59909057 3.65631104-7.41726684 1.5927124-.55062866 2.53448486 4.09884643 2.96051025 6.97872925-.51043701.06271362-1.03076172.11901855-1.55706787.16812133z"/>
        <path fill="rgb(0,0,0)" fill-rule="evenodd" d="M81.98418355 51.11307852c3.13464475-.230328 5.97580815 3.65695053 6.34579252 8.68139129.36998437 5.02509883-1.87036662 9.28485063-5.00501138 9.51517863-3.13464475.22966992-5.97580815-3.6576086-6.34579252-8.68204936-.36998437-5.02509884 1.87036662-9.28485064 5.00501138-9.51452056"/>
        <path fill="rgb(0,0,0)" fill-rule="evenodd" d="M118.17933893 44.3901333c3.07858652-.47184335 6.43944276 3.18313294 7.50850633 8.16414041 1.06840406 4.98100748-.55992287 9.4013308-3.63719037 9.87383223-3.07858652.47250144-6.44010227-3.18313293-7.50850633-8.1641404-1.06906357-4.98100748.55926336-9.4013308 3.63719037-9.87383224"/>
        <path fill="rgb(255,255,255)" fill-rule="evenodd" d="M84.14539349 51.67902732c1.62239135 0 2.93811117 1.31286959 2.93811117 2.93240445 0 1.61953487-1.31571982 2.93240446-2.93811117 2.93240446-1.62371037 0-2.93943019-1.3128696-2.93943019-2.93240446s1.31571982-2.93240445 2.93943019-2.93240445"/>
        <path fill="rgb(255,255,255)" fill-rule="evenodd" d="M120.64787992 44.54346594c1.62239136 0 2.93811117 1.31352767 2.93811117 2.93306254 0 1.61887678-1.31571981 2.93240445-2.93811117 2.93240445-1.62305086 0-2.93943019-1.31352767-2.93943019-2.93240445 0-1.61953487 1.31637933-2.93306254 2.9394302-2.93306254"/>
        <path fill="rgb(255,207,51)" fill-rule="evenodd" d="M7.36328251 128.23610536l48.8152497-16.03806754 48.81524968 16.03806754v53.4630768c0 14.07040835-27.05964115 46.92886893-48.81524969 46.92886893-21.75554259 0-48.81524969-32.85846058-48.81524969-46.92886893v-53.4630768"/>
        <path fill="rgb(255,175,46)" fill-rule="evenodd" d="M56.1782684 112.19737974l48.81551349 16.03872562v53.4630768c0 14.07040835-27.05964115 46.9286057-48.8155135 46.9286057V112.19737973"/>
        <path fill="rgb(0,0,0)" fill-rule="evenodd" d="M56.17797852 109.70785522L6.62237549 125.99072266l-1.6302185.53567505v55.17276c0 8.28457642 8.4257202 22.33984375 19.75900268 33.23501587 9.40649414 9.04309082 20.90820312 16.05960083 31.42706299 16.05960083 10.51916504 0 22.02099609-7.01651 31.4276123-16.05960083 11.33361817-10.89517212 19.75952149-24.95043945 19.75952149-33.23501587v-55.17276c-17.06280518-5.60551453-34.12628174-11.20776368-51.18737793-16.81854249zM9.73446655 129.94644165l46.4437561-15.259552 46.44458008 15.259552v51.75271606c0 7.12438965-7.80194091 19.74636841-18.29541015 29.83407593-8.62701416 8.29351807-18.98242188 14.72854615-28.14916992 14.72854615-9.16552735 0-19.52166748-6.43502808-28.14855957-14.72854615-10.49368287-10.08770752-18.29519654-22.70968628-18.29519654-29.83407593v-51.75271606z"/>
        <path fill="rgb(0,0,0)" fill-rule="evenodd" d="M30.61901855 189.41452026l.88208008-6.09512329h6.71875l.88232422 6.0951233h9.90863037l-8.89050293-49.09671021H29.60089111l-8.89053344 49.0967102h9.90866088zm6.51519776-13.88287353h-4.54730225l2.30755615-17.40359497 2.2397461 17.40359497z"/>
        <path fill="rgb(0,0,0)" fill-rule="evenodd" d="M66.8075698 146.2773684c0-1.80642959.4860579-3.25091518 1.4588332-4.33411485.9727753-1.08385775 2.4316085-1.62545758 4.3771591-1.62545758h14.04885391l1.69625633 9.14204728H77.59845082c-.58894125 0-.88242261.3158784-.88242261.94763519v29.11938166c0 .63241487.29348136.94829327.88242261.94829327h4.47872345v-19.3679523h9.56881144V189.414512H74.47633673c-2.85039652 0-4.84145322-.58700735-5.9725106-1.76102206-1.1310574-1.17401471-1.69625633-3.1153507-1.69625633-5.82400795v-35.5521136"/>
      </g>
    </g>
  </g>
</svg>
