<svg xmlns="http://www.w3.org/2000/svg" xmlns:xlink="http://www.w3.org/1999/xlink" width="500" height="653.374" viewBox="0 0 500 653.374">
  <defs>
    <rect id="rect-1" width="500" height="653.374" x="0" y="0"/>
    <mask id="mask-2" maskContentUnits="userSpaceOnUse" maskUnits="userSpaceOnUse">
      <rect width="500" height="653.374" x="0" y="0" fill="black"/>
      <use fill="white" xlink:href="#rect-1"/>
    </mask>
  </defs>
  <g>
    <use fill="none" xlink:href="#rect-1"/>
    <g mask="url(#mask-2)">
      <path fill="rgb(209,204,198)" fill-rule="evenodd" d="M320.28655619 156.84357968c-3.7638007 2.71601853-9.26072886 11.3613733-8.0015274 17.79871976-5.266867-3.70908672-3.96625453-11.75615233-1.4355817-18.33121241-1.86963041-.19432921-3.7868068-.43915342-5.76073163-.74518368-7.69784666-1.19504815-15.76992616-3.85751139-23.45703664-7.83284443-8.00612863 2.22943042-14.04293366 15.82329445-14.05980481 15.86460854-4.66870796-6.96983911.03067482-15.29539226 5.63343112-20.86820325-2.1855811-1.4796563-4.30981254-3.06948348-6.3527557-4.7679514-10.67637192-8.87946792-18.48004672-23.32562622-13.03833324-36.43290214.604294 2.08712636 1.3911032 4.12834817 2.32515153 6.11754484.37576658-2.37020434.9248459-4.60575537 1.6334343-6.66380885 2.57361759-7.47631918 7.29600648-12.8563311 13.73005047-14.52419601l.00920245-.01071106c.18711641-.05202514.37423283-.09486938.56288299-.1285327 6.95091474-1.5393322 14.0782097 1.53168143 20.02299028 7.78847004 5.31748045 5.5942331 9.80827444 13.91060535 12.21471425 23.62247556l.01380367.06120605c1.21472296 4.92402684 1.91564265 11.2986371 1.75459984 17.45596588-.08282202 3.1628227-.39263773 6.2981027-.9769931 9.20539014.55674803.10252014 1.11196232.19891967 1.66410912.28307799 17.95397351 2.7894658 30.81439277-.2417639 40.63033592-7.02798486-3.35275808-4.7021549-7.26073045-8.87793777-11.30827325-12.4860345-6.89263258-6.14661772-14.13802562-10.61159917-19.75305185-13.24192923-12.91716768-6.04868804-19.70550586-18.09862942-26.51224894-30.17917383-3.06748223-5.44274812-6.13956569-10.8962073-9.65183285-15.46217875-5.17791-6.72960535-11.20397886-11.55723266-17.73771601-14.0314873-6.09201972-2.30899828-12.72238257-2.59054612-19.61041392-.47281674l-3.52300335 1.10170893c-14.62575529 4.57056189-22.73004335 7.10449242-59.90486054 6.28127103-33.47236613-.74059323-42.18892364 29.41715848-42.81929124 31.77818191 5.88036344 7.31106285 9.65060585 14.83175642 9.80520696 21.88881416-.13772995-.15607543-47.70717081-54.43513202-79.75867917-53.1635763-14.49155295.57533688-21.68510553 8.46173661-25.18096166 18.35263453-3.87269632 10.95741336-3.64447564 24.58341057-3.31487468 34.44676576.36303653 10.8747852.25337404 20.26379349-2.84340265 29.2029373-3.17775822 9.17172682-9.30858159 17.37792816-20.8924988 25.33471485-1.54691595 1.061925-2.45038149 2.28298572-2.76731375 3.58973492-.57515292 2.3686742.41757635 5.47947176 2.73795795 8.95138503 2.7853659 4.1711924 7.34993283 8.55048539 13.40590963 12.68189386 14.27805618 9.74247324 36.27113692 17.69772978 62.44534932 18.17819728-6.30030176-39.2514408 18.60320613-81.8982873 23.68909167-90.0998982-12.94155416-15.81105324-31.96040413-35.88204767-45.81330728-36.90265857-12.57130906-.92574153-13.15658467 11.39656678-13.90305647 27.15253457-.59907928 12.65129084-4.18788012 56.30956735-31.35242916 53.6975991 18.43955595-13.55867055 19.50182505-35.93560296 20.3676219-54.21479023 1.04601145-22.08008306 1.8662562-39.34784033 25.66316987-37.59428696 12.01701502.8859576 58.32403357 34.58141908 59.48998357 66.90433485-.02760734-.04284423-2.75720641-4.01511697-7.17683481-9.8220411-9.0940112 15.6427366-35.5271191 67.30217418-10.87759875 102.41761605 22.79461385 32.4728706 71.26160001 31.19213398 101.30758849 29.61913846-5.8972346-4.49405433-9.81747689-9.90466928-10.1349613-16.2394956.11809807.07344725 41.19321891 25.90240097 69.3112948 21.57513313 16.73464933-2.57524461 23.48771147-19.67315509 28.7668484-33.04055673.78987667-2.00296803 1.55521349-3.9355491 2.32668527-5.7702005-1.69938516 2.23402088-3.6518376 6.16344938-5.78220401 10.45399359-6.24539383 12.57631342-13.70244314 27.59015785-29.66562068 28.08592686-19.84507631.61818112-33.1763541-14.55785934-46.39413504-29.60689724-6.89109884-7.84508564-13.75152286-15.65344766-21.12881763-20.44435134-2.1334339-1.23024163-3.24386246-3.79018473-2.53834155-6.26137906.83282143-2.91952866 3.88036503-4.61187598 6.80674308-3.78100383 22.61961399 6.4863113 42.0659176 9.87712655 59.10731516 10.99872745 16.92329948 1.11395013 31.51224498-.00153015 44.5014985-2.53393053 79.25913969-15.45299785 100.56587128-81.90134761 115.56892689-128.69337395 6.72698854-20.97837414 12.31594117-38.39914654 21.52605657-47.06898373-1.53220737-1.6112493-2.81134746-3.51934796-3.81901538-5.62024567-1.26533642-2.63798082-2.08435418-5.56363008-2.41870974-8.51529191-.2085888-1.8377117-.2315949-3.71367717-.06288339-5.56363008-26.54292376 15.11330426-37.68095175 43.43181412-48.082784 69.8865997-13.87575589 35.29599973-26.5735986 67.56689037-69.2100679 67.36644055"/>
      <path fill="rgb(158,151,145)" fill-rule="evenodd" d="M262.2835381 217.58603287c-15.5628293-1.02521153-33.13187-3.94168572-53.29291764-9.3813809C370.01044695 228.9851958 394.970987 147.53360157 413.67670104 86.49299815c7.12408021-23.24763646 13.34100767-43.53466241 25.82141964-54.08590417.17643419.42844872.3650754.84923391.56280092 1.26239103 1.0077898 2.1008747 2.28683117 4.00902554 3.81909748 5.62021415-9.21006314 8.66987784-14.7990382 26.09066838-21.52610602 47.0690451-15.00300917 46.79202228-36.3096725 113.24031848-115.56893282 128.69335287-12.98927484 2.53237465-27.57809661 3.64784567-44.50144213 2.53393575zM277.7820676 86.06029189c5.0505882.63351942 9.99542946 3.499471 14.31586687 8.0470732 5.31758153 5.59424325 9.8083496 13.91060477 12.21483807 23.6224404l.0137684.06123737c1.21474155 4.92403818 1.91565225 11.29861443 1.75454782 17.45598606-.08275231 3.16277189-.39261219 6.29808276-.97698832 9.20540327.5566974.10246439 1.11197538.19889728 1.66413063.28305432 17.953988 2.78945808 30.81437931-.24175635 40.63025186-7.02796411-3.35267533-4.70215028-7.26062863-8.87799976-11.30825309-12.4860376-6.89257244-6.14665685-14.13801326-10.61159214-19.75296375-13.24196079-12.9171682-6.04866287-19.70555505-18.09858819-26.51225245-30.17916768-3.0675134-5.4427464-6.13956895-10.89620755-9.65192928-15.46218805-5.17791039-6.72958271-11.20392556-11.557188-17.73766806-14.03144747-6.0920183-2.30906758-12.72242347-2.5905608-19.61045376-.47286888l-3.523006 1.10170502c-1.29749387.40552906-2.5444563.79416995-3.76374 1.16755472 0 0 27.56290879-4.14824654 37.55677688 16.48122617 2.84196721 5.86353159 4.20546421 11.03237734 4.68707418 15.47595405zM172.7483705 59.49838668c-27.99739394 3.05881737-35.58349609 29.29935056-36.17056913 31.49665816 4.30950786 5.35858936 7.4847554 10.82886774 8.93583076 16.14615912 0 0 .39488327-42.5336478 27.23473837-47.64281728zm-44.91037768 79.1577828c-.9903309-1.41229133-3.3522495-4.7311724-6.65921943-9.07682609-9.09409634 15.64270703-35.52714503 67.30214244-10.87760038 102.41762416 22.79464367 32.47283721 71.2615257 31.19210335 101.30757177 29.61916149-5.89727358-4.49409932-9.81743392-9.90470142-10.13495867-16.2395408.51894077.32491997 41.33045285 25.88126922 69.31123955 21.57513953 16.7347043-2.57523372 23.48774755-19.6731621 28.76686274-33.0405779.78990848-2.00295168 1.55526095-3.9355123 2.32671693-5.77014991-1.6993323 2.23399325-3.65188953 6.16340311-5.78215843 10.45399284-6.24545785 12.57629707-13.70253452 27.59016796-29.6656409 28.08588555-19.84508425.61819234-33.17643986-14.55781922-46.39409974-29.60688563-6.89115303-7.84505373-13.75164653-15.6534218-21.12880973-20.44434143-5.09515807 20.20868753-53.1485624 36.8644012-73.82599587 6.9530317-19.04694313-27.55653353-.31454396-77.26503 2.75609216-84.92651352zm.40666447-.99611846l-.0017033-.02142954.00596157.013766-.00425827.00766354z"/>
      <path fill="rgb(129,122,116)" fill-rule="evenodd" d="M11.57135587 173.29423616c.30375743 1.86984487 1.25814317 4.00746622 2.79188429 6.3042233 2.7853659 4.1711924 7.34993283 8.55048539 13.40590963 12.68189386 14.27805618 9.74247324 36.27113692 17.69772978 62.44534932 18.17819728-6.30030176-39.2514408 18.60320613-81.8982873 23.68909167-90.0998982-12.94155416-15.81105324-31.96040413-35.88204767-45.81330728-36.90265857-12.57130906-.92574153-13.15658467 11.39656678-13.90305647 27.15253457-.56733084 11.97037352-3.81456753 51.69310092-27.17298462 53.72208152-4.32024198 3.77335307-9.61226233 7.32483421-15.44288654 8.96362624"/>
      <path fill="rgb(255,255,255)" fill-rule="evenodd" d="M398.41379494 448.6878044c.40950888-.39171873.81901775-.78802791 1.2239254-1.1873974 1.65337293-1.62502067 3.26073362-3.29441572 4.78680603-4.98064244-2.99232892-1.63879203-6.5091973-3.08325484-8.03066848-1.86984487-1.19631807.9548144.31288318 4.69450415 2.01993705 8.0378847"/>
      <path fill="rgb(255,255,255)" fill-rule="evenodd" d="M412.06715836 432.79565314c1.24539779-1.9065685 2.28374052-3.75805156 3.05367856-5.50854463-2.03067324-1.1843371-4.5061314-2.26003345-5.39876873-1.12007075-.99846547 1.27614618.52147198 4.08397379 2.34509017 6.62861538"/>
      <path fill="rgb(255,255,255)" fill-rule="evenodd" d="M381.7573664 461.82874365c2.18251362-1.29603814 4.58741969-2.95625229 7.08741771-4.8811826-2.7530653-2.488026-6.15950433-4.99900426-7.73158897-3.89882549-1.67637904 1.16903559-.6226989 5.32186618.64417127 8.78000809"/>
      <path fill="rgb(255,255,255)" fill-rule="evenodd" d="M277.23137556 639.79630945c4.43097809.96650476 9.73158739 1.62817278 15.4018283 1.97066654-.65490746-7.09540332-2.31901657-18.00431089-6.33128333-17.43953205-5.27606945.7424294-7.92330661 9.80245517-9.07054497 15.46886551"/>
      <path fill="rgb(255,255,255)" fill-rule="evenodd" d="M304.52889996 642.0210117c3.95858582-.0627668 7.93097531-.27196908 11.76686184-.62880036 1.22392542-.11416459 2.43404716-.24506903 3.62116278-.39090775-.99079676-6.69620216-3.18097908-17.50702703-6.88496387-16.22674944-5.50459687 1.90243709-7.66717184 11.11211165-8.50306075 17.24645756"/>
      <path fill="rgb(255,255,255)" fill-rule="evenodd" d="M331.57642455 638.8046949c.562883-.15361188 1.11196231-.3125946 1.64723796-.47696345 4.11962864-1.26652152 7.19017836-2.76438661 8.60122018-4.46071233.33895679-.40885642.51226954-.78848696.48159471-1.12190692-.33128808-3.54214722-.61656393-7.07098211-.86349625-10.58742278-.5414106-.68611984-1.11656353-1.21096173-1.68404774-1.48700102-.2239262-.10772266-.44631867-.14291614-.64263753-.0717641-5.41870736 1.9682336-7.05214165 11.86999559-7.53987133 18.2057706"/>
      <path fill="rgb(255,255,255)" fill-rule="evenodd" d="M163.63944097 641.766976c5.6702409-.34249377 10.9708502-1.0041618 15.40336204-1.97066655-1.14723836-5.66641034-3.79447553-14.7264361-9.07054497-15.46886551-4.0138005-.56477884-5.67790961 10.34412873-6.33281707 17.43953205"/>
      <path fill="rgb(255,255,255)" fill-rule="evenodd" d="M136.35618037 641.00130359c1.18803587.14704754 2.3964705.27674316 3.6216229.39090775 3.83619328.35623452 7.80827602.5654368 11.76670847.62880037-.83696253-6.13557003-2.99861726-15.34509158-8.50321413-17.24645756-3.70383142-1.28027759-5.8947806 9.53054728-6.88511724 16.22674944"/>
      <path fill="rgb(255,255,255)" fill-rule="evenodd" d="M114.82981705 622.15768942c-.24616545 3.51644067-.53251492 7.04405144-.863803 10.58742278-.03006133.33341996.14309804.7130505.4822082 1.12190692 1.41088846 1.69632572 4.48143817 3.19357875 8.60152694 4.46071233.5361959.16436885 1.08558196.32335157 1.6481582.47696346-.4881898-6.33577502-2.12147071-16.23753701-7.54048483-18.20577061-.19769923-.07115204-.41932482-.03595856-.6415639.0717641-.56855784.27603929-1.14325063.80088118-1.68604161 1.48700102"/>
      <path fill="rgb(158,151,145)" fill-rule="evenodd" d="M457.52571132 524.6631821c-1.15797454 1.36520098-2.3496914 2.63002404-3.56901558 3.79615233-6.84201912 6.54552816-14.55827068 10.04268893-22.7990617 10.90936661-8.02453352.84280733-16.42176614-.86667768-24.8803484-4.71822149-10.31594275-4.69634033-20.76071975-12.6196167-30.70856464-22.97139619-4.62883069-4.8164572-9.20398044-9.23063763-13.74538789-12.94615099-2.10736029-1.72601065-4.21472058-3.30818708-6.32821584-4.71898656-.2423311 3.73968974-.49079716 7.48901944-.7423307 11.25150844 2.54294277 1.29175371 5.0506095 2.80032987 7.5276014 4.4948194 3.49232852 2.38672998 6.91410495 5.12126334 10.28986915 8.11638147 10.75919393 9.54554277 22.81133163 17.27999848 34.75764119 21.46526828 8.60428766 3.01363296 17.1364895 4.17501778 25.02758754 2.80384921 7.64109824-1.32755925 14.79293307-5.1128475 20.94323495-12.01413584 1.4662565-1.64491263 2.87729834-3.46487457 4.22699052-5.46845466"/>
      <path fill="rgb(129,122,116)" fill-rule="evenodd" d="M468.36772727 472.73872232c-4.74539501 4.20791604-9.2024467 8.15876666-9.78986955 14.92203535-.38190153 4.39459449 1.5368086 8.55201554 4.59662213 11.52509949 1.79294337 1.74085311 3.9616533 3.0636689 6.28220362 3.78391111 2.18404735.67831607 4.49999643.80623671 6.7254548.21207897 3.57054931-.95206013 7.09048518-3.82767344 9.82821307-9.32550702 2.83281984-5.68451202 2.59508997-12.86398186.93098086-19.8200496-1.39723816-5.82987641-3.73619336-11.39503664-6.16410555-15.88144021-3.20858642 6.42510525-7.9079692 10.59323735-12.40949938 14.58387191"/>
      <path fill="rgb(87,80,74)" fill-rule="evenodd" d="M372.00430665 103.2331992c-9.78833581-10.48459661-15.32820872-23.3669403-20.2101067-34.71760254-6.33435081-14.72923628-11.30520577-26.28646895-23.63034938-21.55677132-4.20245066 1.61277946-8.41410377 5.74724823-12.41870183 11.21141848-4.93404517 6.73266566-9.3742257 15.29845256-13.13189144 23.83822689 4.98925985 8.52600297 10.41716967 16.31600317 18.37728606 20.04498185 6.41103787 3.00215683 14.64722767 8.06848774 22.42176139 15.00007306 4.3420211 3.87128276 8.55520795 8.33626421 12.25919275 13.36740164 6.69784745-7.33248496 11.76072688-16.7765787 16.33280915-27.18772806"/>
      <path fill="rgb(158,151,145)" fill-rule="evenodd" d="M295.932281 70.30740382c3.27453728-6.70512294 6.94477977-13.17613273 10.94017538-18.62653161 5.14570145-7.02186425 10.95244532-12.48756465 17.3711519-14.94957807 22.19323395-8.51376176 28.99844329 7.31412315 37.67481678 27.48763771 2.45551953 5.70899445 5.09202051 11.8387805 8.3558216 17.7130313-1.95398617-4.8000846-3.48619355-10.06227487-5.01686719-15.8034025-2.54294277-9.53437266-6.2745349-22.64011843-13.14416137-31.9924031-6.21318526-8.46020645-15.38802462-13.9335576-29.43095829-10.30097845-6.82974919 1.76579458-13.72698299 6.54139675-20.28986123 12.82572808-5.87422848 5.62330598-11.43097254 12.4294189-16.44170477 19.42221028 1.01533662 1.14608332 2.00459964 2.34419177 2.96778906 3.59279522 2.58742126 3.36633283 4.85735812 6.95912805 7.01379813 10.63149114"/>
      <path fill="rgb(87,80,74)" fill-rule="evenodd" d="M452.69135932 13.04761253c-2.05061187 1.0711059-3.3159483 3.2071971-3.86962884 5.66462006-.3696316 1.64185233-.44171744 3.4428404-.23772987 5.239238.20092008 1.78568656.67024487 3.5025163 1.38496823 4.98982335 1.28834253 2.68388536 3.4509175 4.63788855 6.27146742 4.53689857.7423307-.07497742 1.50153256-.11476135 2.28220678-.1132312.92331216-.53249265.9432508-4.14211953.33128809-8.61169144-.19631887-1.4352819-2.47392443-12.7905346-3.94938338-12.369743-.74846567.21269103-1.48312766.43456297-2.21318843.66408566"/>
      <path fill="rgb(255,163,163)" fill-rule="evenodd" d="M280.21143455 244.90225606c-6.01993388-4.60575537-12.33281232-5.51160493-17.02759388-5.30962496 1.01380288 3.53770977.5889566 7.37379905-.44171744 11.10124758-3.94478215-5.8421176-9.48925629-9.73941294-15.74385256-11.955072-4.06134648-1.43987236-8.42023873-2.18964649-12.85275056-2.3212395 9.67177148 10.60700872 19.76072055 19.6853963 31.9831035 19.30438863 5.85122237-.18055785 10.33894887-4.89189366 14.08281094-10.81969975"/>
      <path fill="rgb(255,255,255)" fill-rule="evenodd" d="M185.1118166 156.67373288c7.60122098-1.42457084 16.08894432-.8385229 23.31593246 1.69846793 1.00766792-2.0320409 1.80674704-4.33950905 2.36809629-6.86578882.78987667-3.5652525 1.09355741-7.57118857.82975394-11.87244383-.49539838-8.07001789-2.99999762-15.31528423-6.64876774-20.50096694-3.18404656-4.5261875-7.12882871-7.3248342-11.07974583-7.3248342l-.5184045.0030603c-3.37883168.20657042-6.47085377 2.60278733-8.81134271 6.40674343-2.76840272 4.49711463-4.42177564 10.77685551-4.42177564 17.91348111 0 1.06957575.0260736 2.02439016.07668706 2.8583226.23619613 3.83149883.94171704 7.51610313 2.02147079 10.91303898.7837417 2.46507372 1.7530661 4.73887854 2.86809589 6.77091944"/>
      <path fill="rgb(255,255,255)" fill-rule="evenodd" d="M294.48442938 141.47780046c.35736168-2.02132985.5521468-4.22933816.6119627-6.48784146.13496923-5.17191134-.44478492-10.49530767-1.45245283-14.5777513l-.01533741-.06120605c-1.93864877-7.82825399-5.42790981-14.3956633-9.49999248-18.68008691-3.2638011-3.43365949-6.70858364-5.24382846-9.5981519-4.65165991l-.20705506.04743469c-2.60275867.64113339-4.73312508 3.43671979-6.12576202 7.48396994-1.73772868 5.0449088-2.17637864 11.68117492-1.00613417 18.76118492 2.1487713 2.24779224 4.40490449 4.33338845 6.68251005 6.22465544 6.27760239 5.22240634 13.41103232 9.25588513 20.61041312 11.94130064"/>
      <path fill="rgb(209,204,198)" fill-rule="evenodd" d="M341.254331 370.611835c-3.7898743-18.74129295-9.77146466-36.59509816-18.49231665-53.67617697 12.07361007 5.82222564 21.80366372 26.27728804 26.8235984 42.42803487 3.67484371-3.43212934 7.84201832-5.56056978 12.49845635-5.7105246-.07055209.1193518-24.84200486 41.15341885-21.32360274 65.88372394 1.4064406 9.89089792 6.20244907 18.90195884 11.97238316 26.26504683 5.9907928 7.64310568 12.83127818 13.39800467 18.00458697 16.51645299-1.49386385-6.29045194-1.79907833-14.14318834 4.08435259-18.25164455 3.43097888-2.39621691 7.2960065-2.34419177 10.98618762-1.143023-.40950888-4.1589512.39877269-8.16182697 3.7377271-10.82735051 2.77300394-2.21412891 6.18404418-2.7267296 9.61809054-2.34725207-.8021466-3.5621922-.53834313-7.21160302 1.8987715-10.32852119 3.30981334-4.23239846 7.70091415-4.95156956 11.79907042-4.27218239-9.14416454-10.47082525-29.4723693-18.06190579-29.53985391-18.08791836 4.61349328-3.23167951 10.54600392-2.98991561 16.53679672-.96246516 1.75920106-4.28289345 3.86042639-12.15093136 5.08895302-20.24696182 1.07208505-7.06623864 1.42791298-14.0345476.19325139-18.34804408-1.22852664-4.28901405-10.89109567-16.50574192-22.9294297-30.40104576-16.6963058-19.27531575-37.68862046-41.23451686-47.869594-50.61128395-4.25153037-3.91412699-9.7960045-6.9101632-15.63649068-9.19926953-7.0460067-2.76192307-14.50152226-4.48487342-20.74231486-5.55138887-5.72392185 7.909352-13.61655364 14.25641954-25.49691233 16.08495032-7.88036186 1.21187982-24.79292515-.74671382-40.13493754-5.90638396l-.00153374.0122412c-3.75459826-.2417639-9.53220104.07038697-16.51225687.44986449-17.47544628.9456335-42.06745135 2.27533496-65.2039361-3.14599105-1.93818864.91962092-3.79355527 1.92033987-5.51901403 3.00368698-2.02208429 1.27002556-3.91763493 2.68388535-5.62100782 4.25229042-8.12223283 7.47937949-22.46501288 26.22679305-35.77742565 45.26799566-14.98879182 21.43894968-28.5156216 42.93757525-30.19675523 48.80876574-.59555168 2.0794756-1.09938564 4.14977029-1.51104175 6.19864286-2.33236012 11.61384826-1.47254485 21.7587513 2.31211473 29.56252285 3.61794192 7.45948753 10.05305953 12.88387384 19.04523032 15.44687724 1.0006127.28460814 2.0628818.5401434 3.18251282.76507564 12.45934596 2.4910863 29.07758433 3.6279887 44.8853939 3.78865459 18.68464778.18973876 36.1355542-.95328425 44.22143738-2.81394822 4.58588594-1.05580438 8.54447176-5.5911728 11.65183126-11.671994 3.16257418-6.18793181 5.3190142-13.80196461 6.37729556-21.22625866 1.04907893-7.35543723 1.01993785-14.3987236-.171779-19.55533344-.67944732-2.93636032-1.56901716-4.95616001-2.62883228-5.49477327-11.90949977-6.05786894-101.25942901-6.0089041-101.51218955-6.00125334 1.2820542-2.74509141 4.28189845-4.87659215 8.50858222-6.49549221 3.96441404-15.13013592 8.38281545-29.80428676 25.65304717-36.13452263-3.50122422 6.85813806-6.49800099 13.67190174-9.0472321 20.45353224-1.5835877 4.21403665-3.0154884 8.45561601-4.3082788 12.7216778 26.58525503-3.88658427 70.22141679 1.0711059 85.70299962 5.6569693 4.21011937 2.14068165 6.95551597 6.77397975 8.35888909 12.8440899 1.49079636 6.44958768 1.57515213 14.92509565.34355801 23.5520886-1.21932419 8.55507585-3.7377271 17.39169953-7.45398183 24.6645086-4.49692895 8.79990004-10.84661718 15.50808328-19.0168561 17.38863921-8.78987034 2.02286-27.24844469 3.2699333-46.76422678 3.07101363-10.77514484-.10864074-21.90734461-.65184444-31.95810352-1.7367217.04371162 22.63552798 1.60981467 46.09427735 3.21426125 70.13968672 2.23282032 33.43380561 4.53833997 68.00497268 2.95659275 103.93843343 1.72070416-.2073355 3.51686839-.0160666 5.3651798.65459872 5.08343156 1.84628054 8.44569884 6.12657273 10.66670935 11.0498345 3.32683786-5.61014668 8.1923248-9.35412085 15.24507995-6.91735492 4.61134604 1.5941116 7.93097532 5.10994022 10.32054398 9.27363488 2.83588732-6.34232406 7.30520894-11.22626094 14.34201318-10.23655909 10.87422452 1.53015129 15.80060098 14.17486248 17.8788202 22.44196385.13957044-.10282617.2760734-.20748852.40337391-.31322197 5.31134549-4.39444148 6.4831237-21.95950715 7.7515276-40.98173588 1.10122613-16.53649797 2.2714706-34.07876438 6.79140567-47.25428504-13.80827127-3.06213876-25.00918265-9.26629016-28.64721658-18.77480327.1564416.06992791 54.46314706 24.87689358 104.97997822-8.83126815 1.0260728 13.36847274-11.84815013 22.4000377-28.95703228 26.78606334 4.75766494 13.26090311 5.95551675 31.19121589 7.079749 48.07429312 1.26687015 19.02222873 2.43864837 36.5872944 7.74999385 40.98173588.12730052.10573345.26533722.20917168.40490766.31322197 2.07821921-8.26710137 7.00459568-20.91181256 17.87728646-22.44196385 7.03680424-.98970185 11.5076596 3.89423503 14.34354692 10.2365591 2.38956866-4.16369467 5.70858444-7.67952328 10.32054397-9.2736349 7.05214166-2.43676592 11.91716848 1.30720825 15.24385296 6.91735493 2.22239088-4.92326177 5.58281767-9.20355396 10.66716947-11.0498345 1.84815805-.67066531 3.6441689-.86193422 5.36502643-.65459872-1.58282083-35.93223663.7239258-70.50294465 2.95705287-103.93675026 1.14417087-17.1507007 2.26993685-34.00378696 2.82975236-50.1698353-.82975394-.96246516-1.64723796-1.9540032-2.44478334-2.97308395-6.819013-8.69891007-12.50152384-19.46964497-14.21317893-31.50734514-1.44478413-10.14337288 2.44938457-34.0060822 11.39262902-50.4307261"/>
      <path fill="rgb(158,151,145)" fill-rule="evenodd" d="M251.68073787 546.52644346c12.26068541-3.14340016 22.34511265-8.67229044 26.6993323-16.47256922.00156137.00007096-1.82651253 38.71713327 5.34355696 83.59114145-10.13027457 2.18041943-14.80059956 14.26036029-16.80823037 22.2506665-.1395292-.10402547-.277639-.20748328-.40496117-.31321177-5.31133607-4.39447328-6.48306913-21.95952289-7.74990348-40.98178069-1.12432435-16.88306538-2.32217478-34.8133395-7.07979424-48.07424627zm-62.32200445 89.36923874c-2.03374818-8.08716487-6.792929-20.3606811-17.17784793-22.3235411 4.22703943-13.04817255 7.67183526-26.28403089 8.37884948-36.3877715 2.06753043-29.56771643-.72092456-41.97569943-.72092456-41.97569943l.00312273.00184493c5.34355696 5.83245166 14.1794604 9.85630757 24.4631745 12.13592728-4.52000817 13.17554343-5.69017986 30.7178153-6.79136763 47.25424735-1.26839571 19.0222578-2.44027071 36.58730741-7.75160679 40.9817807-.12732217.10572848-.26372865.21032163-.4033998.31321177z"/>
      <path fill="rgb(209,204,198)" fill-rule="evenodd" d="M322.76199696 316.93561501c2.15950899 4.23240358 4.15195199 8.51071745 5.98470998 12.83948296-20.5061092-39.57119238-70.12882676-44.6620545-121.82347497-41.9123333-31.32821017 1.66788463-57.84599837-1.71684613-73.87837255-4.64247399 2.40719817-2.73900644 4.57976585-5.02657353 6.42856332-6.72965367 1.70330668-1.5684005 3.59894508-2.98225292 5.62091206-4.25227202 1.72544967-1.08332671 3.58091842-2.08405749 5.5191395-3.00368245 23.13644053 5.42131687 47.72835664 4.09162149 65.20385741 3.14602564 6.98000886-.37948722 12.75762514-.6916346 16.51228084-.44987826l.00156137-.01227586c15.3419672 5.15969208 32.25452512 7.11829456 40.1348735 5.90639065 11.8804222-1.82853516 19.7729776-8.17557943 25.49693973-16.08492175 6.24077375 1.0665095 13.69628906 2.78945808 20.74230105 5.55138419 5.84049668 2.28912818 11.38504383 5.28514708 15.63649732 9.19922986 3.38035406 3.11388134 7.9540164 7.61713433 13.16570903 12.94514048-3.3942644.05506397-6.82983398 1.94788772-8.5920467 8.39895747-2.58434206 9.45177193 13.46620072 44.94517977 18.89875546 56.53451207-2.49548624.76507687-4.82674532 2.11009934-6.99846135 3.90954142-.61815838-.31519862-1.26995708-.7038395-1.95255723-1.17053498-5.1977823-15.74680347-14.58427962-34.61664195-26.10118777-40.17263846zm66.9693348 77.766921c3.19171284-.35656755 6.65027707.21876572 10.12729379 1.39547411 1.75923192-4.28292618 3.86040266-12.15089957 5.0889126-20.24693428 1.07208962-7.06628182 1.42793878-14.03456965.19332531-18.34807904-1.14419626-3.99518859-9.60437863-14.86542525-20.48467591-27.56412611 0 0 14.91259197 27.3759436 13.18870367 36.14367351-1.35895486 6.91783618-6.15191793 22.39684146-8.11355946 28.61999181zm-48.97077694 24.83434431c-1.51693654-10.66360488 2.22537019-24.35693407 6.98000886-36.49562874-.24073401.79722117-9.1487441 30.69021235 5.1319211 45.61531389 5.82048283 6.08392935 12.91404547 12.30551861 19.47702807 17.78346053-3.27304574 4.34104137-2.85431617 10.6498389-1.61203783 15.87836093-5.1732263-3.1184227-12.01370594-8.87331648-18.00451944-16.5164217-5.7699514-7.36310213-10.5660372-16.37414948-11.97240076-26.2650849zm2.92926168 86.15594425c-2.23303507 33.4338311-4.53988009 68.00456276-2.95694041 103.9367793 0 0-4.40347361-26.59951333-4.40347361-43.44603498 0-4.03379013.09879179-11.93064372.22072016-21.6754042.38750227-30.95588178 1.00835756-80.56013989-.56422034-84.22026142-1.63347111-3.79934253-16.35429915-38.86891396-4.33278638-62.05680319-1.90344523 9.26813078-2.51237737 17.74819406-1.79145281 22.8115242 1.71168128 12.03764946 7.39419627 22.808402 14.2131007 31.50730197.79757335 1.01910908 1.61516056 2.01061521 2.44481286 2.97309924-.55982013 16.16602756-1.6855639 33.01914837-2.82976017 50.16979908z"/>
      <path fill="rgb(158,151,145)" fill-rule="evenodd" d="M322.76199696 316.93561501c2.15950899 4.23240358 4.15195199 8.51071745 5.98470998 12.83948296-20.5061092-39.57119238-70.12882676-44.6620545-121.82347497-41.9123333-31.32821017 1.66788463-57.84599837-1.71684613-73.87837255-4.64247399 2.40719817-2.73900644 4.57976585-5.02657353 6.42856332-6.72965367 1.70330668-1.5684005 3.59894508-2.98225292 5.62091206-4.25227202 1.72544967-1.08332671 3.58091842-2.08405749 5.5191395-3.00368245 23.13644053 5.42131687 47.72835664 4.09162149 65.20385741 3.14602564 6.98000886-.37948722 12.75762514-.6916346 16.51228084-.44987826l.00156137-.01227586c15.3419672 5.15969208 32.25452512 7.11829456 40.1348735 5.90639065 11.8804222-1.82853516 19.7729776-8.17557943 25.49693973-16.08492175 6.24077375 1.0665095 13.69628906 2.78945808 20.74230105 5.55138419 5.84049668 2.28912818 11.38504383 5.28514708 15.63649732 9.19922986 3.38035406 3.11388134 7.9540164 7.61713433 13.16570903 12.94514048-3.3942644.05506397-6.82983398 1.94788772-8.5920467 8.39895747-2.58434206 9.45177193 13.46620072 44.94517977 18.89875546 56.53451207-2.49548624.76507687-4.82674532 2.11009934-6.99846135 3.90954142-.61815838-.31519862-1.26995708-.7038395-1.95255723-1.17053498-5.1977823-15.74680347-14.58427962-34.61664195-26.10118777-40.17263846zm66.9693348 77.766921c3.19171284-.35656755 6.65027707.21876572 10.12729379 1.39547411 1.75923192-4.28292618 3.86040266-12.15089957 5.0889126-20.24693428 1.07208962-7.06628182 1.42793878-14.03456965.19332531-18.34807904-1.14419626-3.99518859-9.60437863-14.86542525-20.48467591-27.56412611 0 0 14.91259197 27.3759436 13.18870367 36.14367351-1.35895486 6.91783618-6.15191793 22.39684146-8.11355946 28.61999181zm-48.97077694 24.83434431c-1.51693654-10.66360488 2.22537019-24.35693407 6.98000886-36.49562874-.24073401.79722117-9.1487441 30.69021235 5.1319211 45.61531389 5.82048283 6.08392935 12.91404547 12.30551861 19.47702807 17.78346053-3.27304574 4.34104137-2.85431617 10.6498389-1.61203783 15.87836093-5.1732263-3.1184227-12.01370594-8.87331648-18.00451944-16.5164217-5.7699514-7.36310213-10.5660372-16.37414948-11.97240076-26.2650849zm2.92926168 86.15594425c-2.23303507 33.4338311-4.53988009 68.00456276-2.95694041 103.9367793 0 0-4.40347361-26.59951333-4.40347361-43.44603498 0-4.03379013.09879179-11.93064372.22072016-21.6754042.38750227-30.95588178 1.00835756-80.56013989-.56422034-84.22026142-1.63347111-3.79934253-16.35429915-38.86891396-4.33278638-62.05680319-1.90344523 9.26813078-2.51237737 17.74819406-1.79145281 22.8115242 1.71168128 12.03764946 7.39419627 22.808402 14.2131007 31.50730197.79757335 1.01910908 1.61516056 2.01061521 2.44481286 2.97309924-.55982013 16.16602756-1.6855639 33.01914837-2.82976017 50.16979908z"/>
      <path fill="rgb(255,255,255)" fill-rule="evenodd" d="M165.91858027 349.6610036c16.65336105 1.30521904 31.99997466 3.75499125 39.94168616 6.10683377 4.21011937 2.14068165 6.95551597 6.77397975 8.35888909 12.8440899 1.49079636 6.44958768 1.57515213 14.92509565.34355801 23.5520886-1.21932419 8.55507585-3.7377271 17.39169953-7.45398183 24.6645086-4.49692895 8.79990004-10.84661718 15.50808328-19.0168561 17.38863921-8.59661896 1.97848562-26.44016312 3.21484786-45.4772646 3.0817247 6.13435096 44.83037238 40.54475316 72.4292521 82.0784626 72.4292521 45.86959558 0 83.05514896-33.66286926 83.05514896-87.01924462 0-53.35790551-37.18555338-106.2047405-83.05514895-106.2047405-22.95857078 0-43.74229665 13.24039909-58.77449334 33.15684823"/>
      <path fill="rgb(0,0,0)" fill-rule="evenodd" d="M448.0825025 3.00212136c1.43404229-.66254153 3.02152412-1.15222763 4.76230355-1.43528195 5.87271757-1.37255445 10.47235533 2.8246536 13.4493096 9.33852182 1.65036223 3.61577234 2.8665232 8.07311504 3.45856422 12.38655347.60893214 4.4451378.56606559 8.91163419-.32973179 12.39116579-1.40338276 5.46722715-4.62887786 8.96669815-10.18705146 8.67598029-11.68723883-.61819233-18.00310002 19.07490917-26.41417038 45.30777881-13.14101108 40.98660589-30.8711562 96.26181362-85.49534997 123.40515456-9.3803938 10.13879422-20.2667946 19.1269219-29.16089435 26.47015559-6.23325082 5.14734526-11.41726471 9.42722022-13.89884061 12.19986109 5.79294604 1.18281083 12.22392237 2.88283975 18.44482422 5.32183274 6.99079646 2.73900644 13.72850994 6.41750628 19.08271257 11.34913704 10.3834995 9.56346096 31.75914675 31.91744335 48.73160429 51.51106073 12.95861532 14.9602261 23.50463867 28.60920609 25.21163585 34.5706607 1.71466207 5.98905755 1.38336891 14.5915246.10886969 22.98899194-1.3664778 9.00799612-3.89262355 18.10937392-6.1057867 23.394521 8.48005428 5.23157326 15.50619436 12.3452555 16.83122501 15.65186071 1.33752158 3.33733033 1.28074469 7.08153794.1471941 11.04004088-2.44779366 8.54747405-10.39102245 18.92185121-19.37113918 27.75237959-8.86187886 8.71422704-18.97540425 16.15687389-25.8542083 18.90198277-3.29902117 1.3159294-6.28988577 1.73210226-8.74846703 1.03287507-3.75763649-1.07112181-9.54447901-4.37013444-15.6441622-9.3875543-.24073401 5.25761511-.52447652 10.51366913-.83589775 15.78050887 4.23924645 2.31353797 8.40950899 5.23618557 12.53690497 8.61779414 4.9631518 4.06103828 9.83432504 8.74942256 14.6931493 13.80445053 9.02610602 9.39124415 18.3328318 16.50343626 27.34815021 20.60726264 6.67951717 3.04178728 13.16570903 4.40639435 19.19328557 3.77287494 5.81125658-.61095455 11.32202148-3.14276154 16.29596089-7.90125303 3.44777662-3.29823208 6.6533998-7.6477885 9.54760174-13.1455279l-.37274028-.35507742c-5.29444494-5.14088801-8.5981502-12.46162779-7.91413063-20.33577459.96620072-11.11497328 7.01222974-16.47512373 13.45243232-22.18566832 5.3144588-4.71130395 10.9832054-9.73631638 12.3359148-19.56445335.40481922-3.00219231 3.17326035-5.10767934 6.1824355-4.70527246 1.28074468.17143626 2.39882358.77125029 3.23003724 1.6342502 4.5261117 4.71591626 11.75764217 16.77811744 14.82983966 29.60688563 2.19925282 9.18397374 2.37412564 18.93405611-1.74844431 27.21068075-4.32838617 8.68485013-10.41884311 13.36926073-16.85123887 15.08511344-1.32361124.3533744-2.65644872.57689436-3.98474405.68205518-3.73762264 9.55267523-8.31284634 17.12446694-13.51219 22.95883449-7.92633766 8.89226246-17.26230355 13.78983304-27.31905205 15.53818484-9.80210415 1.7035059-20.18248093.33648623-30.49841593-3.27666063-13.3972168-4.6926418-26.71622343-13.19328311-38.46165856-23.61392535-3.08284316-2.73446508-6.13956895-5.18580489-9.17017738-7.25687693-.7116983-.48706063-1.42183525-.9532594-2.1319722-1.3998026-2.40634652 36.80550546-4.38033702 74.96490322-.69778797 114.32797369.3220669 3.4429169-.74235783 6.47626009-2.9370685 9.11521474-2.86041969 3.44107197-7.75004542 6.06498338-13.85583212 7.94240908-5.46633698 1.67959281-12.10582644 2.83621988-19.16872956 3.49358143-22.08592614 2.05680934-49.04444495-1.01896716-57.7960347-8.25973646-8.95854152-7.41177981-10.28215275-27.26120336-11.71463368-48.75921076-1.1288665-16.92436337-2.33282044-34.97051307-7.04913472-46.65351087-8.28829033 1.11114254-17.03519599 1.27079965-25.35882994.45122648-4.56897824 11.6943512-5.756183 29.49363552-6.8695778 46.20228439-1.43262287 21.4980074-2.7562341 41.34743095-11.71477562 48.75921076-8.75158976 7.2407693-35.71166992 10.3165458-57.79674442 8.25973646-7.06347088-.65736155-13.70125704-1.81398862-19.16801984-3.49358143-6.10749001-1.8774257-10.99569632-4.5013371-13.85583213-7.94240908-2.19471066-2.63895465-3.25856763-5.67229784-2.93806209-9.11521474 4.0504633-43.3007825 1.25704034-85.14535021-1.42595158-125.33367054l-.0036905-.05421246c-1.64326512-24.623455-3.245367-48.6304207-3.21300418-72.30593821-1.37556209-.23253171-2.71336755-.47584915-4.00816451-.73442271-1.35739349-.27084942-2.70854152-.59988499-4.04393396-.98086233-12.16629383-3.4673267-20.9330714-10.93140309-25.9382381-21.24922615-4.83724904-9.97353137-6.02530546-22.49930584-3.2161269-36.48030166.45833143-2.28451586 1.0340491-4.64098386 1.72615938-7.05861828 1.97654546-6.900948 16.19418832-29.76597507 31.79150958-52.07411814 13.71871594-19.6226395 28.635992-39.06930137 37.32683049-47.07202537 1.3588129-1.25164079 2.81599178-2.42834918 4.3496775-3.5316153-13.56158589-5.23618557-25.91013353-13.55708844-35.07179437-26.60930563-3.76175282-5.35858936-6.5081929-11.0109478-8.4259743-16.82246664-29.7803302.0321443-55.01453488-8.9850055-71.30637944-20.10161083-7.23607263-4.93624308-12.81993778-10.36217226-16.37743573-15.68861732C1.16534566 179.6351118-.388212 173.54969233.94178666 168.06720905c.95569699-3.9370734 3.31435092-7.36310213 7.20498728-10.03625888 9.43731263-6.48172391 14.33630655-12.89000556 16.75670535-19.8766717 2.50258335-7.2208299 2.56489598-15.54017168 2.24027412-25.29188611-.35953966-10.76457914-.59275073-25.67896591 3.9180312-38.44202633 4.88834825-13.83255018 14.92820562-24.85726397 35.13112623-25.6590265 12.63299986-.50040087 42.4877078 14.65886443 61.99198878 33.20122843 4.90850404-11.54810528 18.77640125-34.42689834 51.42850654-33.70468053 35.32274823.78182314 42.84653774-1.56946488 56.41550463-5.80995775l3.56445313-1.10170502c9.34050804-2.8705639 18.37725972-2.47120825 26.71934615.68851242 4.04904388 1.53476607 7.9110079 3.71369536 11.54132222 6.47867269 5.13816657-7.06315964 10.8389921-13.94274907 16.91411928-19.76037037 7.81746798-7.4855059 16.30830987-13.24345092 25.15642033-15.5325791 19.56744527-5.06169809 32.372763 2.59517312 41.0613304 14.42626176 8.03378793 10.9344543 12.13506654 25.27968122 14.91103061 35.68932486 1.4155898 5.30650566 2.82677939 10.15710157 4.61198674 14.53333846.29296875.71455427.59516374 1.41534255.90942383 2.10236484C393.87703829 48.5486053 408.6055312 15.93952734 448.0825025 3.00212136zm.7392351 15.7101178c.55371662-2.45740676 1.8189896-4.59351247 3.8696289-5.6646343.73000886-.22951596 1.46470181-.45136838 2.21316316-.66406714 1.47548942-.42078518 3.75309434 10.93445431 3.94940044 12.36973626.61191292 4.46958308.59204101 8.07921749-.33129315 8.6116917-.78068224-.00152562-1.5399312.03824674-2.28214708.1132501-2.82053393.10097426-4.98316565-1.8530159-6.27157522-4.5369229-.7146791-1.48729469-1.18394009-3.20414082-1.38493028-4.98981691-.20397097-1.79639086-.13186432-3.59739403.23775323-5.2392368zM320.28652457 156.84359799c-3.76388195 2.71601581-9.2607365 11.36134194-8.00156704 17.79871666-5.26690816-3.70908305-3.96629156-11.75615624-1.43560365-18.33119087-1.86952103-.19435592-3.78673465-.4391635-5.76072516-.74520843-7.69781068-1.1950867-15.769923-3.85752868-23.45708802-7.83284883-8.0061092 2.2294519-14.04291198 15.82329696-14.05966116 15.86459493-4.66876362-6.96984892.03065952-15.29536411 5.63340298-20.86817783-2.18562636-1.47970211-4.30993368-3.06953214-6.35276617-4.76799997-10.67646825-8.87941893-18.48002589-23.3256201-13.03838685-36.43290124.60424804 2.08717967 1.39117573 4.1283781 2.32515557 6.11756379.37572106-2.370234.92489553-4.60571739 1.6334711-6.66380399 2.57355447-7.47635223 7.29597225-12.85630017 13.73007132-14.52418479l.0090843-.01071476c.1872218-.05201274.37430165-.0948718.56294286-.1285772 6.9509107-1.53930742 14.07825559 1.53171485 20.02293786 7.78849963 5.31758154 5.59424326 9.80834961 13.91060478 12.21483808 23.62251136l.0137684.06116642c1.21474154 4.92403818 1.91565225 11.29861443 1.75454782 17.45598606-.08275232 3.16284285-.39261219 6.29808276-.97698833 9.20540327.5566974.10253534 1.11197539.19889728 1.66413064.28305432 17.953988 2.78945808 30.81437931-.24175635 40.6303938-7.02796411-3.35281727-4.70215028-7.26077057-8.8779288-11.30825309-12.4860376-6.89271439-6.14665685-14.13801326-10.61159214-19.7531057-13.24196079-12.91716819-6.04866287-19.70555504-18.09858819-26.51225245-30.17916768-3.0675134-5.4427464-6.13956895-10.89620755-9.65192927-15.46218805-5.17776845-6.72958271-11.20392556-11.557188-17.73766806-14.03144747-6.0920183-2.30899662-12.72228153-2.5905608-19.61045376-.47279792l-3.523006 1.10170502c-14.627572 4.57108953-22.73417628 7.10438665-59.90472838 6.28126554-33.4723894-.74059612-42.18891942 29.41714203-42.81928484 31.77815139 5.8802405 7.31108939 9.65050986 14.83179082 9.80508494 21.88877705-.52220544-.59427925-47.83665857-54.43001847-79.75861305-53.1635473-14.49159135.57533326-21.6850813 8.46175592-25.18097634 18.3526204-3.87275163 10.95744492-3.64450854 24.58343428-3.3149187 34.44676677.36308821 10.87484898.25336687 20.26382245-2.84338662 29.20298862-3.17766057 9.17169789-9.30857104 17.37793148-20.89247593 25.33467422-1.54688635 1.06196815-2.45034861 2.28302573-2.7673056 3.58973049-.57514989 2.3686729.41759403 5.479503 2.73792356 8.95144203 2.7854742 4.1711662 7.3499103 8.55045432 13.40601721 12.68188364 14.2779683 9.74241884 36.27106423 17.69767145 62.44535225 18.17820387-6.3003895-39.2514524 18.6030898-81.89835032 23.68902162-90.0999716-12.94158226-15.8110211-31.96042083-35.88197776-45.81327217-36.90264793-12.57139693-.92572741-13.15662472 11.39660842-13.90309888 27.15256556-.59913813 12.65130044-4.18786337 56.30957294-31.35248228 53.6975826 18.43957235-13.55864954 19.50186796-35.9355516 20.36771552-54.21480068 1.04597225-22.08008175 1.86625636-39.34781434 25.66315407-37.59428255 12.01697061.88599053 58.32405977 34.58144643 59.4899732 66.90434788-.02767873-.04285907-2.7572277-4.015128-7.17688272-9.82203452-9.0939544 15.64270703-35.52714503 67.30214244-10.87760038 102.41762416 22.79464367 32.47283721 71.26166765 31.19210335 101.30757176 29.61916149-5.89713163-4.49409932-9.8174339-9.90470142-10.13495866-16.2395408.51340502.32151395 41.32874954 25.88155305 69.3113815 21.57513953 16.73456236-2.57523372 23.4876056-19.6731621 28.76686273-33.0405779.78990847-2.00295168 1.555119-3.9355123 2.32657499-5.77014991-1.6993323 2.23399325-3.6517476 6.16340311-5.78215843 10.45399284-6.2453159 12.57629707-13.70239258 27.59016796-29.6656409 28.08588555-19.84508425.61819234-33.17629792-14.55781922-46.39409974-29.60688563-6.89115303-7.84505373-13.7515046-15.6534218-21.12880973-20.44434143-2.13339163-1.23021126-3.24380564-3.79018886-2.5383528-6.2613971.83277504-2.91952541 3.88041652-4.6118908 6.80669741-3.78096423 22.6196289 6.48626528 42.06599746 9.87709848 59.10729697 10.99867195 16.92334552 1.11398088 31.51230923-.00149014 44.50158407-2.5338648 79.25911837-15.45303438 100.56592365-81.90140154 115.56893282-128.69342382 6.72692588-20.97837672 12.31590094-38.3990963 21.52610602-47.06897414-1.5322663-1.61125957-2.81144963-3.51933944-3.81909748-5.62021415-1.26527298-2.6379967-2.08427961-5.56366004-2.4186955-8.51532975-.20865506-1.83768883-.2316497-3.71365989-.0628804-5.56362457-26.54291197 15.11331953-37.68097633 43.43180776-48.08278638 69.8865653-13.87570403 35.29607166-26.5735715 67.56696037-69.21003475 67.366502zM306.87241665 51.68086493c-3.99538972 5.45040994-7.6655898 11.9214191-10.9401969 18.626592-2.15638627-3.67239739-4.4263263-7.2651791-7.0137911-10.63153154-.963078-1.24858957-1.9524153-2.44672749-2.96772802-3.59278171 5.01070244-6.9927686 10.56745662-13.79891576 16.44173555-19.42218113 6.56284066-6.28435224 13.4600972-11.05998027 20.28978925-12.82575244 14.04291197-3.63258955 23.21777343 1.84077553 29.4310104 10.30097037 6.8695778 9.35228781 10.60123887 22.45800787 13.14413381 31.99237575 1.53070494 5.7411278 3.0628293 11.00335522 5.0169479 15.80342852-3.2638195-5.87424635-5.9003963-12.00401503-8.35585483-17.71299853-8.67763786-20.17640131-15.48362555-36.0006917-37.67487282-27.48770358-6.41862736 2.46205457-12.22548374 7.92772063-17.37117324 14.9495823zm65.13189272 51.55228775c-9.78833576-10.48457605-15.32819881-23.36691807-20.21001772-34.71754524-6.33445562-14.72925548-11.3052723-26.28651444-23.63039948-21.55683218-4.20248342 1.61282066-8.41405115 5.7473012-12.4186671 11.21147713-4.93405365 6.73263394-9.3742903 15.29841534-13.13192679 23.83822586 4.98926917 8.52597356 10.41713981 16.31596333 18.37725972 20.04498577 6.41110443 3.00212136 14.64730197 8.06843177 22.42176145 15.00003394 4.34201263 3.87129467 8.55528366 8.33630092 12.25926599 13.3674158 6.69782771-7.33251892 11.76062295-16.77655635 16.33272393-27.18776108zm-76.90784543 31.75679281c-.05989962 2.25847401-.25464435 4.46649638-.61205487 6.48782637-7.1993096-2.68543261-14.332758-6.71886795-20.61029479-11.94128753-2.27760492-1.89126266-4.53377657-3.97688124-6.68249796-6.22464049-1.17031363-7.0800478-.73171216-13.7163198 1.00608649-18.76120068 1.39259516-4.04727229 3.523006-6.84283282 6.12580055-7.48394482l.20695176-.04747138c2.8896598-.59215049 6.33445563 1.21800636 9.59813318 4.65162767 4.07218046 4.28448727 7.5614042 10.85185836 9.5000511 18.68009487l.01532976.06123737c1.00764785 4.0824678 1.58748183 9.40586164 1.45249478 14.57775862zm-70.37878702 38.3563082c-24.30065067-12.51051835-58.98309752-3.6846023-59.05520417-3.65856044 1.75610919-3.99064723 4.94171852-7.10147734 8.95854151-9.3492366-1.11964026-2.23101298-2.0919445-4.61799323-2.88795648-7.12595809-1.32829533-4.17577852-2.19939476-8.75701515-2.49548624-13.57851798-.07977153-1.30982694-.12107672-2.47887179-.12107672-3.50252223 0-9.16871761 2.26525595-17.46670082 6.05979742-23.63010394 4.22079397-6.85666977 10.34659452-11.2084259 17.55669173-11.64907953.51383085-.0305832.90346225-.04740042 1.16406817-.04740042 7.75458758 0 14.86206055 4.5903903 20.08283749 12.01011748 4.75463867 6.75867578 8.00767055 16.01914302 8.63193245 26.17475445.32362827 5.27904464-.07522937 10.30405708-1.08898074 14.88075234-.78990847 3.56368864-1.9585188 6.8519865-3.4554415 9.77917545 3.13947811 2.5921219 5.49685457 5.82684593 6.65027708 9.6965795zm-16.28999932-14.97406305c-7.22698833-2.53698698-15.71470749-3.12303501-23.31585552-1.69846783-1.1150981-2.03204475-2.08442155-4.30584585-2.86808457-6.77095164-1.0797545-3.39693566-1.7853493-7.08153794-2.02154115-10.91302478-.05053143-.83390683-.0766488-1.7887273-.0766488-2.85828804 0-7.13667286 1.65334302-13.41637731 4.42178415-17.91352786 2.34048533-3.80395485 5.43255474-6.20015973 8.81134743-6.40672055l.518373-.00305122c3.9509618 0 7.89567815 2.79861176 11.07972611 7.32485537 3.6487668 5.18566297 6.15347929 12.43090267 6.64885765 20.50096649.26372865 4.30123353-.03988576 8.30713688-.82979424 11.87238661-.5613815 2.52634317-1.36037427 4.8337787-2.36816406 6.86582345zm71.78373115 86.53010955c-6.01991166-4.60578834-12.33279206-5.51164731-17.02767306-5.30962785 1.0138933 3.53771775.58906023 7.3738169-.44158226 11.1012073-3.94485828-5.84210206-9.48926349-9.73936762-15.74394758-11.95505353-4.06139285-1.43989426-8.42015466-2.18964405-12.85272643-2.32120151 9.6718012 10.60697983 19.76077058 19.685367 31.98313159 19.30438965 5.85114235-.18058993 10.33892964-4.89189388 14.08279774-10.81971406zm61.04282113 125.70953885c-3.78985738-18.74133224-9.77144463-36.59511286-18.49223292-53.67615307 12.07360556 5.82216265 21.80360306 26.2772898 26.82353175 42.42799028 3.67488417-3.43213117 7.84202398-5.56053786 12.49843863-5.71054459-.45123433.75173664-24.81490734 41.34430878-21.32355446 65.88374866 1.4065055 9.89093543 6.20244936 18.90198278 11.97240076 26.2650849 5.9908135 7.64310523 12.83129315 13.39799902 18.00466138 16.51642171-1.4939419-6.29041922-1.79911769-14.14320744 4.08424555-18.25164614 3.43102743-2.39620489 7.29611419-2.34419215 10.98618618-1.143003-.40950332-4.1589613.3987157-8.16181344 3.73776458-10.8273776 2.77298328-2.21412482 6.18399687-2.72673059 9.61800509-2.34724337-.80211551-3.5621985-.53824492-7.21160527 1.89890307-10.32853783 3.30980877-4.23240358 7.70093341-4.95157016 11.7990893-4.27221142-9.14420195-10.47081005-29.47245753-18.06183158-29.5398801-18.08787342 4.61340617-3.2316728 10.54602336-2.98991646 16.53683686-.96248403 1.75908998-4.28285522 3.86026071-12.15089957 5.0889126-20.24693428 1.07208962-7.06628182 1.42793878-14.03456965.19318337-18.34807904-1.22850995-4.28895767-10.8910849-16.50570693-22.92948878-30.40105558-16.69623796-19.27529658-37.68849927-41.23453564-47.86944722-50.61130421-4.25159543-3.91408278-9.79600064-6.91010168-15.63649732-9.19922986-7.046012-2.7619261-14.5015273-4.4848747-20.742443-5.5513842-5.72382017 7.90934233-13.61651753 14.25645756-25.49679778 16.08492176-7.88034838 1.2119039-24.79304824-.74662761-40.13501544-5.9063197l-.00156137.0122049c-3.75451376-.24175634-9.53213004.07039105-16.5121389.44987827-17.47550077.94559585-42.06755882 2.27536219-65.20399936-3.14602564-1.93822107.91962496-3.79354788 1.92035574-5.51899755 3.00368245-2.02210892 1.2700191-3.91760538 2.68394248-5.621054 4.25227202-8.12221794 7.47947442-22.46491189 26.22683816-35.77738918 45.26804193-14.98881495 21.43896975-28.515625 42.93761578-30.1967887 48.80873995-.59558957 2.07951613-1.09934252 4.14980763-1.51097497 6.1986696-2.33239462 11.61381305-1.47250863 21.75878068 2.31209689 29.56253643 3.61796534 7.45946407 10.053058 12.88383215 19.04523982 15.44686098 1.00055074.2846154 2.06284634.54013774 3.1824866.76507687 12.45940453 2.49107669 29.07757427 3.62797724 44.88539585 3.78862777 18.68470658.1897436 36.1355094-.9532594 44.22139013-2.81393884 4.58586936-1.05579474 8.54449604-5.59112107 11.6518952-11.6719992 3.1626147-6.18788388 5.31900096-13.80189602 6.37732218-21.22623552 1.04909498-7.35543859 1.01985488-14.39872978-.17189203-19.55529968-.67933548-2.93641358-1.5688874-4.95618248-2.62876998-5.49475913-11.90952035-6.0578875-101.25945336-6.008926-101.51225246-6.00126245 1.28216411-2.74510889 4.28197107-4.87663776 8.50858467-6.49556087 3.96444631-15.13010126 8.38282385-29.80422182 25.65307617-36.13444888-3.5011469 6.85808895-6.49797306 13.67189966-9.0472554 20.4534951-1.58350745 4.21402527-3.0154206 8.45565348-4.30823038 12.7216915 26.58521075-3.88662176 70.22137309 1.07105085 85.70301144 5.65697075 4.2101483 2.14068255 6.95545286 6.77400287 8.35883562 12.84409527 1.49081918 6.44957962 1.57513286 14.92503058.34364213 23.55204936-1.2192837 8.55506664-3.73776458 17.39169746-7.45395395 24.6645401-4.49701353 8.79987421-10.84665697 15.50802739-19.01685138 17.38864624-8.78991415 2.02282012-27.24850676 3.26991955-46.76428506 3.07102227-10.7751181-.10870875-21.90736283-.65189772-31.95814976-1.73678553.0437182 22.63554658 1.6099087 46.09428522 3.21428166 70.13971053 2.23289313 33.4338311 4.53831872 68.00498851 2.95665652 103.93841135 1.72062364-.2072704 3.51676054-.01603667 5.36513218.65459416 5.08337686 1.84634579 8.44570426 6.12657554 10.66667424 11.04990413 3.32684184-5.61020896 8.19233739-9.35413274 15.2451626-6.91741043 4.61127703 1.59415852 7.93087982 5.10995002 10.32047716 9.27366556 2.83586369-6.342361 7.3051985-11.22623655 14.34198424-10.23657533 10.8743357 1.53015375 15.80072447 14.17485503 17.87890057 22.4419712.1395292-.10289014.27607763-.20748329.4033998-.31321178 5.31133608-4.39447328 6.48306913-21.95952289 7.75146485-40.98178069 1.10118777-16.53643206 2.2715014-34.07870392 6.79136764-47.25424735-13.80828148-3.06215243-25.0090843-9.26628585-28.64720544-18.77482476.5765693.26105712 54.65868572 24.74649743 104.98004292-8.83123796 1.02610033 13.36848018-11.84820131 22.4000346-28.95706532 26.7860638 4.75761946 13.26090677 5.95546989 31.19118089 7.07979424 48.07424627 1.26683435 19.0222578 2.4385674 36.58730741 7.74990348 40.9817807.12732218.10572848.26543196.20918629.40496117.31321177 2.0781761-8.26711617 7.00456486-20.91181745 17.8773392-22.4419712 7.03678575-.98966122 11.50768192 3.89421433 14.3435456 10.23657533 2.3894554-4.16371554 5.70849042-7.67950704 10.32047716-9.27366556 7.0521155-2.4367223 11.91718523 1.30720147 15.24388513 6.91741043 2.2223894-4.9233286 5.5827296-9.20355834 10.66710006-11.04990413 1.8482297-.67063083 3.64422466-.86186457 5.36513218-.65459416-1.58293968-35.93221654.72390534-70.5029482 2.9569404-103.93670834 1.14419627-17.15072167 2.26994005-34.00377152 2.82976018-50.16987004-.8296523-.96241307-1.6472395-1.95399016-2.44481286-2.97309924-6.81890444-8.698829-12.50141942-19.46958155-14.2131007-31.50730197-1.4448299-10.14333558 2.44935501-34.0060422 11.39256677-50.43071428zm70.81298828 62.1838193c1.24540107-1.90658975 2.28370844-3.75804457 3.05360306-5.50852513-2.03062545-1.18437193-4.50609784-2.2600351-5.39877248-1.12008334-.9984216 1.27612155.52149573 4.08395795 2.34516942 6.62860846zm-12.42945472 14.70470376c-.40496116.3994266-.81446448.79573104-1.2239678 1.18742315-1.70699718-3.34336182-3.21626884-7.08309903-2.01997978-8.03791952 1.5214787-1.21339404 5.03838118.23111254 8.0306652 1.86990409-1.52602085 1.68619197-3.1333746 3.35556672-4.78671762 4.98059228zm-10.79300281 9.44723057c-2.50002839 1.9248971-4.90481355 3.58511817-7.08731718 4.88117912-1.26697629-3.45817303-2.32061342-7.61096092-.64427575-8.78000577 1.57215207-1.1002149 4.9786235 1.4108012 7.73159293 3.89882665zm69.73309184 30.71320298c.58735692-6.7632881 5.04434275-10.7141275 9.78975518-14.92205031 4.50155569-3.99064723 9.20097883-8.15876221 12.4095828-14.58386107 2.42792174 4.48636482 4.7668457 10.051515 6.16412496 15.88141215 1.66398869 6.95608293 1.90174191 14.1355439-.93099905 19.82004664-2.73778161 5.49781036-6.25766488 8.37348329-9.82822152 9.32553638-2.22551213.59413733-4.54144145.46619877-6.72550645-.2120956-2.32047148-.72023097-4.48920671-2.04304335-6.28222088-3.7839445-3.05970658-2.97302828-4.97848156-7.13049945-4.59651504-11.5250437zm-1.05207576 37.0024159c-1.15796466 1.36517473-2.34971158 2.63001385-3.56913722 3.79614938-6.84189907 6.5455158-14.55816225 10.04264517-22.79904388 10.90933492-8.02441974.84284763-16.4217217-.86668975-24.8803427-4.71818694-10.315935-4.69640262-20.7606116-12.61965285-30.70849042-22.97139418-4.62887786-4.81646477-9.20395962-9.23066458-13.74540107-12.94620487-2.1074162-1.7259998-4.21469045-3.3081663-6.32821017-4.71896749-.24229537 3.73966625-.4908362 7.48905385-.74235783 11.25149785 2.54289494 1.29180342 5.05058821 2.80031477 7.52762196 4.4948089 3.49234648 2.38676738 6.91414767 5.12130342 10.28981763 8.11639986 10.75922057 9.54557936 22.81139285 17.28000845 34.75767624 21.46529544 8.60425372 3.01361667 17.13654274 4.17499797 25.02753679 2.8038627 7.64117574-1.32756661 14.79293468-5.11285932 20.94329124-12.01416212 1.46626317-1.644894 2.87731082-3.4649141 4.22703943-5.46843346zM113.96597929 632.7451152c.33129315-3.54339444.61759061-7.07096509.86371843-10.58739522.54278706-.68617078 1.11751113-1.21098145 1.68613168-1.48701085.22213958-.10771533.44385333-.14291086.64157885-.07173927 5.41892828 1.96818191 7.05225745 11.86997402 7.54039676 18.20573586-.56251704-.15355466-1.11197539-.3126441-1.64809117-.47698449-4.12015693-1.26718075-7.19065111-2.76440966-8.60155682-4.46074872-.33909997-.40886413-.51226948-.78849326-.48217773-1.1218573zm217.61048782 6.05959052c.56294286-.15355466 1.11197539-.3126441 1.64723951-.47698449 4.11958916-1.26647116 7.1902253-2.76440966 8.60127294-4.46074872.33895803-.40886413.51226949-.78849326.48160997-1.1218573-.33129315-3.5421172-.61659702-7.0709651-.8635765-10.58739523-.54136764-.68617078-1.11651753-1.21098145-1.68400254-1.48701085-.22398483-.10771533-.4464083-.14291086-.64271439-.07173927-5.4186444 1.96818191-7.0521155 11.86997402-7.53982899 18.20573586zm-152.5336687.9915771c-4.43257176.9664577-9.73312022 1.6282187-15.40342818 1.97066546.65492142-7.09544585 2.31905205-18.00428406 6.33275232-17.43952364 5.2761344.74244105 7.92335687 9.80237895 9.07067587 15.46885818zm98.18853335 0c4.4310104.9664577 9.73155886 1.6282187 15.40186682 1.97066546-.65492142-7.09544585-2.31905205-18.00428406-6.3313329-17.43952364-5.27599245.74244105-7.92335687 9.80237895-9.07053392 15.46885818zm-140.8751022 1.20502091c1.18805641.14702646 2.39641057.276739 3.62165584.39084061 3.83613054.35621275 7.80824173.56554097 11.76672647.62883614-.8370333-6.13551634-2.99867142-15.34510617-8.5033328-17.24644497-3.70369845-1.28030811-5.89471861 9.5305361-6.88504951 16.22676822zm179.93958939.39084061c-3.83584666.35692234-7.80824173.56610864-11.76686841.62883614.83589775-6.134381 2.99852947-15.3440418 8.50304891-17.24644497 3.70398234-1.28030811 5.89415085 9.5305361 6.88490757 16.22676822-1.18706282.1457492-2.39712027.276739-3.62108807.39084061z"/>
      <path fill="rgb(0,0,0)" fill-rule="evenodd" d="M190.66089197 118.84686293c7.28987152-.53555295 13.89722825 8.5030507 14.75765702 20.18575577.86042877 11.68423523-4.3496898 21.5889045-11.63956133 22.12445745-7.28987153.5340228-13.89722826-8.50458085-14.75765703-20.18728592-.86042877-11.68423522 4.3496898-21.5889045 11.63956134-22.1229273"/>
      <path fill="rgb(0,0,0)" fill-rule="evenodd" d="M274.83567194 103.21483739c7.15950353-1.09711847 14.97544826 7.40134177 17.46164261 18.98305686 2.48466061 11.58171509-1.3021462 21.85974128-8.45858226 22.9583899-7.15950353 1.09864862-14.976982-7.40134177-17.46164261-18.98305686-2.48619435-11.58171509 1.30061246-21.85974128 8.45858226-22.9583899"/>
      <path fill="rgb(255,255,255)" fill-rule="evenodd" d="M195.6869616 120.16279304c3.77300315 0 6.83281668 3.05265181 6.83281668 6.81835413 0 3.76570232-3.05981353 6.81835413-6.83281667 6.81835413-3.77607063 0-6.83588416-3.05265181-6.83588416-6.81835413 0-3.76570232 3.05981353-6.81835413 6.83588416-6.81835413"/>
      <path fill="rgb(255,255,255)" fill-rule="evenodd" d="M280.57646494 103.57136264c3.77300314 0 6.83281667 3.05418197 6.83281667 6.81988428 0 3.76417217-3.05981353 6.81835413-6.83281667 6.81835413-3.7745369 0-6.83588416-3.05418196-6.83588416-6.81835413 0-3.76570231 3.06134727-6.81988428 6.83588416-6.81988428"/>
      <path fill="rgb(255,207,51)" fill-rule="evenodd" d="M17.12391282 298.1714128l113.52383648-37.291317 113.52383649 37.291317v124.31102067c0 32.71616465-62.92939802 109.1178425-113.52383649 109.1178425-50.59428508 0-113.52383648-76.40167785-113.52383648-109.1178425V298.1714128"/>
      <path fill="rgb(255,175,46)" fill-rule="evenodd" d="M130.6471358 260.87856565L244.1715858 298.1714128v124.31102067c0 32.71616465-62.92939802 109.11723045-113.52444998 109.11723045V260.87856565"/>
      <path fill="rgb(0,0,0)" fill-rule="evenodd" d="M130.6466036 255.08998497L15.40101518 292.95050462l-3.7912768 1.24553834v128.28633367c0 19.26309168 19.59469818 51.9440508 45.95109807 77.2772349 21.8757097 21.02677056 48.6237282 37.34138568 73.08633494 37.34138568 24.4631745 0 51.21161882-16.31461512 73.08732853-37.34138568 26.35739349-25.3331841 45.95251749-58.01414322 45.95251749-77.2772349V294.19604296c-39.68094227-13.03376792-79.3634459-26.06001422-119.0404138-39.106058zM22.63836529 302.14824435l108.0088061-35.48113199 108.01065134 35.48113199v120.33413228c0 16.56545417-18.14419059 45.91376625-42.54746548 69.36945366-20.06296557 19.28388259-44.1453091 34.24645033-65.46318586 34.24645033-21.31532182 0-45.39936865-14.96256774-65.46190839-34.24645033-24.40384266-23.45568741-42.54689771-52.80399949-42.54689771-69.36945366V302.14824435z"/>
      <path fill="rgb(0,0,0)" fill-rule="evenodd" d="M71.20687795 440.42194634l2.05149096-14.17222956h15.625l2.05177485 14.17222956h23.04332644L93.302882 326.26349303H68.83913971L48.1635515 440.42194633h23.04332644zm15.15176463-32.28011335h-10.5751215l5.36640965-40.46640753 5.20871185 40.46640753z"/>
      <path fill="rgb(0,0,0)" fill-rule="evenodd" d="M155.36644139 340.12051032c0-4.20026528 1.1303672-7.55894736 3.39263535-10.07757637 2.26226814-2.52015917 5.6549035-3.77947368 10.17943979-3.77947368h32.67175327l3.94478215 21.25686167h-25.09353841c-1.36963082 0-2.05214561.73447262-2.05214561 2.20341785v67.70766428c0 1.47047539.6825148 2.204948 2.0521456 2.204948h10.41563593v-45.03388251h22.25304987v65.81945759h-39.92941624c-6.6288291 0-11.25919354-1.36489495-13.88955955-4.09468484-2.63036602-2.7297899-3.94478215-7.2437362-3.94478215-13.54183889v-82.6648931"/>
    </g>
  </g>
</svg>
