<svg xmlns="http://www.w3.org/2000/svg" width="500" height="597.959" viewBox="0 0 500 597.959">
  <g>
    <path fill="rgb(255,207,51)" fill-rule="evenodd" d="M11.58074347 91.34723889l238.41809228-79.07026102 238.41809228 79.07026102v263.58159598c0 69.36938373-132.16173351 231.36689672-238.41809228 231.36689672-106.25603666 0-238.41809228-161.99751299-238.41809228-231.36689672V91.34723889"/>
    <path fill="rgb(255,175,46)" fill-rule="evenodd" d="M249.9975473 12.27373343l238.41938073 79.07350546v263.58159598c0 69.36938373-132.16173351 231.36559894-238.41938072 231.36559894V12.27373343"/>
    <path fill="rgb(0,0,0)" fill-rule="evenodd" d="M249.99626315 0L7.9621607 80.27717435 0 82.91825275v272.01064752c0 40.84422832 41.15201989 110.13893595 96.50467853 163.85398398 45.94228316 44.5836904 102.11754624 79.17629942 153.49283024 79.17629942 51.37652961 0 107.55254006-34.59260901 153.49507234-79.17629942C458.84723274 465.06783622 500 395.77312859 500 354.92890027V82.91825275C416.66371871 55.28203225 333.32419882 27.6621293 249.99626315 0zM23.1619076 99.77952607L249.99750877 24.5474679l226.83952487 75.23205816V354.9287757c0 35.12436224-38.10561822 97.35269352-89.35646524 147.08675462-42.13518415 40.8883231-92.7119041 72.6141482-137.48305963 72.6141482-44.76555026 0-95.34575793-31.7258251-137.48031928-72.6141482-51.25196807-49.7340611-89.3552819-111.96239238-89.3552819-147.08675462V99.77952607z"/>
    <path fill="rgb(0,0,0)" fill-rule="evenodd" d="M125.16379843 392.96663245l4.3082101-30.04997409h32.81499123l4.3092066 30.0499741h48.39477538l-43.42202945-242.0547174h-51.3778998l-43.42202945 242.0547174h48.39477539zm31.82086555-68.44469965h-22.20944774l11.27032844-85.80247529 10.9391193 85.80247529z"/>
    <path fill="rgb(0,0,0)" fill-rule="evenodd" d="M301.91201621 180.293577c0-8.90598936 2.3739507-16.0275364 7.12507323-21.36788557 4.75112252-5.34359361 11.87619574-8.0137682 21.37844078-8.0137682h68.61587246l8.28466924 45.07176834h-52.7004173c-2.87644232 0-4.30983182 1.55733147-4.30983182 4.67199441v143.56325058c0 3.11790739 1.4333895 4.67523886 4.30983181 4.67523886h21.87449019v-95.48713029h46.73494008v139.55961093h-83.85811773c-13.92159425 0-23.64609519-2.89404099-29.1702817-8.68212295-5.52418653-5.78808197-8.28466924-15.35918164-8.28466924-28.713299V180.29357698"/>
  </g>
</svg>
