<svg xmlns="http://www.w3.org/2000/svg" width="1280" height="640" viewBox="0 0 1280 640">
  <defs>
    <rect id="rect-2" width="477" height="478" x="117" y="81"/>
  </defs>
  <g>
    <rect width="1280" height="640" x="0" y="0" fill="rgb(211,239,253)"/>
    <g>
      <rect width="477" height="477.046" x="117" y="81.954" fill="none"/>
      <g>
        <path fill="rgb(255,207,51)" fill-rule="evenodd" d="M165.30976824 153.87592348l190.18929085-63.081472 190.18929085 63.081472v210.28278965c0 55.34220807-105.42717683 184.58222128-190.18929085 184.58222128-84.76185707 0-190.18929085-129.2400132-190.18929085-184.58222128V153.87592348"/>
        <path fill="rgb(255,175,46)" fill-rule="evenodd" d="M355.49803128 90.7918631l190.19031866 63.08406038v210.28278965c0 55.34220807-105.42717683 184.58118593-190.19031866 184.58118593V90.7918631"/>
        <path fill="rgb(0,0,0)" fill-rule="evenodd" d="M355.49700928 81l-193.07385254 64.04431152-6.35150147 2.10705567V364.1586914c0 32.58520507 32.82751465 87.86791992 76.98309327 130.7211914 36.64874267 35.56835938 81.46051025 63.16601563 122.44329834 63.16601563 40.9837036 0 85.7960205-27.59765625 122.44506835-63.16601563 44.1571045-42.85327148 76.9852295-98.13598633 76.9852295-130.7211914V147.15136719C488.4498291 125.10351562 421.96875 103.06860352 355.49700928 81zm-180.9487915 79.60302734l180.9498291-60.0192871 180.95288085 60.0192871v203.55566407c0 28.02172851-30.39733886 77.66699218-71.28088378 117.34423828-33.61181641 32.62036133-73.95751954 57.9309082-109.67199707 57.9309082-35.71008301 0-76.05865479-25.31054687-109.66998292-57.9309082-40.88427734-39.6772461-71.27984619-89.32250977-71.27984619-117.34423828V160.60302734z"/>
        <path fill="rgb(0,0,0)" fill-rule="evenodd" d="M255.9165039 394.50488281l3.43670655-23.97363281h26.17694092l3.4375 23.97363281h38.60516357l-34.6383667-193.10888672h-40.9847412l-34.6383667 193.10888672h38.60516357zm25.38397217-54.60449219H263.5836792l8.99047851-68.45239257 8.72631836 68.45239257z"/>
        <path fill="rgb(0,0,0)" fill-rule="evenodd" d="M396.91089526 224.83643207c0-7.1051102 1.89373213-12.78660997 5.6837659-17.0470877 3.79003378-4.26306613 9.47379969-6.393305 17.05386724-6.393305h54.73579626l6.6087911 35.95781089h-42.0398255c-2.29457637 0-3.4380103 1.24242364-3.4380103 3.72727092v114.53334104c0 2.48743566 1.14343393 3.7298593 3.4380103 3.7298593h17.44957246v-76.17868788h37.28108478v111.33927693h-66.89473852c-11.10544134 0-18.86280538-2.30883727-23.26952262-6.9265118-4.40671724-4.61767453-6.6087911-12.25340316-6.6087911-22.90718588V224.83643207"/>
      </g>
    </g>
    <text font-size="0" style="white-space:pre">
      <tspan x="594" y="274" fill="rgb(0,0,0)" font-family="Roboto" font-size="160" font-weight="900" style="white-space:pre;text-transform:none">OWASP</tspan> <tspan x="594" y="126" fill="rgb(0,0,0)" font-family="Roboto" font-size="160" font-weight="700" style="white-space:pre;text-transform:none"> </tspan>
    </text>
    <text font-size="0" style="white-space:pre">
      <tspan x="594" y="390" fill="rgb(0,0,0)" font-family="Roboto" font-size="108" font-weight="400" style="white-space:pre;text-transform:none">Application</tspan> <tspan x="594" y="517" fill="rgb(0,0,0)" font-family="Roboto" font-size="108" font-weight="400" style="white-space:pre;text-transform:none">Gateway</tspan>
    </text>
  </g>
</svg>
