<svg xmlns="http://www.w3.org/2000/svg" xmlns:xlink="http://www.w3.org/1999/xlink" width="531" height="370" viewBox="0 0 531 370">
  <defs>
    <rect id="rect-2" width="283" height="370" x="0" y="0"/>
    <mask id="mask-3" maskContentUnits="userSpaceOnUse" maskUnits="userSpaceOnUse">
      <rect width="531" height="370" x="0" y="0" fill="black"/>
      <use fill="white" xlink:href="#rect-2"/>
    </mask>
  </defs>
  <g>
    <path fill="rgb(211,239,253)" fill-rule="evenodd" d="M154 281V63h357c11.03833008 0 20 8.96166992 20 20v178c0 11.03833008-8.96166992 20-20 20H260.97540283c.01635742.33129883.02459717.66467285.02459717 1v1c0 11.03833008-8.96166992 20-20 20h-9c-11.03833008 0-20-8.96166992-20-20v-2h-58z"/>
    <g>
      <g>
        <use fill="none" xlink:href="#rect-2"/>
        <g mask="url(#mask-3)">
          <path fill="rgb(209,204,198)" fill-rule="evenodd" d="M181.2821908 88.8191201c-2.1303112 1.53805707-5.24157253 6.43384435-4.5288645 10.07925623-2.98104673-2.10042272-2.24490007-6.6574042-.81253924-10.38080207-1.05821082-.1100469-2.14333266-.24868866-3.2605741-.42199087-4.35698122-.6767451-8.92577822-2.1844743-13.27668275-4.43566993-4.5314688 1.26250656-7.94830045 8.9605905-7.95784952 8.9839863-2.6424887-3.94695772.01736195-8.6616442 3.18852201-11.81747735-1.2370389-.83791616-2.4393539-1.73822112-3.59565973-2.70004835-6.0428265-5.02836348-10.45970644-13.20909406-7.3796966-20.6316275.3420304 1.18192105.7873644 2.33784675 1.31603576 3.46431108.21268388-1.34222557.52346278-2.60819818.9245238-3.7736555 1.45666757-4.23377287 4.12953968-7.28042563 7.77120858-8.22492265l.00520858-.00606558c.1059079-.02946137.21181579-.05372368.31859178-.07278692 3.93421774-.8717101 7.9682667.86737753 11.3330125 4.41054111 3.00969393 3.1679643 5.55148333 7.87745172 6.91352826 13.3771972l.00781288.03466043c.6875332 2.78843248 1.08425374 6.3983174.9931035 9.88515777-.04687726 1.79107829-.22223295 3.56655938-.55297808 5.21293032.31511938.05805624.62937066.11264644.94188575.16030454 10.16194901 1.5796496 17.44094632-.13690874 22.99677014-3.97988513-1.89766108-2.66278838-4.10957344-5.02749697-6.40048266-7.07072996-3.90123004-3.48077479-8.0021225-6.00925395-11.18022735-7.4987864-7.3111169-3.42531808-11.15331632-10.2490924-15.0059329-17.09019694-1.73619494-3.08217971-3.47499418-6.170425-5.4629374-8.7560939-2.93069706-3.81091548-6.34145202-6.54475777-10.03954726-7.9459061-3.44808316-1.30756513-7.20086853-1.46700316-11.09949427-.2677519l-1.9940199.62388794c-8.2781775 2.58826843-12.86520453 4.02321069-33.90615106 3.55702775-18.94535923-.41939133-23.87893079 16.65867445-24.23571885 17.99570096 3.32828571 4.14018967 5.46224292 8.39909136 5.54974714 12.3954402-.07795515-.08838412-27.00225868-30.82612969-45.14341241-30.10605903-8.20221897.32580815-12.27376973 4.79180597-14.2524243 10.39293323-2.19194611 6.20508544-2.06277321 13.92136611-1.87621906 19.50689618.20547867 6.15829385.1434097 11.4752055-1.6093659 16.5373629-1.79861116 5.19386707-5.26865718 9.8409657-11.82515432 14.34682302-.87555443.60135866-1.38691593 1.29283445-1.5662996 2.03283487-.32553654 1.34135906.23634823 3.10297598 1.54968421 5.06908949 1.5765171 2.36210905 4.16006198 4.8420636 7.58774485 7.18164337 8.0813798 5.5170757 20.5294635 10.0220665 35.34406772 10.29415097-3.5659708-22.2277408 10.52941467-46.37826956 13.40802588-51.02276865-7.32491966-8.95365841-18.08958874-20.31968352-25.93033192-20.89764637-7.11536093-.52423917-7.44662692 6.4537741-7.86912996 15.37623813-.33907887 7.16431315-2.37034015 31.8876057-17.7454749 30.40847137 10.43678866-7.67815418 11.03803297-20.3500114 11.528074-30.7013521.59204247-12.50375408 1.056301-22.28233099 14.52535414-21.28930936 6.8016305.50170989 33.011403 19.58314915 33.6713307 37.88732803-.01562576-.0242623-1.56057883-2.27372493-4.0620885-5.56213426-5.14721035 8.8583422-20.10834942 38.11262089-6.1567209 57.99818239 12.90175144 18.38909695 40.3340656 17.66382723 57.34009509 16.7730539-3.33783478-2.54494289-5.55669192-5.60892587-5.7363881-9.1962815.0668435.04159252 23.3153619 14.66829861 39.23019286 12.21780543 9.47181152-1.45833805 13.29404469-11.14073223 16.28203619-18.71057254.4470702-1.13426293.88025084-2.22866636 1.31690386-3.26761308-.961852 1.2651061-2.06694008 3.49030641-3.27272747 5.92000332-3.5348929 7.12185411-7.75558281 15.62406028-16.7907413 15.90480985-11.2323132.35007046-18.77781642-8.24398588-26.25908043-16.7661218-3.90036195-4.44260203-7.78336194-8.86440778-11.95891078-11.5774538-1.20752358-.69667487-1.83602615-2.1463478-1.43670132-3.54576311.47137693-1.65330304 2.1962866-2.61166423 3.85261658-2.14114874 12.80270152 3.67314023 23.80930937 5.59332866 33.45474038 6.22848124 9.57858751.63082002 17.83593067-.00086651 25.18784816-1.43494226 44.86067306-8.75089483 56.92028314-46.38000257 65.41201262-72.8779097 3.8074755-11.87986614 6.9708227-21.74509415 12.18374802-26.65474562-.86722938-.9124361-1.59122267-1.99297535-2.1615627-3.18269499-.71618042-1.493865-1.17974447-3.15063408-1.36898972-4.82213385-.11806126-1.04067974-.13108272-2.10302225-.035592-3.15063408-15.02329485 8.55852938-21.3274187 24.59504891-27.21485575 39.57615801-7.85367783 19.9878098-15.0406568 38.2625273-39.17289843 38.14901436"/>
          <path fill="rgb(158,151,145)" fill-rule="evenodd" d="M148.45245361 123.21691895c-8.80853271-.58056641-18.7526245-2.23205567-30.16375732-5.3125C209.42590332 129.6722412 223.55352783 83.546875 234.1409912 48.98010254c4.03222656-13.164917 7.5510254-24.65319824 14.6149292-30.6282959.09985352.24255371.206604.48095703.31860352.71484375.57037353 1.18969727 1.29437255 2.27026367 2.16156005 3.18273926-5.21289062 4.90966797-8.37628173 14.77478027-12.18371582 26.65466308-8.49176025 26.4979248-20.5513916 64.1270752-65.41204834 72.8779297-7.3519287 1.43408202-15.60925293 2.06579589-25.1878662 1.43493652zm8.77215577-74.48168946c2.85864257.35876465 5.65734863 1.98168946 8.1027832 4.55700684 3.00970459 3.16796875 5.55151367 7.8774414 6.91351318 13.37719726l.0078125.03466797c.68756104 2.78845215 1.08428955 6.39831543.99310303 9.88513184-.046875 1.79101562-.222229 3.56652832-.55297852 5.21289062.31512452.05810547.62939453.1126709.94189453.1604004 10.1619873 1.57958984 17.440979-.1369629 22.99676514-3.97998047-1.89764404-2.66271973-4.1095581-5.02746582-6.40045166-7.07067872-3.90124512-3.48083496-8.00213623-6.00927734-11.18023682-7.4987793-7.31109619-3.42529296-11.1533203-10.2491455-15.0059204-17.09020995-1.73620606-3.08215332-3.4749756-6.17041016-5.46295167-8.75610352-2.93066406-3.81091309-6.34143066-6.5447998-10.03955078-7.94592285-3.44805908-1.30749512-7.2008667-1.46704102-11.0994873-.2677002l-1.99401856.62390137c-.73443603.22961426-1.44018554.44970703-2.13031005.66113281 0 0 15.60058593-2.34912109 21.25708007 9.33312989 1.60858155 3.32043457 2.3803711 6.24755859 2.6529541 8.76391601zM97.77557373 33.69335937C81.92901611 35.42553711 77.63537598 50.2854004 77.30303955 51.5296631c2.43920899 3.0345459 4.23638916 6.13232421 5.05773926 9.14343261 0 0 .22338867-24.08642578 15.41479492-26.97973632zM72.35626221 78.5197754c-.56048584-.79980469-1.89727783-2.67919922-3.769104-5.14013672-5.1472168 8.85839844-20.1083374 38.1126709-6.15673829 57.99816895 12.90179444 18.38916015 40.33410645 17.66381836 57.34014893 16.77307129-3.3378296-2.54492188-5.55670166-5.60888672-5.73638916-9.19628907.29034424.18188477 23.3918457 14.65661621 39.23016357 12.21789551 9.47180176-1.45837402 13.29406738-11.14074707 16.28204346-18.71057129.44708252-1.13427734.88024902-2.22875976 1.31689453-3.2677002-.96185303 1.26513673-2.06695557 3.49035645-3.27270508 5.92004395-3.5349121 7.12182617-7.75561523 15.62402344-16.79077148 15.90478516-11.2322998.35009765-18.77783203-8.24401856-26.2590332-16.76611328-3.90039063-4.44262696-7.78338624-8.86437989-11.95892335-11.57739258-2.8838501 11.44396973-30.08203125 20.87597656-41.78546142 3.93737793-10.78063965-15.60498047-.17803955-43.7545166 1.55987549-48.09313965zm.2302246-.56408691l-.00097656-.01208496.00335694.0078125-.00238037.00427246z"/>
          <path fill="rgb(129,122,116)" fill-rule="evenodd" d="M6.54938742 98.13498012c.1719267 1.05887647.71210904 2.26939237 1.58020651 3.57002542 1.5765171 2.36210905 4.16006198 4.8420636 7.58774485 7.18164337 8.0813798 5.5170757 20.5294635 10.0220665 35.34406772 10.29415097-3.5659708-22.2277408 10.52941467-46.37826956 13.40802588-51.02276865-7.32491966-8.95365841-18.08958874-20.31968352-25.93033192-20.89764637-7.11536093-.52423917-7.44662692 6.4537741-7.86912996 15.37623813-.32110926 6.77871574-2.15904522 29.27334193-15.3799093 30.42233555-2.44525695 2.13681618-5.44054047 4.14798827-8.74067378 5.07602158"/>
          <path fill="rgb(255,255,255)" fill-rule="evenodd" d="M225.50220793 254.08790125c.23178203-.22182682.46356405-.44625318.69274179-.67241255.93580907-.92023471 1.84557522-1.86559824 2.7093322-2.82049339-1.69365816-.9280333-3.68420566-1.74601971-4.54535836-1.05887647-.67711602.54070288.17709189 2.65845582 1.14328437 4.55178241"/>
          <path fill="rgb(255,255,255)" fill-rule="evenodd" d="M233.23001163 245.08831775c.70489515-1.07967273 1.29259714-2.12815107 1.72838207-3.11943968-1.14936106-.67067954-2.55047038-1.27983679-3.0557031-.63428607-.56513146.72267019.29515314 2.31271792 1.32732103 3.75372575"/>
          <path fill="rgb(255,255,255)" fill-rule="evenodd" d="M216.07466939 261.52949793c1.2353027-.73393484 2.59647954-1.6740993 4.01147842-2.76417017-1.55823497-1.40894692-3.48627945-2.83089152-4.37607936-2.20787009-.94883054.66201442-.35244757 3.01372534.36460094 4.97204026"/>
          <path fill="rgb(255,255,255)" fill-rule="evenodd" d="M156.91295857 362.31094294c2.5079336.54732302 5.50807846.92201972 8.71743481 1.11597088-.37067762-4.0180636-1.31256338-10.19568065-3.58350636-9.87585144-2.9862553.42043115-4.48459154 5.55104293-5.13392845 8.75988056"/>
          <path fill="rgb(255,255,255)" fill-rule="evenodd" d="M172.36335738 363.57077198c2.24055957-.03554428 4.48893202-.15401367 6.6600438-.35608404.69274178-.06465039 1.37767069-.1387804 2.04957813-.22136757-.56079096-3.79199955-1.80043415-9.91407324-3.89688955-9.18906346-3.11560183 1.07733315-4.33961926 6.2926897-4.81273238 9.76651507"/>
          <path fill="rgb(255,255,255)" fill-rule="evenodd" d="M187.6722563 361.74940047c.31859177-.08698904.62937066-.17701954.93233668-.27010015 2.33170981-.71721984 4.06964095-1.56544748 4.86829062-2.5260616.19184955-.23153175.28994456-.44651314.27258261-.63532589-.18750905-2.00588637-.34897518-4.0042341-.48873888-5.99556308-.3064384-.38854354-.63197496-.68575682-.95317102-.84207541-.12674223-.06100238-.25261637-.08093213-.36373284-.04063937-3.06698837 1.11459313-3.99151218 6.72187262-4.26756717 10.3097655"/>
          <path fill="rgb(255,255,255)" fill-rule="evenodd" d="M92.61992359 363.42691382c3.20935635-.19395116 6.20950122-.56864786 8.71830291-1.11597088-.6493369-3.20883763-2.14767314-8.3394494-5.13392845-8.75988056-2.27181108-.31982921-3.21369684 5.85778783-3.58437446 9.87585144"/>
          <path fill="rgb(255,255,255)" fill-rule="evenodd" d="M77.17759809 362.99332037c.6724283.08327171 1.3564023.15671718 2.04983856.22136757 2.1712854.20173243 4.41948423.32020182 6.659957.35608404-.4737208-3.47451857-1.69721737-8.68978847-4.8128192-9.76651507-2.09636859-.72500978-3.33644582 5.39706391-3.89697636 9.18906346"/>
          <path fill="rgb(255,255,255)" fill-rule="evenodd" d="M64.99367645 352.32234975c-.13932965 1.99132899-.30140344 3.9889835-.4889125 5.99556308-.0170147.18881275.0809935.40379414.27292985.63532588.79856286.96061413 2.536494 1.80849516 4.86846424 2.5260616.30348688.09308062.61443939.18311112.93285754.27010016-.27631542-3.58789288-1.20075242-9.19517237-4.2679144-10.3097655-.11189777-.04029276-.23733786-.020363-.36312518.04063937-.32180373.15631859-.64707986.45353187-.95429955.84207541"/>
          <path fill="rgb(158,151,145)" fill-rule="evenodd" d="M258.9595526 297.11207993c-.65541359.77310114-1.32992532 1.48935915-2.02006281 2.1497272-3.87258282 3.70667421-8.2399812 5.68708516-12.90426892 6.177877-4.54188598.47727427-9.29471964-.49079184-14.0822772-2.67188674-5.8388236-2.65949564-11.75056738-7.14637637-17.38104758-13.00849675-2.61991817-2.72751676-5.20945293-5.22722776-7.77988955-7.33128983-1.19276592-.97742443-2.38553185-1.87339683-3.58177017-2.67232-.1371594 2.11775295-.27779119 4.24096491-.42015917 6.37162887 1.4393056.7315086 2.85864497 1.58580182 4.26062239 2.54537613 1.97665794 1.3515839 3.9133834 2.90012575 5.82406594 4.59623443 6.08970377 5.40555572 12.9112137 9.785509 19.67282491 12.15558995 4.87002682 1.70659346 9.69925306 2.36427533 14.16561455 1.5877948 4.3248616-.75178497 8.37280012-2.89535994 11.85387098-6.80349796.82990119-.93149935 1.62855086-1.96212756 2.39247664-3.0967371"/>
          <path fill="rgb(129,122,116)" fill-rule="evenodd" d="M265.09613364 267.70772153c-2.68589358 2.38290532-5.20858484 4.62023678-5.54106617 8.45021551-.21615627 2.48861966.86983367 4.84293012 2.60168813 6.52656104 1.01480594.98582959 2.24229577 1.73492837 3.55572724 2.1427951 1.2361708.38412434 2.54699798.45656467 3.80660742.12009844 2.02093091-.53914316 4.01321461-2.16757733 5.5627686-5.28095144 1.60337603-3.21908846 1.46882092-7.28475818.52693516-11.2239173-.7908368-3.301407-2.11468544-6.4529076-3.48888374-8.99351792-1.8160599 3.63847979-4.47591056 5.99885582-7.02377664 8.25871657"/>
          <path fill="rgb(87,80,74)" fill-rule="evenodd" d="M210.55443756 58.46003985c-5.54019806-5.93733354-8.67576613-13.23248985-11.43892039-19.66026863-3.58524256-8.34103512-6.39874646-14.88579289-13.37477775-12.20740731-2.37858707.91330262-4.76238273 3.2546154-7.02898523 6.34892627-2.79266957 3.81264851-5.30581175 8.66337722-7.43265056 13.49937525 2.82392108 4.82819943 5.89611803 9.23960705 10.40154391 11.35129442 3.62864744 1.70009463 8.29033086 4.56911263 12.69071695 8.49440757 2.45758394 2.1922729 4.8422477 4.72075206 6.9387031 7.5698403 3.79098165-4.15232082 6.6565714-9.50042686 9.24436997-15.39616787"/>
          <path fill="rgb(158,151,145)" fill-rule="evenodd" d="M167.49767104 39.81445563c1.8533881-3.79705131 3.93074536-7.46152643 6.19213927-10.5480387 2.91246702-3.9764191 6.19908405-7.07159647 9.83207197-8.4658127 12.56137042-4.82126735 16.4131189 4.14192269 21.3239463 15.56600403 1.38982406 3.23295263 2.88208361 6.7041958 4.72939503 10.03073162-1.10595618-2.71824508-1.97318555-5.6981765-2.83954683-8.94932586-1.4393056-5.3992302-3.55138676-12.82089711-7.43959533-18.1170125-3.51666286-4.79093945-8.70962194-7.89044938-16.6579224-5.83335221-3.86563804.99995372-7.76947237 3.70433463-11.48406145 7.2630954-3.32481332 3.18442802-6.46993046 7.03866906-9.3060049 10.99862444.57468052.64901675 1.1346034 1.32749489 1.6797686 2.03456788 1.46448044 1.90632426 2.7492647 3.94089214 3.96980974 6.0205186"/>
          <path fill="rgb(87,80,74)" fill-rule="evenodd" d="M256.22330937 7.38874659c-1.16064632.60655771-1.87682673 1.8162071-2.19020992 3.20782381-.20921149.92976633-.25001207 1.9496498-.1345551 2.96693375.11372076 1.01121836.37935859 1.98344373.78389201 2.82569245.72920188 1.51986033 1.95321931 2.62639491 3.54965056 2.56920518.42015918-.04245904.84986743-.06498832 1.29172904-.06412181.52259468-.30154584.53387995-2.34564534.18750906-4.87672405-.11111648-.81278734-1.40024123-7.24316565-2.235351-7.00487512-.42363156.12044504-.83945025.24608913-1.25266465.37606579"/>
          <path fill="rgb(255,163,163)" fill-rule="evenodd" d="M158.59967196 138.68596303c-3.40728258-2.60819818-6.98037178-3.1211727-9.63761814-3.00679325.57381243 2.00337349.33334943 4.17571663-.25001207 6.28653748-2.2327467-3.30833909-5.37091906-5.51534267-8.91102055-6.77005063-2.2987221-.81538688-4.76585512-1.23997728-7.27465682-1.31449723 5.47422266 6.00665443 11.18456783 11.14766433 18.10243659 10.93190309 3.31179185-.1022483 5.85184506-2.77023575 7.97087099-6.12709946"/>
          <path fill="rgb(255,255,255)" fill-rule="evenodd" d="M104.7732882 88.72293737c4.30229107-.80672176 9.10634248-.47484804 13.19681777.96182724.57034004-1.15072664 1.02261882-2.45742526 1.3403425-3.88803497.4470702-2.01897068.6189535-4.28749654.46964073-6.72325903-.28039548-4.56997915-1.69799866-8.67290885-3.76320254-11.6095147-1.80217035-2.56313962-4.03491705-4.14798828-6.27113614-4.14798828l-.29341695.00173302c-1.91241873.11697899-3.66250323 1.47393525-4.98721997 3.62808166-1.56691594 2.5466759-2.50272502 6.10283714-2.50272502 10.14424456 0 .6056912.01475766 1.14639409.04340488 1.6186426.133687 2.1697436.53301185 4.25630215 1.14415247 6.17995662.4435978 1.39594926.9922354 2.68358464 1.62334227 3.83431128"/>
          <path fill="rgb(255,255,255)" fill-rule="evenodd" d="M166.67818703 80.1176164c.20226671-1.14466107.3125151-2.39503648.3463709-3.67400675.07639257-2.92880726-.25174827-5.94339912-.82208831-8.25525053l-.00868098-.03466044c-1.0972752-4.4330704-3.07219695-8.15213572-5.37699574-10.57836659-1.84731142-1.94445073-3.79705834-2.96953328-5.43255398-2.63419351l-.11719316.02686184c-1.47316141.36306812-2.6789488 1.94618376-3.4671813 4.23810542-.98355444 2.85688685-1.23183032 6.61494516-.56947195 10.62429167 1.21620456 1.2729047 2.49317594 2.45395922 3.7823007 3.52496685 3.55312294 2.95740212 7.59064429 5.24152518 11.66549382 6.76225203"/>
          <path fill="rgb(209,204,198)" fill-rule="evenodd" d="M193.14995134 209.87417624c-2.14506885-10.61302703-5.53064899-20.72347766-10.46665122-30.39634023 6.8336633 3.29707445 12.34087367 14.88059383 15.1821567 24.02661769 2.07996154-1.94358423 4.43858237-3.14890107 7.0741263-3.23381915-.0399325.06758786-14.06057476 23.304814-12.06915916 37.30936518.79604538 5.60112726 3.51058618 10.70401068 6.77636887 14.87366173 3.39078872 4.32822257 7.26250345 7.58717053 10.19059622 9.35312-.84552694-3.56222683-1.01827833-8.0091614 2.31174357-10.3357435 1.94193404-1.35695627 4.12953967-1.3274949 6.2181822-.64728374-.23178203-2.35517696.22570533-4.6219698 2.11555353-6.131432 1.56952023-1.25384146 3.500169-1.54412265 5.44383925-1.32922792-.45401498-2.01723766-.30470221-4.08386645 1.07470467-5.84894941 1.87335434-2.3967695 4.3587174-2.80402968 6.67827385-2.41929878-5.17559713-5.92953494-16.68136102-10.22829613-16.71955731-10.24302682 2.6112372-1.83007128 5.96903822-1.69316254 9.35982694-.54503543.9957078-2.42536436 2.18500134-6.88096405 2.88034742-11.46567388.60680013-4.0015479.80819874-7.94763911.10938028-10.39033369-.69534608-2.4288304-6.16436015-9.34705442-12.97805721-17.21584103-9.45010908-10.91543937-21.33175918-23.35073908-27.0941902-28.66071864-2.4063662-2.2165352-5.54453856-3.91316379-8.85025373-5.20946428-3.98803979-1.5640524-8.2078616-2.53974381-11.74015021-3.143702-3.23973977 4.4789955-7.70696936 8.07328322-14.43125238 9.1087639-4.46028481.68627672-14.03279563-.42285739-22.71637465-3.34473256l-.0008681.00693209c-2.1251026-.13690874-5.39522578.0398595-9.34593738.25475424-9.8911026.53550381-23.81017746 1.2885019-36.90542783-1.78154667-1.09701478.52077313-2.14715229 1.08747134-3.12376194 1.70096114-1.14449971.71920415-2.21738138 1.51986034-3.18149043 2.40803414-4.59718378 4.23550589-12.7151973 14.85199896-20.25002292 25.63486214-8.48365617 12.14068596-16.13984182 24.31516586-17.09136346 27.63996866-.33708225 1.17758848-.62225227 2.3499779-.85524963 3.51023616-1.32011583 6.57681867-.83346038 12.32178676 1.30865694 16.74099299 2.04775513 4.22424124 5.69003169 7.29602282 10.77960036 8.74742879.56634679.16117105 1.1675911.30587839 1.80130225.4332555 7.05198982 1.41067996 16.45791274 2.05449765 25.40513295 2.1454813 10.57551065.10744737 20.45272368-.53983636 25.02933356-1.59351377 2.59561144-.5978926 4.83617101-3.16623128 6.5949365-6.6097461 1.79001698-3.50417058 3.01056203-7.81592943 3.60954928-12.02024092.59377867-4.1653185.57728482-8.15386874-.09722692-11.0740109-.38456718-1.66283465-.88806371-2.8066292-1.48791906-3.11164108-6.74077687-3.43051715-57.31283683-3.4027888-57.4558993-3.39845624.72564269-1.55452078 2.42355453-2.76157063 4.81585755-3.6783393 2.24385834-8.568061 4.74467354-16.87790173 14.5196247-20.46265784-1.98169292 3.88370242-3.67786857 7.742276-5.12073337 11.58265287-.89631064 2.38637136-1.70676644 4.78833992-2.4384858 7.20417265 15.04725434-2.200938 39.7453219.60655772 48.50789778 3.20349126 2.38292756 1.21224892 3.93682204 3.8360443 4.73113122 7.27349354.84379075 3.65234396.8915361 8.45194853.19445384 13.33733768-.6901375 4.84466314-2.11555354 9.8487643-4.21895372 13.9672912-2.54526178 4.9833049-6.13918532 8.78208924-10.76354055 9.84703128-4.97506662 1.14552758-15.4226197 1.85173406-26.46855236 1.73908763-6.09873198-.06152228-12.39955705-.3691337-18.0882866-.98349001.02474079 12.81829758.91115511 26.1027781 1.81927188 39.71947893 1.2637763 18.93326589 2.56870042 38.51060941 1.6734315 58.8594077.97391855-.11741224 1.9905475-.00909836 3.03669176.37069342 2.87722226 1.0455322 4.78026554 3.46942349 6.0373575 6.2574227 1.88299022-3.17697601 4.63685583-5.29715519 8.62871525-3.91723638 2.61002186.90273119 4.48893202 2.89371357 5.84142789 5.25157671 1.60511222-3.59160154 4.13474825-6.35733143 8.11757946-5.7968721 6.15481107.86651103 8.94314015 8.02709818 10.11941223 12.70868394.07899687-.05822954.15625754-.1174989.22830963-.1773748 3.00622155-2.48853302 3.66944802-12.43547302 4.38736463-23.20759147.62329398-9.36447129 1.28565235-19.29850028 3.8439356-26.7596801-7.81548154-1.73406186-14.15519738-5.24741746-16.21432458-10.63200362.08854594.03959956 30.82614123 14.08756293 59.41866767-5.00106838.58075721 7.57044687-6.70605297 12.68494154-16.38968027 15.16870874 2.69283836 7.50953114 3.37082248 17.66330732 4.00713793 27.22404336.71704851 10.77211845 1.38027498 20.71905845 4.38649653 23.20759146.07205209.05987592.15018086.11845206.22917773.17737481 1.17627207-4.68158576 3.96460115-11.84217291 10.11854413-12.70868394 3.9828312-.56045933 6.51333534 2.20527056 8.11844756 5.7968721 1.35249587-2.35786314 3.2310588-4.34884552 5.8414279-5.2515767 3.99151217-1.37991882 6.74511735.74026036 8.62802077 3.91723638 1.25787324-2.78799922 3.1598748-5.21189051 6.03761792-6.25742271 1.04605745-.37979178 2.06259959-.48810566 3.03660495-.37069342-.89587659-20.34810508.40974201-39.92518865 1.67369193-58.85845453.64760071-9.71228882 1.28478426-19.25604124 1.60163984-28.41073021-.46964074-.54503544-.93233669-1.10653458-1.38374737-1.68363092-3.85956137-4.92611518-7.0758625-11.02548628-8.04465928-17.8423285-.81774782-5.74410158 1.38635166-19.257341 6.44822802-28.55847034"/>
          <path fill="rgb(158,151,145)" fill-rule="evenodd" d="M142.45129395 309.493042c6.9395752-1.7800293 12.64733886-4.91101075 15.1118164-9.32824708.0008545 0-1.03381347 21.9251709 3.0244751 47.33691406-5.73376465 1.23474122-8.37713623 8.07556153-9.51348877 12.6003418-.0789795-.05895996-.1571045-.11755371-.22918701-.17736816-3.00622559-2.4885254-3.6694336-12.4354248-4.38647461-23.2076416-.6362915-9.56066895-1.31433106-19.71447754-4.00714111-27.22399903zm-35.27423096 50.60900878c-1.15112305-4.57971191-3.84484863-11.5300293-9.72271729-12.64160156 2.39245606-7.38916016 4.34222412-14.88439942 4.74243164-20.6060791 1.17016602-16.74389649-.40802002-23.77050782-.40802002-23.77050782l.00170899.00109864c3.0244751 3.30285644 8.02557373 5.58154297 13.8461914 6.87243652-2.55828857 7.46118164-3.22064208 17.39526367-3.8439331 26.75964356-.71795654 10.7722168-1.38116455 20.7191162-4.38739014 23.2076416-.07202148.05981445-.14929199.11914062-.22827148.17736816z"/>
          <path fill="rgb(209,204,198)" fill-rule="evenodd" d="M182.6833496 179.47790527c1.22229005 2.39672852 2.34991456 4.81945801 3.38732911 7.27087403-11.60650635-22.40881348-39.69293213-25.29174805-68.95214844-23.73461914-17.73175048.944458-32.74084472-.97216797-41.8151245-2.62902832 1.36248778-1.5510254 2.59216308-2.84643555 3.6385498-3.81091309.96411132-.8881836 2.0369873-1.68884277 3.18145752-2.40795898.97662353-.6135254 2.02679443-1.18017579 3.1237793-1.7010498 13.09527587 3.07006835 27.01434325 2.31713866 36.90545654 1.7816162 3.95068359-.21496582 7.2208252-.39172363 9.34588623-.25476074l.00091552-.006958c8.68353272 2.921875 18.25604248 4.03100585 22.71636963 3.34472655 6.72424317-1.03540039 11.19152832-4.62976074 14.43127442-9.10876464 3.53222656.6040039 7.7520752 1.57971191 11.7401123 3.14367675 3.3057251 1.29638672 6.4439087 2.99291993 8.85028076 5.20947266 1.91326905 1.76342773 4.50195313 4.31347656 7.4517212 7.33068848-1.92108155.03125-3.8656006 1.10314941-4.86309815 4.75634765-1.46270752 5.352417 7.6218872 25.45202637 10.6967163 32.01489258-1.41241454.43334961-2.73193359 1.19494629-3.9611206 2.21398926-.34985351-.1784668-.71881103-.39855957-1.10510254-.6628418-2.94195556-8.9173584-8.2546997-19.60314941-14.7732544-22.74938965zm37.90460206 44.03857422c1.80645752-.2019043 3.76403809.12390137 5.73199463.7902832.99572754-2.42541503 2.1850586-6.88098144 2.8803711-11.46569824.60681152-4.00146484.80822753-7.94763183.109375-10.39025879-.64758302-2.26245117-5.43603516-8.41821289-11.59429932-15.609375 0 0 8.44049072 15.50268555 7.46478271 20.46789551-.76916504 3.91748047-3.4819336 12.68310547-4.59222412 16.20715332zm-27.7175293 14.06347656c-.8585205-6.03869628 1.25964356-13.79309082 3.95074463-20.66711425-.1362915.45141601-5.17822265 17.37963867 2.90466309 25.83154297 3.29437256 3.44519043 7.30932617 6.96850586 11.02392578 10.07055664-1.85247803 2.45837402-1.61553955 6.03100586-.91235352 8.99182129-2.92810058-1.76599122-6.79980468-5.02490235-10.19061279-9.35314942-3.26574707-4.16967773-5.98028564-9.27246094-6.77636719-14.87365723zm1.65808106 48.78942872c-1.26397705 18.93322753-2.56958008 38.5102539-1.67370606 58.85839843 0 0-2.49230957-15.06311035-2.49230957-24.60314941 0-2.28430176.0559082-6.75598145.12493897-12.27416992.21923828-17.5300293.57061767-45.62084961-.31939697-47.69360352-.92456055-2.15148926-9.25653077-22.0111084-2.45239258-35.14221191-1.07727051 5.24853515-1.42193604 10.05065918-1.01391602 12.91796875.96881104 6.81689453 4.1850586 12.91625976 8.0446167 17.84240722.45141602.57702637.91412354 1.1385498 1.38378906 1.68359375-.31689453 9.15466309-.95404052 18.69836426-1.60162353 28.4107666z"/>
          <path fill="rgb(158,151,145)" fill-rule="evenodd" d="M182.6833496 179.47790527c1.22229005 2.39672852 2.34991456 4.81945801 3.38732911 7.27087403-11.60650635-22.40881348-39.69293213-25.29174805-68.95214844-23.73461914-17.73175048.944458-32.74084472-.97216797-41.8151245-2.62902832 1.36248778-1.5510254 2.59216308-2.84643555 3.6385498-3.81091309.96411132-.8881836 2.0369873-1.68884277 3.18145752-2.40795898.97662353-.6135254 2.02679443-1.18017579 3.1237793-1.7010498 13.09527587 3.07006835 27.01434325 2.31713866 36.90545654 1.7816162 3.95068359-.21496582 7.2208252-.39172363 9.34588623-.25476074l.00091552-.006958c8.68353272 2.921875 18.25604248 4.03100585 22.71636963 3.34472655 6.72424317-1.03540039 11.19152832-4.62976074 14.43127442-9.10876464 3.53222656.6040039 7.7520752 1.57971191 11.7401123 3.14367675 3.3057251 1.29638672 6.4439087 2.99291993 8.85028076 5.20947266 1.91326905 1.76342773 4.50195313 4.31347656 7.4517212 7.33068848-1.92108155.03125-3.8656006 1.10314941-4.86309815 4.75634765-1.46270752 5.352417 7.6218872 25.45202637 10.6967163 32.01489258-1.41241454.43334961-2.73193359 1.19494629-3.9611206 2.21398926-.34985351-.1784668-.71881103-.39855957-1.10510254-.6628418-2.94195556-8.9173584-8.2546997-19.60314941-14.7732544-22.74938965zm37.90460206 44.03857422c1.80645752-.2019043 3.76403809.12390137 5.73199463.7902832.99572754-2.42541503 2.1850586-6.88098144 2.8803711-11.46569824.60681152-4.00146484.80822753-7.94763183.109375-10.39025879-.64758302-2.26245117-5.43603516-8.41821289-11.59429932-15.609375 0 0 8.44049072 15.50268555 7.46478271 20.46789551-.76916504 3.91748047-3.4819336 12.68310547-4.59222412 16.20715332zm-27.7175293 14.06347656c-.8585205-6.03869628 1.25964356-13.79309082 3.95074463-20.66711425-.1362915.45141601-5.17822265 17.37963867 2.90466309 25.83154297 3.29437256 3.44519043 7.30932617 6.96850586 11.02392578 10.07055664-1.85247803 2.45837402-1.61553955 6.03100586-.91235352 8.99182129-2.92810058-1.76599122-6.79980468-5.02490235-10.19061279-9.35314942-3.26574707-4.16967773-5.98028564-9.27246094-6.77636719-14.87365723zm1.65808106 48.78942872c-1.26397705 18.93322753-2.56958008 38.5102539-1.67370606 58.85839843 0 0-2.49230957-15.06311035-2.49230957-24.60314941 0-2.28430176.0559082-6.75598145.12493897-12.27416992.21923828-17.5300293.57061767-45.62084961-.31939697-47.69360352-.92456055-2.15148926-9.25653077-22.0111084-2.45239258-35.14221191-1.07727051 5.24853515-1.42193604 10.05065918-1.01391602 12.91796875.96881104 6.81689453 4.1850586 12.91625976 8.0446167 17.84240722.45141602.57702637.91412354 1.1385498 1.38378906 1.68359375-.31689453 9.15466309-.95404052 18.69836426-1.60162353 28.4107666z"/>
          <path fill="rgb(255,255,255)" fill-rule="evenodd" d="M93.90991643 198.0099073c9.42580235.7391339 18.11198566 2.12641805 22.60699437 3.45824549 2.38292756 1.21224892 3.93682204 3.8360443 4.73113122 7.27349354.84379075 3.65234396.8915361 8.45194853.19445384 13.33733768-.6901375 4.84466314-2.11555354 9.8487643-4.21895372 13.9672912-2.54526178 4.9833049-6.13918532 8.78208924-10.76354055 9.84703128-4.86568633 1.12039876-14.96513232 1.82053967-25.74013177 1.7451532 3.47204265 25.38704 22.9483303 41.01603939 46.45640984 41.01603939 25.9621911 0 47.0092143-19.06298258 47.0092143-49.278222 0-30.21610593-21.0470232-60.14279717-47.0092143-60.14279717-12.99455106 0-24.7581399 7.49791989-33.26636323 18.77642738"/>
          <path fill="rgb(0,0,0)" fill-rule="evenodd" d="M253.61468506 1.70019531c.81170654-.37524414 1.71014404-.65258789 2.69543457-.8128662 3.32391357-.77722169 5.92736816 1.59960937 7.61236572 5.28833007.93408203 2.04760742 1.62243652 4.57177734 1.95751953 7.0144043.34466553 2.51721191.32037354 5.04663086-.1866455 7.01696777-.79431153 3.09606934-2.61987305 5.07788086-5.76586915 4.913208-6.61486816-.35009765-10.18969726 10.8018799-14.95037841 25.65734864-7.43786621 23.21044922-17.4730835 54.51220703-48.39031983 69.88330078-5.30932617 5.74145508-11.47106933 10.83129883-16.50518799 14.9897461-3.52789306 2.91491699-6.46209716 5.33862304-7.86669921 6.9086914 3.27880859.6697998 6.9187622 1.63256836 10.4397583 3.01367188 3.9567871 1.55114746 7.7703247 3.63415527 10.80090332 6.42700195 5.87695312 5.41564941 17.97564697 18.0744629 27.58203125 29.17016602 7.33453369 8.47192382 13.30358886 16.20117187 14.26977539 19.57714843.97052002 3.3914795.78302002 8.26293946.0616455 13.01843262-.77349853 5.10119629-2.20324707 10.25512695-3.45593261 13.24804688 4.79974365 2.96264648 8.77648926 6.99108886 9.52655029 8.86352539.756958 1.88989257.72485352 4.0102539.08331299 6.25195312-1.38549805 4.84033203-5.88134766 10.71520996-10.9640503 15.71582031-5.01586913 4.93481446-10.7401123 9.14953614-14.63354492 10.70410157-1.86724853.74511718-3.56005859.98083496-4.95159912.58483886-2.12683105-.60656738-5.40222168-2.47473144-8.85461426-5.31604004-.1362915 2.97729493-.296875 5.95385743-.47314453 8.93640137 2.3994751 1.3100586 4.75982666 2.9650879 7.09588623 4.88012695 2.80914307 2.29968262 5.56622315 4.95471192 8.31634522 7.81738282 5.10876465 5.31811523 10.37634277 9.34570312 15.47906494 11.66967773 3.78057861 1.72253418 7.4517212 2.49523926 10.86334229 2.13659668 3.2892456-.34606933 6.4083252-1.77978516 9.22357177-4.4744873 1.95147705-1.86767578 3.7658081-4.33081055 5.40386963-7.44421387l-.2109375-.2010498c-2.99664306-2.91125489-4.86657715-7.05688477-4.47937012-11.51599122.546875-6.29431152 3.96893311-9.32971191 7.61407471-12.56347656 3.0079956-2.66796875 6.2164917-5.51367187 6.9821167-11.07922363.22918701-1.70007324 1.79608154-2.89245606 3.49926758-2.66455078.72485351.0970459 1.35772705.43676758 1.82824707.92541504 2.56176758 2.6706543 6.65478516 9.50134277 8.39361572 16.76611328 1.24487305 5.20080566 1.34381104 10.72229004-.98962402 15.40917968-2.44976807 4.9182129-5.89697266 7.57092286-9.53778076 8.54260254-.74914551.20007325-1.50354004.32666016-2.25531006.38623047-2.11553955 5.40966797-4.70513916 9.69750977-7.64794922 13.00134278-4.48632813 5.03564453-9.77044678 7.80908203-15.46258545 8.79919433-5.54797363.96472168-11.4232788.19055176-17.26208496-1.85559082-7.5828247-2.65734863-15.12139893-7.4711914-21.76928711-13.37231445-1.74487305-1.54846192-3.47497559-2.9366455-5.19030762-4.10949707-.40283203-.27575684-.80474853-.53979492-1.20666504-.79272461-1.36206054 20.84265137-2.47930908 42.45202637-.39501953 64.74291992.18231201 1.94970703-.42016601 3.66748047-1.66241455 5.16186524-1.61895752 1.9486084-4.3864746 3.4345703-7.84234619 4.49768066-3.0939331.95117187-6.85192871 1.60620117-10.8494873 1.97851562-12.50061036 1.16467286-27.75915528-.57714843-32.71252442-4.67749023-5.07055664-4.19726563-5.81976318-15.43774414-6.6305542-27.61193848-.63891601-9.58410644-1.32037353-19.8034668-3.9897461-26.4194336-4.69122314.62927247-9.64196776.7196045-14.3531494.25549317-2.58605958 6.62243653-3.25799561 16.70202637-3.8881836 26.16394043-.81085205 12.17419434-1.55999756 23.41467285-6.6305542 27.61193848-4.95336914 4.1003418-20.21276855 5.84216309-32.71295166 4.67749023-3.9979248-.37231445-7.75488281-1.02734375-10.8491211-1.97851562-3.45684814-1.06311035-6.22357177-2.54907227-7.84240722-4.49768066-1.24212646-1.49438477-1.84436035-3.2121582-1.66290283-5.16186524 2.2925415-24.52038574.71148682-48.21618652-.80706787-70.9753418l-.00152588-.02270507c-.930542-13.94958497-1.83746338-27.54577637-1.81915283-40.95422364-.7786255-.13171386-1.5357666-.26940918-2.26861573-.41589355-.76831054-.15332031-1.53302002-.33959961-2.28887939-.55541992-6.8861084-1.96350098-11.84814453-6.19030762-14.68103027-12.03320313-2.73791504-5.64794922-3.41033936-12.74121094-1.8203125-20.65844726.25939941-1.29370118.58526611-2.62817383.97698974-3.99731446 1.11871338-3.90795898 9.16589356-16.85620117 17.99395752-29.48901367C61.36132812 167.54431152 69.8045044 156.53186035 74.72351074 152c.769104-.7088623 1.59381104-1.37524414 2.46191406-2-7.67590332-2.9650879-14.6651001-7.6772461-19.85058593-15.06860352-2.12921143-3.0345459-3.68371582-6.23535156-4.76916504-9.52636718-16.8557129.01818847-31.13824463-5.08813477-40.35943604-11.38342285-4.09561157-2.7952881-7.25604248-5.868042-9.2696228-8.88427735-2.27703857-3.41149902-3.15634155-6.85754394-2.40353394-9.96228027.54086304-2.22949219 1.87588501-4.16967774 4.07803345-5.68347168 5.34146118-3.67053223 8.11434937-7.29943848 9.48428345-11.25598145 1.41647339-4.08911132 1.4517212-8.80029297 1.26794434-14.32250976-.20349122-6.09594727-.33544922-14.54187012 2.21765136-21.76940918 2.76678467-7.83325196 8.44934082-14.07641602 19.88421631-14.53051758 7.15026856-.2833252 24.04803467 8.30114746 35.08740234 18.80163574 2.77832032-6.53967285 10.62744141-19.49572754 29.10858155-19.08666992 19.99139404.44274902 24.25030517-.88879395 31.93121338-3.29016113l2.01745605-.62390137c5.28674317-1.62561035 10.4015503-1.39941406 15.12310791.38989258 2.29180908.86914062 4.47766113 2.10302734 6.53240967 3.66882324 2.90814209-3.99987793 6.1348877-7.89562988 9.5734253-11.19006348 4.42468261-4.23901367 9.23046874-7.49975586 14.23852538-8.7960205 11.07519532-2.86633301 18.32293701 1.46960449 23.24072266 8.16955566 4.5470581 6.1920166 6.86834717 14.31555176 8.43963623 20.21044922.80126953 3.00500488 1.59991455 5.75195312 2.61035156 8.23010254.16583252.40466308.336792.80151367.51477051 1.19055176 7.0515747-17.79467774 15.38793945-36.26086426 37.73187256-43.5871582zm.418396 8.8963623c.31341552-1.39160156 1.02960205-2.60119628 2.19024658-3.20776366.413208-.13000489.82897949-.25561524 1.2526245-.37609864.83514405-.23828125 2.12426759 6.19213867 2.23535157 7.00488282.34637451 2.53112792.335083 4.5751953-.1875 4.87670898-.4418335-.0008545-.87158203.02172852-1.29174805.06420898-1.59643554.05712891-2.82043457-1.04943847-3.54962158-2.56921386-.40454101-.84228516-.67016601-1.8145752-.78387451-2.82580567-.11547852-1.01721191-.07470703-2.03710937.13452148-2.96691894zm-72.75091553 78.22265626c-2.13031006 1.53796386-5.24157715 6.43383789-4.52886963 10.07922363-2.98101807-2.10046387-2.24487305-6.6574707-.8125-10.38085937-1.05822754-.10998536-2.14337158-.24865723-3.26062012-.42199708-4.3569336-.67663574-8.92578125-2.18444824-13.27667236-4.43566894-4.5314331 1.26257324-7.94830322 8.96069336-7.9578247 8.98400879-2.6425171-3.94689942.01733398-8.6616211 3.18853759-11.81750488-1.23706055-.83789063-2.4393921-1.73815918-3.59570313-2.69995118-6.04278564-5.02844238-10.45965576-13.20910644-7.3796997-20.63171386.34204101 1.18200683.78735351 2.33789062 1.31604004 3.46435547.21270752-1.34228516.52349853-2.6081543.92456054-3.77368165 1.45666504-4.23376464 4.1295166-7.2803955 7.7711792-8.22485351l.00518799-.00610352c.10595703-.02941894.21185303-.05371093.31860352-.0727539 3.9342041-.8717041 7.96826171.86730957 11.3330078 4.41052246 3.0097046 3.16796875 5.55151368 7.8774414 6.91357423 13.37719726l.0078125.03466797c.6875 2.78845215 1.08422851 6.39831543.99310302 9.88513184-.046875 1.7911377-.222229 3.56652832-.55297851 5.21289062.31512451.05810547.6293335.1126709.9418335.16027832 10.1619873 1.57971192 17.440979-.13684082 22.99682617-3.9798584-1.89770508-2.66271972-4.10961914-5.02746581-6.4005127-7.0706787-3.90124512-3.48083497-8.00213623-6.00927735-11.18023682-7.4987793-7.31109619-3.42529297-11.1533203-10.24914551-15.0059204-17.09020996-1.73620606-3.08215332-3.4749756-6.17041016-5.46295167-8.75610352-2.93066406-3.81091308-6.34143066-6.5447998-10.03955078-7.94592285-3.44805908-1.30749512-7.2008667-1.46704102-11.0994873-.2677002l-1.99401856.62390137c-8.27929687 2.58862305-12.86785888 4.02319336-33.90612793 3.55700684-18.94537353-.4194336-23.87896728 16.6586914-24.23571777 17.99572754 3.3283081 4.14013672 5.46221924 8.39904785 5.54974365 12.39538574-.29528808-.33618164-27.07556152-30.82324219-45.14343261-30.1060791-8.20220948.32580566-12.27374268 4.79187011-14.2524109 10.39294433-2.19195556 6.20507813-2.06277465 13.92138672-1.8762207 19.50695801.20547486 6.15820313.1434021 11.47509766-1.609375 16.53735352-1.7986145 5.19384765-5.26864624 9.84094238-11.82513427 14.34680175-.87554932.60131836-1.38693238 1.29284668-1.5663147 2.03283692-.325531 1.3413086.23635864 3.10290527 1.54968262 5.0690918 1.57653808 2.36206054 4.1600647 4.84204101 7.58773803 7.18164062 8.08139038 5.51708984 20.52944947 10.02209473 35.3440857 10.29406738C47.49542237 96.953125 61.5908203 72.8026123 64.46942139 68.15808105c-7.32489014-8.95361328-18.08959961-20.31970214-25.93035889-20.89770507-7.11535645-.52416993-7.44659424 6.45385742-7.86907959 15.37634277-.33911133 7.16430664-2.37036133 31.88757324-17.7454834 30.40844727C23.3612671 85.36694336 23.96252441 72.69506836 24.45257568 62.34375c.59204102-12.5036621 1.05627442-22.28234863 14.5253296-21.28930664 6.80163574.50170898 33.01141357 19.58312988 33.67132568 37.8873291-.015625-.024292-1.56054688-2.27368164-4.06207276-5.56213379-5.1472168 8.85839844-20.1083374 38.1126709-6.15673828 57.99816895 12.9017334 18.38916015 40.33410645 17.66381836 57.3400879 16.77307129-3.3378296-2.54492188-5.55664063-5.60888672-5.73638917-9.19628907.29022217.18188477 23.3918457 14.65661621 39.23022461 12.21789551 9.47180176-1.45837402 13.29400635-11.14074707 16.28204346-18.71057129.44702148-1.13427734.88024902-2.22875976 1.31689453-3.2677002-.96185303 1.26513673-2.06695557 3.49035645-3.27270508 5.92004395-3.5349121 7.12182617-7.75561523 15.62402344-16.79077148 15.90478516-11.2322998.35009766-18.77783203-8.24401856-26.25909424-16.76611328-3.9003296-4.44262696-7.7833252-8.86437989-11.95892334-11.57739258-1.20751953-.69677734-1.83599854-2.1463623-1.4366455-3.54577637.4713745-1.65332031 2.19628905-2.61169433 3.85260009-2.14123535 12.80267334 3.67321777 23.80926514 5.59338379 33.45471191 6.22851563 9.57861328.63085937 17.8359375-.0008545 25.18786621-1.43493653 44.86065674-8.75085449 56.92028809-46.38000488 65.41204834-72.87792969 3.80743409-11.8798828 6.97076416-21.74511718 12.18371582-26.65466308-.86724853-.91247559-1.59124755-1.993042-2.16156005-3.18273926-.71618653-1.49389648-1.17974854-3.15063476-1.36901856-4.82214355-.118042-1.04064942-.13104248-2.10302735-.0355835-3.15063477-15.02331542 8.55859375-21.32739257 24.59509277-27.21484375 39.57617188-7.85369873 19.98779296-15.0406494 38.26245117-39.1729126 38.14904785zm-7.5923462-59.55285645c-2.26141357 3.08654785-4.33874511 6.75109863-6.19213867 10.5480957-1.22058105-2.07958984-2.50537109-4.11413574-3.96984863-6.0205078-.54516601-.70703126-1.1050415-1.38562012-1.67974853-2.0345459 2.83605957-3.95996094 5.98120117-7.81420899 9.30603027-10.99865723 3.71453857-3.55871582 7.6184082-6.2631836 11.48400879-7.26306153 7.94830322-2.0571289 13.14129639 1.0423584 16.65795898 5.83337403 3.8881836 5.2960205 6.00030518 12.71777344 7.4395752 18.11694336.86639404 3.2512207 1.73358154 6.2310791 2.83953857 8.94934082-1.84729004-3.32653809-3.33953857-6.7977295-4.72937011-10.03076172-4.911438-11.42553711-8.76361084-20.38684082-21.32397461-15.56591797-3.63293457 1.39416504-6.91955567 4.48937988-9.83203125 8.46569824zm36.86462403 29.19372559c-5.54022217-5.93737793-8.67578125-13.23254395-11.4389038-19.66027832-3.58526612-8.34106446-6.39874269-14.88586426-13.3748169-12.20739746-2.37854004.913208-4.7623291 3.2545166-7.02893067 6.34887695-2.7927246 3.81262207-5.30584717 8.66333008-7.43267822 13.49938965 2.82391357 4.828125 5.89611816 9.23962402 10.4015503 11.35131836 3.6286621 1.70007324 8.29034423 4.5690918 12.69073486 8.49438476 2.45758056 2.19226075 4.84222412 4.72070313 6.93865966 7.56982422 3.79101563-4.15234375 6.65661621-9.50048828 9.24438477-15.39611816zm-43.5298462 17.98364258c-.0338745 1.27893066-.144104 2.52929687-.3463745 3.6739502-4.07489014-1.52075196-8.11236573-3.80480958-11.66552735-6.76220704-1.28912353-1.07104492-2.56610107-2.2520752-3.7822876-3.52502441-.66235351-4.00927735-.4140625-7.76733399.56945801-10.62426758.78826905-2.29199219 1.99401856-3.875 3.46722412-4.23815918l.1171875-.02685547c1.63549805-.33532715 3.58520508.68981934 5.43255616 2.63427734 2.30474853 2.42614746 4.27972412 6.14526368 5.37695312 10.57836914l.00872803.03466797c.5703125 2.31176758.8984375 5.32641602.82208252 8.25524903zM127.19018556 98.1644287c-13.7541504-7.08459473-33.38446045-2.08654785-33.42523194-2.07177734.99395752-2.2598877 2.79699707-4.02148438 5.07055664-5.2944336-.63372802-1.26342773-1.18408203-2.6151123-1.63464355-4.03540039-.75177002-2.36462402-1.24481201-4.95898437-1.41235352-7.68933105-.04516601-.7418213-.06860351-1.4038086-.06860351-1.98352051 0-5.19213867 1.28216553-9.89123535 3.4298706-13.38146973 2.38897705-3.8828125 5.85614014-6.34716796 9.93707276-6.59680175.29083252-.01733399.51135254-.02685547.65893554-.02685547 4.38909913 0 8.41186524 2.59960937 11.3668213 6.80126953 2.69110107 3.82739258 4.53234863 9.0715332 4.88568115 14.82250976.1831665 2.98950196-.0425415 5.83508301-.61633301 8.42687989-.44708252 2.0180664-1.10858155 3.88024902-1.95587158 5.5378418 1.77703857 1.4678955 3.11126709 3.29968261 3.76409912 5.49108886zm-9.22009278-8.47961426c-4.0904541-1.4366455-8.89447021-1.76855468-13.19677734-.96179199-.63110352-1.15075683-1.17974854-2.4383545-1.62335205-3.83435058-.61114502-1.92370606-1.01049805-4.01025391-1.14416504-6.17993165-.02862549-.47229003-.043396-1.01293945-.043396-1.61865234 0-4.04138184.93579102-7.59753418 2.50274659-10.1442871 1.32470703-2.15417481 3.07476806-3.5111084 4.98718261-3.62805177l.29345703-.00170898c2.23620606 0 4.46893311 1.58483887 6.27111817 4.14794922 2.06518555 2.9366455 3.48278808 7.03955078 3.7631836 11.60949707.14935302 2.43579101-.02258302 4.7043457-.4696045 6.7232666-.31774902 1.43066406-.77001953 2.73730469-1.34039307 3.88806152zm40.62957764 49.00109864c-3.4072876-2.6081543-6.98034668-3.12109375-9.63763428-3.00671387.57385254 2.0032959.33337403 4.17565918-.25 6.28649902-2.23272705-3.3083496-5.37091064-5.51538086-8.91101074-6.77001953-2.29870605-.81542969-4.76586914-1.23999023-7.2746582-1.3145752 5.47424316 6.00671387 11.18457031 11.14770508 18.10241699 10.93188477 3.31182861-.10217285 5.85186768-2.7701416 7.97088623-6.1270752zm34.55029297 71.18823242c-2.14508057-10.61303711-5.53063965-20.72351074-10.4666748-30.3963623 6.8336792 3.29711913 12.34088134 14.88061523 15.18218994 24.02661132 2.07995605-1.94348144 4.43859863-3.14880371 7.07409668-3.23376465-.26263428.43786621-14.0446167 23.4165039-12.06915284 37.30932617.79608155 5.6011963 3.51055909 10.70410157 6.7763672 14.87365723 3.3908081 4.32824707 7.2625122 7.5871582 10.19061278 9.35314942-.84552002-3.56225586-1.01831054-8.00915528 2.31176758-10.33569336 1.94189453-1.35705567 4.1295166-1.32751465 6.21813965-.64733887-.23181152-2.35522461.225708-4.62194824 2.11553955-6.13146973 1.56951904-1.25378418 3.5001831-1.54406738 5.44384766-1.32922363-.4539795-2.01721191-.3046875-4.0838623 1.07470703-5.84887695 1.87335205-2.39672852 4.35870361-2.80407715 6.67828369-2.41931153-5.17559814-5.92956543-16.68139648-10.22827148-16.71954346-10.24304199 2.61120606-1.83007812 5.96905518-1.69311523 9.35980225-.54504394.99572754-2.42541504 2.18499756-6.88098145 2.8803711-11.46569825.60681152-4.00146484.8081665-7.94763183.109375-10.39025879-.69537354-2.428833-6.16436768-9.3470459-12.97802735-17.21594238-9.45013428-10.91540527-21.33178711-23.350708-27.09423828-28.66064453-2.40637207-2.21655273-5.54455567-3.913208-8.85021973-5.20947266-3.9880371-1.56408691-8.20788574-2.53979492-11.74017334-3.14367675-3.2397461 4.4790039-7.70697021 8.07324218-14.43127441 9.10876464-4.46026612.6862793-14.03277588-.42285156-22.71636963-3.34472656l-.0008545.00683594c-2.12512206-.13684082-5.39520263.039917-9.34594726.25488281-9.89111328.5354004-23.81018066 1.28845215-36.9053955-1.7816162-1.0970459.52075194-2.14715577 1.0875244-3.1237793 1.70092773-1.14453125.71923828-2.21740723 1.51989746-3.18151856 2.40808105-4.59716797 4.23547363-12.71514892 14.85205078-20.25 25.6348877-8.48364258 12.140625-16.13983154 24.31506347-17.09136963 27.63989257-.33709717 1.1776123-.62225342 2.34997559-.8552246 3.51025391-1.3201294 6.57678223-.8334961 12.32177734 1.30865478 16.7409668 2.04772949 4.22424316 5.69000244 7.2960205 10.77960205 8.74743652.56634521.16125488 1.16760254.3059082 1.80126953.4333496 7.05200195 1.41064454 16.45794678 2.05444337 25.40515137 2.14538575 10.57550049.10754395 20.45269775-.53979492 25.0293579-1.59350586 2.59558106-.59790039 4.83618165-3.1661377 6.59490968-6.6097412 1.79003906-3.5041504 3.01055908-7.81591798 3.6095581-12.02026368.59375-4.1652832.5772705-8.1538086-.097229-11.07397461-.38458252-1.6628418-.88806153-2.80664062-1.48791504-3.11157227-6.7407837-3.43054199-57.31286621-3.40283203-57.45593262-3.39855957.72564697-1.55444336 2.42358399-2.7614746 4.81585693-3.67834472 2.24389649-8.56799317 4.74468995-16.87780762 14.51965332-20.46264649-1.98168945 3.88378907-3.67785644 7.74230957-5.12072753 11.58276368-.89630127 2.38635253-1.70678711 4.78833007-2.43847657 7.20410156 15.04724121-2.20092774 39.7453003.60656738 48.50787354 3.2034912 2.38293457 1.21228028 3.93682861 3.83605958 4.73114013 7.27355958.84381104 3.65234375.89154053 8.4519043.19445801 13.33728027-.6901245 4.8446045-2.11553955 9.84875489-4.2189331 13.96728516-2.54528809 4.98327637-6.1392212 8.7821045-10.7635498 9.8470459-4.97509766 1.1455078-15.42266846 1.85168457-26.4685669 1.73901367-6.09875488-.06152344-12.39953613-.36901856-18.08831787-.98339844.02478027 12.8182373.91119384 26.1027832 1.8192749 39.71948242 1.26379394 18.93322754 2.56872559 38.51062012 1.67346191 58.859375.973938-.11743164 1.99053955-.00915527 3.03668213.37072754 2.8772583 1.04553223 4.78027344 3.46936035 6.03735352 6.2574463 1.8829956-3.17700196 4.63684082-5.29724122 8.62872314-3.91723634 2.61004639.90270996 4.48895264 2.89367676 5.84143067 5.25146485 1.60510254-3.59155274 4.13476562-6.3572998 8.1175537-5.796875 6.1548462.86657715 8.94317628 8.0270996 10.1194458 12.70874023.0789795-.05822754.15625-.11755371.22833253-.17736816 3.00616455-2.4885254 3.6694336-12.4354248 4.3873291-23.2076416.62329101-9.36437989 1.28564453-19.29846192 3.8439331-26.75964356-7.81549072-1.73400879-14.1552124-5.24743652-16.21429443-10.631958.34863281.1578369 30.94714356 14.00671386 59.41864014-5.00109864.58074951 7.57043457-6.70605469 12.68493652-16.38970947 15.16870117 2.69287109 7.50952149 3.3708496 17.66333008 4.00720214 27.22399903.71704102 10.7722168 1.38024903 20.7191162 4.38647461 23.2076416.07202149.05981445.15014649.1184082.22918701.17736816 1.17626954-4.68164062 3.96459961-11.84216308 10.11853028-12.70874023 3.98284912-.5604248 6.5133667 2.20532226 8.11846924 5.796875 1.35247802-2.35778809 3.23101806-4.34875489 5.84143066-5.25146485 3.99145508-1.38000488 6.74511719.74023438 8.62799072 3.91723633 1.25787354-2.78808594 3.15985108-5.21191406 6.03759766-6.25744629 1.04608154-.37988281 2.06262207-.48815918 3.0366211-.37072754-.89587403-20.34814453.409729-39.9251709 1.67370605-58.85839843.647583-9.71240235 1.28479004-19.25610352 1.60162353-28.4107666-.46960449-.54504395-.932312-1.10656739-1.38372802-1.68371583-3.85955811-4.92602539-7.0758667-11.02539062-8.04467774-17.84228515-.81774902-5.74414063 1.38635254-19.25732422 6.44824219-28.55847168zm40.08007812 35.21411133c.70489502-1.07971192 1.29260254-2.12817383 1.72839356-3.11938477-1.14935303-.67077637-2.55047608-1.27990723-3.0557251-.63439941-.56512451.72277832.29516602 2.31274414 1.32733154 3.75378418zm-7.03509521 8.3272705c-.22918701.22607422-.4609375.45056153-.69274902.67236329-.96618653-1.89331055-1.82037354-4.0111084-1.14324952-4.55175782.86114502-.68713379 2.85168457.13085938 4.54534912 1.0588379-.86376953.95495605-1.77349853 1.90026855-2.70935058 2.82055663zm-6.10882568 5.34985352c-1.41497803 1.09008789-2.77618409 2.03027344-4.01147461 2.76416016-.71704102-1.95837403-1.31341553-4.3100586-.364563-4.9720459.88977052-.62304688 2.81781007.7989502 4.3760376 2.20788574zm39.46899414 17.39245605c.3324585-3.82995605 2.85516357-6.06726074 5.54101562-8.4501953 2.5479126-2.25976563 5.20776367-4.62023927 7.02380371-8.258667 1.37420654 2.54064941 2.69805908 5.69213867 3.4888916 8.99353027.94189453 3.93908692 1.07641602 8.00476075-.52697754 11.22387696-1.5494995 3.11340332-3.54180908 4.74182129-5.56274414 5.28100586-1.25958252.33642578-2.57043457.26403808-3.80657959-.1201172-1.31347656-.4078369-2.54095459-1.15698241-3.5557251-2.14282226-1.73187255-1.68359375-2.81787109-4.03796386-2.60168456-6.52661133zm-.59552002 20.95422364c-.65545655.77319336-1.32995606 1.48937988-2.02008057 2.14978027-3.8725586 3.70666504-8.23999023 5.68713379-12.90429687 6.17785645-4.54187012.47729492-9.29467774-.49072266-14.0822754-2.671875-5.83880615-2.6595459-11.75054931-7.1463623-17.38104248-13.00854493-2.61987304-2.72741699-5.20941162-5.22717285-7.77984619-7.33129882-1.19281006-.977417-2.38555908-1.87329102-3.5817871-2.67224122-.137146 2.11767579-.277771 4.2409668-.42016602 6.37158204 1.43933105.73156738 2.85864258 1.58581543 4.26062011 2.54541015 1.97668458 1.3515625 3.91339112 2.90014649 5.82409668 4.5961914 6.08966065 5.40563966 12.91119385 9.78552247 19.67279053 12.15563966 4.87005615 1.70654297 9.69927979 2.3642578 14.16564942 1.58776855 4.3248291-.75183105 8.37280273-2.89538574 11.8538208-6.8034668.82989502-.93151855 1.62860107-1.9621582 2.39251709-3.09680175zM64.50476074 358.31787109c.1875-2.0065918.34954834-4.00415039.4888916-5.9954834.30725098-.3885498.63250733-.68579101.95428467-.84216308.12579346-.06091309.2512207-.08093262.36315918-.04064941 3.06713867 1.11462402 3.99157715 6.72192382 4.2678833 10.30981445-.3184204-.08703613-.6293335-.17700195-.93286133-.2701416-2.33197021-.7175293-4.06988525-1.5654297-4.86846923-2.52600098-.19189454-.23156738-.289917-.4465332-.27288819-.63537598zm123.16748047 3.43151856c.31860352-.08703613.62939453-.17700195.93231201-.2701416 2.33172608-.71716309 4.06964112-1.5654297 4.86828614-2.52600098.19189453-.23156738.28997802-.4465332.272583-.63537598-.1875-2.00585937-.34893799-4.00415039-.4887085-5.9954834-.30645751-.3885498-.631958-.68579101-.95318603-.84216308-.12670898-.06091309-.25262451-.08093262-.3637085-.04064941-3.0670166 1.11462402-3.9915161 6.72192382-4.26757812 10.30981445zm-86.33398437.56152344c-2.5088501.54736328-5.50897217.92199707-8.71832276 1.1159668.3706665-4.01806641 1.31256104-10.19567872 3.58435059-9.8758545 2.98626709.42041016 4.48461914 5.5510254 5.13397217 8.7598877zm55.57470703 0c2.50793457.54736328 5.50805664.92199707 8.71740722 1.1159668-.3706665-4.01806641-1.31256103-10.19567872-3.58349609-9.8758545-2.98626709.42041016-4.4845581 5.5510254-5.13391113 8.7598877zm-79.73535157.68249511c.67242432.08325196 1.35638428.15661621 2.04986573.22131348 2.17126465.20178223 4.4194336.32019043 6.6599121.3560791-.47369384-3.4744873-1.69720458-8.68981933-4.81280517-9.7664795-2.09637451-.72509765-3.33642578 5.39697267-3.89697266 9.18908692zm101.84576416.22131348c-2.17108154.20202637-4.41949462.32055664-6.66003417.3560791.4730835-3.47387695 1.69714355-8.68920898 4.81274414-9.7664795 2.09643554-.72509765 3.33605957 5.39697267 3.89685058 9.18908692-.671875.08251953-1.35681152.15661621-2.04956055.22131348z"/>
          <path fill="rgb(0,0,0)" fill-rule="evenodd" d="M107.91406485 67.30191834c4.12606729-.30327886 7.8658312 4.81520176 8.35283388 11.43101343.48700268 6.61667819-2.46192443 12.22560405-6.58799172 12.5288829-4.12606728.30241235-7.8658312-4.81606827-8.35283387-11.43187994-.48700268-6.61667818 2.46192443-12.22560404 6.58799171-12.52801639"/>
          <path fill="rgb(0,0,0)" fill-rule="evenodd" d="M155.55699032 58.44964172c4.052279-.6212884 8.47610371 4.19131382 9.88328972 10.74993576 1.4063179 6.55862195-.73701476 12.3789765-4.78755756 13.00113141-4.052279.62215492-8.47697182-4.19131382-9.88328972-10.74993576-1.407186-6.55862195.73614665-12.3789765 4.78755756-13.00113141"/>
          <path fill="rgb(255,255,255)" fill-rule="evenodd" d="M110.75882027 68.04711782c2.13551978 0 3.86737424 1.7286895 3.86737424 3.86117313 0 2.13248363-1.73185446 3.86117312-3.86737424 3.86117312-2.13725598 0-3.86911043-1.7286895-3.86911043-3.86117312 0-2.13248363 1.73185445-3.86117313 3.86911043-3.86117313"/>
          <path fill="rgb(255,255,255)" fill-rule="evenodd" d="M158.80627915 58.65153879c2.13551979 0 3.86737424 1.729556 3.86737424 3.86203963 0 2.13161712-1.73185445 3.86117313-3.86737424 3.86117313-2.13638787 0-3.86911043-1.729556-3.86911043-3.86117313 0-2.13248363 1.73272256-3.86203963 3.86911043-3.86203963"/>
          <path fill="rgb(255,207,51)" fill-rule="evenodd" d="M9.69213466 168.85181132l64.25449145-21.11774017 64.25449145 21.11774017v70.39622213c0 18.52687221-35.61803928 61.79246086-64.25449145 61.79246086-28.63636536 0-64.25449145-43.26558865-64.25449145-61.79246086v-70.39622213"/>
          <path fill="rgb(255,175,46)" fill-rule="evenodd" d="M73.94627887 147.73320464l64.25483869 21.11860668v70.39622213c0 18.52687221-35.61803928 61.79211426-64.2548387 61.79211426V147.73320464"/>
          <path fill="rgb(0,0,0)" fill-rule="evenodd" d="M73.94592285 144.4552002L8.71688843 165.89526367l-2.145813.70532227v72.64746093c0 10.90844727 11.0906067 29.41540528 26.0083313 43.76135254 12.3815918 11.90734864 27.52105714 21.14611817 41.36688233 21.14611817 13.84613037 0 28.98571778-9.23876953 41.36743164-21.14611817 14.91827393-14.34594726 26.0090332-32.85290527 26.0090332-43.76135254v-72.64746093c-22.45941161-7.38085938-44.91967773-14.75756836-67.37683105-22.14538574zm-61.1326294 26.64868164l61.13299561-20.09265137 61.1340332 20.09265137v68.14416503c0 9.38085938-10.26959228 26.00048829-24.08190917 39.2833252-11.35559082 10.92028809-24.98620606 19.39343262-37.05212403 19.39343262-12.06445312 0-25.69604492-8.47314453-37.05145263-19.39343262-13.81256104-13.28283691-24.08154297-29.90246582-24.08154297-39.2833252v-68.14416503z"/>
          <path fill="rgb(0,0,0)" fill-rule="evenodd" d="M40.30316162 249.40698242l1.16107178-8.02563476h8.84375l1.16131592 8.02563476h13.0425415l-11.70239258-64.64697265H38.96295166L27.2605896 249.40698242h13.04257202zm8.5758667-18.27990722h-5.98553467l3.03741455-22.91577149 2.94812012 22.91577149z"/>
          <path fill="rgb(0,0,0)" fill-rule="evenodd" d="M87.93740583 192.60721105c0-2.37857276.63978783-4.28056446 1.9202316-5.7068416 1.28044377-1.42714366 3.20067538-2.14028223 5.76156293-2.14028223h18.49221235l2.2327467 12.03757115h-14.20294275c-.77521104 0-1.16151441.41592529-1.16151441 1.24777587v38.34224632c0 .8327171.38630337 1.24864238 1.16151441 1.24864238h5.89524994V212.134037h12.59522622v37.2729717H98.03164323c-3.75191727 0-6.37270354-.77292783-7.8614907-2.3187835-1.48878717-1.54585566-2.2327467-4.10206318-2.2327467-7.66862256v-46.81239158"/>
        </g>
      </g>
      <text font-size="0" style="white-space:pre">
        <tspan x="231.273" y="140" fill="rgb(0,0,0)" font-family="Roboto" font-size="80" font-weight="900" style="white-space:pre;text-transform:none">OWASP</tspan> <tspan x="216" y="66" fill="rgb(0,0,0)" font-family="Roboto" font-size="80" font-weight="700" style="white-space:pre;text-transform:none"> </tspan>
      </text>
      <text font-size="0" style="white-space:pre">
        <tspan x="238" y="193" fill="rgb(0,0,0)" font-family="Roboto" font-size="54" font-weight="400" style="white-space:pre;text-transform:none">Application</tspan> <tspan x="301.492" y="256" fill="rgb(0,0,0)" font-family="Roboto" font-size="54" font-weight="400" style="white-space:pre;text-transform:none">Gateway</tspan>
      </text>
    </g>
  </g>
</svg>
